<?xml version="1.0" encoding="utf-8"?>
<!-- Generator: Adobe Illustrator 16.0.4, SVG Export Plug-In . SVG Version: 6.00 Build 0)  -->
<!DOCTYPE svg PUBLIC "-//W3C//DTD SVG 1.1//EN" "http://www.w3.org/Graphics/SVG/1.1/DTD/svg11.dtd">
<svg version="1.1" id="Layer_1" xmlns="http://www.w3.org/2000/svg" xmlns:xlink="http://www.w3.org/1999/xlink" x="0px" y="0px"
	 width="26.471px" height="26.512px" viewBox="0 0 26.471 26.512" enable-background="new 0 0 26.471 26.512" xml:space="preserve">
<g id="To_Do">
	<polygon fill="#CCFFD9" points="9.935,16.052 9.935,16.052 9.934,16.05 	"/>
	<polygon fill="#CCFFD9" points="13.196,12.788 9.935,16.052 16.082,22.199 26.471,11.812 24.097,9.396 16.149,15.997 	"/>
	<path fill="#CCFFD9" d="M20.712,24.854H1.657V3.325h2.264v0.859c0,0.455,0.373,0.829,0.829,0.829h0.207
		c0.456,0,0.829-0.374,0.829-0.829V3.325h2.421v0.859c0,0.455,0.373,0.829,0.829,0.829h0.207c0.456,0,0.829-0.374,0.829-0.829V3.325
		h2.421v0.859c0,0.455,0.373,0.829,0.829,0.829h0.207c0.456,0,0.829-0.374,0.829-0.829V3.325h2.421v0.859
		c0,0.455,0.373,0.829,0.829,0.829h0.207c0.456,0,0.828-0.374,0.828-0.829V3.325h0.494l1.577,1.549v4.641l1.657-1.375V4.178
		l-2.557-2.51h-1.172V0.829C18.641,0.374,18.269,0,17.813,0h-0.207c-0.456,0-0.829,0.374-0.829,0.829v0.839h-2.421V0.829
		C14.356,0.374,13.983,0,13.527,0H13.32c-0.456,0-0.829,0.374-0.829,0.829v0.839h-2.421V0.829C10.071,0.374,9.698,0,9.242,0H9.035
		C8.58,0,8.207,0.374,8.207,0.829v0.839H5.785V0.829C5.785,0.374,5.413,0,4.957,0H4.75C4.294,0,3.921,0.374,3.921,0.829v0.839H0
		v24.844h22.37v-7.67l-1.657,1.657V24.854z"/>
</g>
</svg>
