<?xml version="1.0" encoding="utf-8"?>
<!DOCTYPE svg PUBLIC "-//W3C//DTD SVG 1.1//EN" "http://www.w3.org/Graphics/SVG/1.1/DTD/svg11.dtd">
<svg version="1.1" xmlns="http://www.w3.org/2000/svg" xmlns:xlink="http://www.w3.org/1999/xlink" x="0px" y="0px"
	 width="485.333px" height="484.667px" viewBox="0 0 485.333 484.667" enable-background="new 0 0 485.333 484.667"
	 xml:space="preserve">
<g id="Layer_1">
	<path stroke="#FF0000" stroke-width="5" d="M481.578,469.58c0,6.627-5.373,12-12,12H15.102c-6.627,0-12-5.373-12-12V15.103
		c0-6.627,5.373-12,12-12h454.476c6.627,0,12,5.373,12,12V469.58z"/>
</g>
<g id="Layer_7">
	<g>
		<linearGradient id="SVGID_1_" gradientUnits="userSpaceOnUse" x1="59.355" y1="345.4497" x2="196.9014" y2="345.4497">
			<stop  offset="0" style="stop-color:#FF1A00"/>
			<stop  offset="0.1446" style="stop-color:#C71400"/>
			<stop  offset="0.317" style="stop-color:#8B0E00"/>
			<stop  offset="0.4833" style="stop-color:#590900"/>
			<stop  offset="0.6389" style="stop-color:#330500"/>
			<stop  offset="0.7814" style="stop-color:#170200"/>
			<stop  offset="0.9063" style="stop-color:#060100"/>
			<stop  offset="1" style="stop-color:#000000"/>
		</linearGradient>
		<polygon fill="url(#SVGID_1_)" points="196.901,234.804 196.901,339.867 59.355,456.096 59.355,350.969 		"/>
		<linearGradient id="SVGID_2_" gradientUnits="userSpaceOnUse" x1="59.355" y1="219.2046" x2="196.9014" y2="219.2046">
			<stop  offset="0" style="stop-color:#FF1A00"/>
			<stop  offset="0.1446" style="stop-color:#C71400"/>
			<stop  offset="0.317" style="stop-color:#8B0E00"/>
			<stop  offset="0.4833" style="stop-color:#590900"/>
			<stop  offset="0.6389" style="stop-color:#330500"/>
			<stop  offset="0.7814" style="stop-color:#170200"/>
			<stop  offset="0.9063" style="stop-color:#060100"/>
			<stop  offset="1" style="stop-color:#000000"/>
		</linearGradient>
		<polygon fill="url(#SVGID_2_)" points="196.901,108.559 196.901,213.621 59.355,329.85 59.355,224.723 		"/>
		<linearGradient id="SVGID_3_" gradientUnits="userSpaceOnUse" x1="59.355" y1="105.4429" x2="156.0016" y2="105.4429">
			<stop  offset="0" style="stop-color:#FF1A00"/>
			<stop  offset="0.0531" style="stop-color:#EB1800"/>
			<stop  offset="0.2579" style="stop-color:#A51100"/>
			<stop  offset="0.4512" style="stop-color:#6A0B00"/>
			<stop  offset="0.6275" style="stop-color:#3C0600"/>
			<stop  offset="0.7833" style="stop-color:#1B0300"/>
			<stop  offset="0.9127" style="stop-color:#070100"/>
			<stop  offset="1" style="stop-color:#000000"/>
		</linearGradient>
		<polygon fill="url(#SVGID_3_)" points="157.657,14.001 196.901,80.655 59.355,196.884 59.355,91.756 		"/>
	</g>
</g>
<g id="Layer_6">
	<path fill="#FF0000" d="M266.291,279.618c8.774,6.744,16.368,14.023,21.824,22.311c6.031,9.159,6.618,25.7,3.661,37.627
		c-4.729,19.068-19.411,33.407-39.757,39.499c0.021-7.859-0.22-68.728-0.22-97.938c-8.606-5.791-18.62-12.163-23.336-14.978
		c0,5.546-0.165,103.497-0.168,116.135C181.624,382.077,133.904,307,133.904,307v90.932c0,0,53.483,20.206,94.575,19.521
		c0,17.808,0,29.623,0,29.623l23.398-0.088l0.088-29.402c0,0,53.712-9.088,73.574-55.657c6.686-15.677,8.949-24.813,9.151-41.491
		c0.319-26.005-6.609-45.909-34.169-66.714c-12.646-9.546-30.655-20.916-49.221-32.543c-14.802-9.27-52.476-30.916-60.001-47.797
		c-4.159-9.327-6.333-16.504-5.695-28.475c1.456-27.335,23.75-41.937,42.843-46.872c-0.021,5.752-0.305,84.182-0.333,98.331
		c6.354,4.331,15.022,8.738,24.001,14.644c0.017-14.215,0.102-107.112,0.109-114.609c3.685,0.245,12.656-0.473,26.775,9.042
		C310,126.334,328,175,328,175l0.488-95.077c0,0-34.068-14.746-76.373-15.763c0-14.645,0.102-29.594,0.102-29.594h-23.899
		l0.102,29.594c0,0-44.508,0.813-69.73,36.068c-9.131,12.763-14.537,28.752-14.78,47.188c-0.356,26.967,8.396,54.833,46.104,81.763
		c4.745,3.39,10.712,8.408,18.712,13.696C227.686,255.412,249.222,266.5,266.291,279.618"/>
</g>
<g id="Layer_4">
</g>
<g id="Layer_3">
	<rect x="204.592" y="255.972" width="193.49" height="6.737"/>
</g>
<g id="Layer_8">
	<path opacity="0.4" fill-rule="evenodd" clip-rule="evenodd" fill="#50BA56" enable-background="new    " d="M96.574,378.524
		c-0.111,1.676,9.331,8.941,10.515,8.979c-0.379-1.24-0.978-2.35-1.795-3.326c17.921,18.408,48.817,34.36,75.961,27.78
		c9.081-2.201,42.592-22.407,49.422-15.812c6.584,6.367,24.108,14.658,33.049,16.708c11.42,2.616,18.912,8.409,30.031,1.39
		c-2.709-3.305-16.443-3.56-21.336-5.152c-4.236-1.379-8.506-5.707-11.742-6.684c-2.314-7.164-0.953-28.434,4.631-34.195
		c6.514-9.923,17.729-17.021,23.676-26.68c-0.455-4.273,9.578-10.637,11.846-13.971c5.158-7.59,7.473-15.038,9.342-23.854
		c1.744-8.231,4.197-13.785,4.002-22.563c-0.045-1.979-2.373-24.054-3.654-22.124c6.676-10.05-10.248-29.728-16.674-35.82
		c-6.547-6.207-40.209-38.837-44.699-31.045c-6.152,10.68-10.362,20.989-18.155,30.833c-7.044,8.896-15.588,16.192-20.148,27.324
		c-11.122,27.152-7.938,57.99,10.249,81.306c6.386,8.187,11.441,14.729,20.144,20.554c8.129,5.439,16.676,10.546,18.684,20.7
		c1.295,6.549-0.049,32.894-5.344,33.423c0.299,0.279,0.334,0.602,0.104,0.965c-5.209-7.731-21.535-10.895-28.555-18.707
		c-3.82-4.252,1.673-32.567-4.043-42.205c0.162,0.273-6.424-12.583-10.74-16.145c-7.333-6.053-18.843-11.937-27.807-15.282
		c-7.284-2.719-42.714-5.794-45.296,0.876c0.257-0.68-21.845,2.456-21.948,5.377c-0.206,5.854-20.611,1.775-20.568,8.906
		c0.424,0.141,0.798,0.369,1.123,0.68c-6.468,4.48-21.453-5.821-26.043-0.416c1.837,1.36,20.632,34.938,20.73,34.674
		c-0.453,0.189-0.887,0.145-1.302-0.133c-0.585,2.437,2.048,0.025,1.82,0.186c0.061,2.459,2.66,1.435,0.812,3.793
		c-0.373-0.486-0.849-0.828-1.426-1.025C90.9,368.235,95.884,377.58,96.574,378.524C96.463,380.2,96.535,378.471,96.574,378.524z
		 M309.183,249.555C308.703,248.578,309.14,249.469,309.183,249.555C309.119,249.422,309.183,249.555,309.183,249.555z
		 M254.248,190.274c0.002-0.057-0.01-0.111-0.021-0.164C254.24,190.163,254.25,190.218,254.248,190.274z M96.753,376.987
		C97.463,376.518,95.869,377.573,96.753,376.987C96.875,376.907,96.561,377.116,96.753,376.987z"/>
	<path opacity="0.4" fill="#FDFF17" enable-background="new    " d="M92.609,58.989c1.276-0.836,2.551-1.672,3.825-2.494
		c11.546,9.719,22.525,20.017,33.547,30.331c0.452,0.424,0.92,0.581,1.487,0.311c1.644-0.792,3.301-1.558,4.916-2.394
		c1.558-0.807,2.692-4.491,3.655-5.921c1.444-2.182,3.031-4.265,4.547-6.403c2.82-3.967,8.514-5.823,13.004-7.594
		c1.133-0.438,1.333,1.176,2.749,0.425c3.158-1.672,6.318-2.083,9.717-3.088c0.284-0.085,0.624,0.015,0.921,0.028
		c-0.354,1.559-1.049,2.989-1.516,4.519c-0.298,0.978,0.864,3.882,1.771,4.363c0.114,0.057,0.227,0.085,0.34,0.127
		c4.052,1.02,8.57-0.198,12.666-0.566c0.623,0.227,1.232,0.51,1.798,0.864c2.225,0.227,4.718-0.169,6.645,1.275
		c-1.36,2.408,8.769,4.278,10.879,4.944c-1.02,2.465,2.777,2.933,4.477,3.782c1.657,0.822,4.277,3.386,5.637,4.732
		c-3.145-0.227-5.453,1.502-8.103,2.862c-0.85,0.439-2.96,3.244-3.853,4.15c-1.502,1.573-2.549,3.287-4.264,4.774
		c-0.808,0.708-1.006,1.36-0.327,1.898c5.525,4.42,12.084,7.466,18.687,9.973c1.642,0.623,0.424,1.417,1.146,2.465
		c0.893,1.303,4.336,1.983,5.696,2.635c3.031,1.445,6.232,4.604,9.208,6.573c0.226,0.142,0.509,0.453,0.481,0.637
		c-0.481,0.708-1.148,1.204-1.998,1.473c-1.332,1.19-5.512,5.78-5.001,7.863c0.722,2.989,5.398,5.964,7.466,7.947
		c0.382,0.722,0.792,1.445,1.217,2.139c1.743,1.63,3.627,3.117,5.469,4.633c-1.728,0.538,0.014,1.006-0.143,1.544
		c-0.141,0.028-0.282,0.07-0.425,0.085c-1.657,0.226-2.776,1.913-2.182,3.47c4.293,11.248,6.036,20.825,6.248,33.065
		c-0.084,0.014-0.156,0.028-0.241,0.042c-1.644-6.12-5.596-7.58-9.916-11.46c-1.204-1.077-1.53,0.765-1.374,1.671
		c-1.984-0.935-3.131-2.62-4.747-3.598c-2.663,0.553-5.538-3.598-7.14-5.44c-1.217,1.998-1.898,3.924-2.238,6.021
		c-1.26-0.807-3.937-1.572-4.972-2.479c-2.904-2.564-5.539-4.731-8.84-6.885c-3.329-2.168-8.216-6.616-12.282-7.098
		c-0.425-0.057-0.863,0.057-1.303,0.085c0.638,4.435,5.723,8.019,8.57,11.191c2.508,2.791,4.363,7.764,6.347,11.021
		c0.822,1.332-1.459,1.218-0.595,2.521c0.211,0.326,0.411,0.68,0.623,1.006c0.369,0.539,0.596,1.034-0.495,1.36
		c2.281,2.294,4.15,4.916,5.836,7.678c0.438,0.722-0.595,1.133-0.624,1.714c-0.057,1.246,1.303,2.932,1.743,4.051
		c1.049,2.663,1.049,6.29,1.757,8.485c0.325,1.02,0.736,2.012,1.119,3.032c-0.964-0.283-9.294-4.491-9.081-1.431
		c-4.434,0.184-8.812,0.595-13.161,1.431c-0.284,0.057-0.681,0.553-0.694,0.864c-0.254,6.134,0.608,12.269,0.368,18.346
		c-0.679-0.382-1.331-0.992-2.039-1.076c-1.644-0.185-3.33-0.199-4.987-0.113c-0.495,0.028-1.217,0.495-1.417,0.949
		c-1.062,2.366-0.722,4.902-0.679,7.409c-1.133-0.184-2.083-0.142-2.438,0.765c-0.75,1.884-0.652,3.754-0.736,5.723
		c-0.027,0.807-1.048,1.345-1.035,2.195c0.029,1.715,0.51,3.527,0.737,5.214c0.368,2.72,1.062,5.553,0.793,8.287
		c-0.114,0.028-0.226,0.042-0.325,0.07c-2.295-2.875-4.095-5.935-6.134-8.995c-1.389-2.068-3.839-3.995-4.916-5.921
		c-0.283-0.51-0.553-1.02-0.851-1.516c-0.807-1.388-1.444-1.445-2.507-0.042c-2.749-3.045-3.769-7.026-5.737-10.498
		c-0.128-0.212-0.596-0.424-0.837-0.354c-1.374,0.396-2.72,0.907-4.093,1.29c-2.068,0.58-2.209,2.436-3.726,3.145
		c-0.539-1.743-2.098-4.419-2.125-6.134c-0.029-1.643,0-3.287,0.014-4.93c0.014-1.671-1.119-0.297-1.771-0.836
		c-0.665-0.552-0.665-3.428-0.765-4.207c-0.382-3.442-0.382-6.645-1.403-10.016c-1.218-4.009-10.228,0.015-12.934,0.751
		c-1.998,0.538-4.958-0.78-6.559,2.734c-0.652-1.842-0.227-4.661-0.269-6.616c-0.029-1.317-1.148-0.283-1.303-1.303
		c-0.284-1.728,0.722-3.868,1.119-5.511c0.241-0.991-0.426-1.657-1.446-1.445c-0.198,0.043-0.397,0.113-0.835,0.255
		c0.666-3.91,2.281-7.494,3.74-11.178c0.681-1.699-2.818-2.733-3.953-2.479c0.256-0.453,0.411-0.694,0.524-0.963
		c0.354-0.822-0.297-0.935,0.284-1.729c1.146-1.601,2.125-3.146,3.117-4.845c0.34,0.694,0.878,1.147,1.614,1.375
		c2.565-0.539,6.616-23.502,3.612-23.375c-0.411,0.014-0.92,0.169-1.19,0.467c-5.142,5.638-6.97,13.657-9.449,20.456
		c-1.133-2.152-2.763-3.286-4.845-3.782c-1.204,0-1.969,0.694-2.281,2.083c-1.401,3.796-2.309,7.706-4.334,11.248
		c-0.808-0.793-1.317-2.068-2.436-0.609c-1.389,1.814-2.154,4.307-3.089,6.375c-0.523,0.297-1.104,0.652-1.345,1.176
		c-1.559,3.513-2.494,7.253-3.571,10.937c-1.09-2.89-2.039-5.128-3.414-7.919c-0.92-1.87,0.015-5.156-1.644-6.658
		c-0.311-0.284-0.991-0.157-1.544-0.199c-0.057-1.345,1.078-3.244,0.681-4.434c-0.297-0.878-0.694-1.742-0.978-2.621
		c-0.694-2.252-2.89-0.85-4.519-0.354c0.298-2.493,0.595-4.887,0.863-7.097c-0.325-0.312-0.679-0.482-0.679-0.667
		c-0.07-2.507,3.428-10.625-0.724-10.214c-2.577,0.255-5.142,0.581-7.706,0.879c-2.182,0.269,1.006-6.149,1.29-6.786
		c-0.213-0.185-0.61-0.411-0.581-0.524c0.736-3.045,2.366-5.015,4.066-7.607c0.694-1.062,0.638-1.091-0.468-1.671
		c0.17-2.153,0.992-4.081,2.323-5.738c2.947-3.627,6.318-6.97,8.94-10.852c0.227-0.339,0.467-0.835-0.17-1.048
		c-4.279-1.402-7.862-1.856-11.049-5.397c-0.327-0.354-0.397-0.935-0.581-1.417c0.084-0.042,0.17-0.099,0.254-0.142
		c-0.935-0.864-1.941-1.558-3.399-1.147c-0.199-1.006,0.438-1.614,0.934-2.209c0.851-1.006,1.786-1.913,2.665-2.89
		c0.693-0.765-0.44-1.544,0.241-2.14c1.487-1.318,2.761-2.918,4.773-3.555c2.608-0.822-1.374-2.253,0.411-3.5
		c1.445-1.006,3.925-2.89,5.525-3.457c0.765-0.269,1.573-0.425,2.366-0.623c-1.487-0.695-2.918-0.964-4.165,0.326
		c-0.44-2.451,1.204-4.137,2.012-6.063c0.822-1.998,8.032-5.029,9.633-5.497c2.379-0.694,4.831-0.538,7.267-0.523
		c1.204,0,2.38-0.157,3.329,1.218c0.908,1.332,4.378,0.963,5.553-0.212c0.383-0.382,0.921-0.708,1.446-0.85
		c1.898-0.539,1.998-0.751,0.638-2.14C112.839,77.377,102.979,67.942,92.609,58.989C93.885,58.167,94.82,60.902,92.609,58.989z"/>
	<path opacity="0.5" fill="#81929C" enable-background="new    " d="M364.601,91.745c3.217,1.756,6.691,11.275,6.338,10.642
		c0.865-0.281,1.645-0.524,2.426-0.769c0.719-0.231,1.328-0.268,1.364,0.756c0.014,0.219,0.098,0.451,0.195,0.805
		c14.2-9.325,32.068-10.604,45.938-21.014c7.24-5.436,14.273-12.505,19.124-20.185c2.561-4.046,3.023-7.874,4.072-12.408
		c0.377-1.658,1.608-7.654,4.278-7.533c1.157,0.049,2.949,2.194,2.181,3.279c-3.814,5.436-5.473,11.616-9.227,17.101
		c-4.718,6.911-11.201,13.529-17.674,18.807c-6.716,5.485-14.212,9.081-22.195,12.298c-6.935,2.792-18.015,5.059-23.536,10.288
		c-1.169,1.097-1.134,1.401-0.146,2.571c0.548,0.646,0.913,1.451,1.389,2.158c2.999,4.424,10.093,2.145,14.541,3.047
		c1.828,0.378,6.155-0.109,7.618,0.512c2.632,1.121,5.29,4.144,7.179,6.216c4.351,4.754,7.313,10.665,10.848,15.968
		c1.963,2.95,3.706,6.106,5.912,8.885c1.804,2.267,4.655,4.242,5.716,6.972c-8.604-2.865-19.842-9.69-28.825-6.837
		c-0.316,3.145,3.132,5.997,4.229,8.837c1.791,4.595,2.899,8.483,5.533,12.713c-4.083,0.584-8.386,0.584-11.556,3.619
		c-3.619,3.462-1.267,7.118-3.254,10.531c-0.585,1.012-2.974,1.292-3.863,1.718c-2.353,1.109-4.267,2.95-5.704,5.095
		c-1.378,2.036-0.683,5.229-0.306,7.447c-2.339-1.511-3.595-4.107-5.923-5.789c-3.425-2.474-6.387-4.229-9.508-7.154
		c-2.205-2.072-5.181-3.925-8.337-3.669c-2.486,0.195-4.461,2.999-6.436,3.145c1.475-5.473,1.305-9.507,0.781-15.078
		c-0.354-3.815,0.486-10.835-2.901-13.542c-0.72,1.316,0.353,2.023-1.536,2.681c-6.131,2.158-10.08,9.105-12.762,14.931
		c-2.34,5.071-10.884,16.906-3.791,21.988c-3.145-0.95-4.351-6.362-7.155-8.422c-0.816-0.598-7.799,4.352-8.726,4.998
		c-3.254,2.23-4.133,5.35-5.521,8.788c-1.013-2.291-1.584-4.693-4.278-5.448c-7.398-2.084-13.749,2.365-19.44,6.192
		c1.719-4.437,4.18-7.776,3.437-12.847c-0.39-2.694-0.159-5.241-1.768-7.594c-0.706-1.036-4.046-1.926-4.242-2.389
		c-0.39-0.915,2.438-3.754,2.828-4.546c1.487-3.035,2.377-6.399,2.073-9.788c-0.109-1.219-1.037-2.353-1.317-3.584
		c-0.45-2.06-1.926-2.51-3.668-2.767c-2.512-0.378-4.925-0.012-7.313,0.78c-0.037-0.098-0.085-0.183-0.123-0.281
		c6.168-3.181,10.8-6.679,15.42-11.871c4.741-5.326,10.591-9.788,14.48-15.748c-4.035-1.792-8.18-3.559-12.713-3.095
		c-4.01,0.414-7.789,5.752-11.104,7.922c-4.376,2.852-8.495,6.118-12.957,8.824c0.391-0.938,0.769-1.621,0.939-2.353
		c0.45-1.938-0.549-3.315-2.012-4.375c-3.389-2.474-7.496-3.461-11.48-4.595c-3.584-1.023-6.303,1.231-9.131,0.707
		c0.865-2.755,2.706-4.51,5.095-6.156c1.536-1.06,2.463-3.961,4.011-4.412c3.584-1.048,8.275-1.475,11.457-3.485
		c3.827-2.426,6.558-6.545,10.458-8.837c4.327-2.547,6.984-5.607,11.262-7.789c3.706-1.902,7.277-3.73,11.129-5.375
		c4.022-1.719,4.083-2.974,1.657-6.192c-0.182,1.268-0.512,1.45-1.414,0.756c-2.133-1.646-3.924-2.657-6.423-3.62
		c0.183-0.183,0.268-0.341,0.391-0.377c2.778-0.634,5.545-1.305,8.312-2c1.719-0.426,6.839-1.548,8.544-0.963
		c-0.914-0.78-0.535-1.085,0.184-1.328c1.986-0.658,2.182-0.769,3.961,0.17c0.098-0.33,0.196-0.659,0.306-1.024
		c2.023-0.609,3.9-0.987,5.996-1.231c-0.401,0.695-0.756,1.292-1.207,2.072c-0.146-0.463-0.23-0.731-0.377-1.146
		c-0.707,0.146-1.438,0.292-2.353,0.476c0.841,0.305,1.377,0.475,1.89,0.695c0.182,0.67-0.158,0.854-1.012,0.561
		c-0.099,0.219-0.232,0.524-0.428,0.938c0.793-0.098,1.476-0.195,2.426-0.317c0.256-0.475,0.646-1.17,1.049-1.914
		c0.316,0.146,0.67,0.317,1.012,0.476c0.305-0.39,0.354-0.841,0.146-1.366c0-0.024,0.463-0.098,0.5-0.024
		c0.572,0.597,0.803,1.28,0.719,2.023c0.463-0.146,0.816-0.256,1.145-0.353c0.402,0.549,0.781,1.048,1.207,1.621
		c1.085-1.012,1.646-0.183,2.95-0.354c0.354,0.963,1.512,1.864,2.535,1.804c0.328-0.024,0.634-0.366,0.938-0.573
		c-0.475-0.366-1.668-0.755-1.303-1.243C339.784,78.13,361.565,88.247,364.601,91.745z M332.008,172.409
		c0.098,0.085,0.207,0.171,0.304,0.256c1.622-1.767,3.23-3.535,4.853-5.314c-0.135-0.109-0.268-0.231-0.391-0.341
		C335.178,168.802,333.592,170.605,332.008,172.409C332.106,172.495,333.592,170.605,332.008,172.409z"/>
</g>
<g id="Layer_2">
	<rect x="64.597" y="257.786" fill="#FF0000" width="355.482" height="3.628"/>
</g>
</svg>
