<?xml version="1.0" encoding="utf-8"?>
<!-- Generator: Adobe Illustrator 16.0.4, SVG Export Plug-In . SVG Version: 6.00 Build 0)  -->
<!DOCTYPE svg PUBLIC "-//W3C//DTD SVG 1.1//EN" "http://www.w3.org/Graphics/SVG/1.1/DTD/svg11.dtd">
<svg version="1.1" id="Layer_1" xmlns="http://www.w3.org/2000/svg" xmlns:xlink="http://www.w3.org/1999/xlink" x="0px" y="0px"
	 width="26.471px" height="26.512px" viewBox="0 0 26.471 26.512" enable-background="new 0 0 26.471 26.512" xml:space="preserve">
<g id="Notepad">
	<path fill="#CE7A28" d="M10.049,3.997V3.146h2.397v0.851c0,0.45,0.369,0.82,0.82,0.82h0.205c0.451,0,0.82-0.37,0.82-0.82V3.146
		h2.397v0.851c0,0.45,0.369,0.82,0.82,0.82h0.205c0.451,0,0.82-0.37,0.82-0.82V3.146h0.489l1.562,1.533v2.453h1.64V3.991
		l-2.531-2.485h-1.159V0.675c0-0.45-0.369-0.82-0.82-0.82h-0.205c-0.451,0-0.82,0.37-0.82,0.82v0.831h-2.397V0.675
		c0-0.45-0.369-0.82-0.82-0.82h-0.205c-0.452,0-0.82,0.37-0.82,0.82v0.831h-2.397V0.675c0-0.45-0.37-0.82-0.82-0.82H9.023
		c-0.452,0-0.82,0.37-0.82,0.82v0.831H5.806V0.675c0-0.45-0.37-0.82-0.82-0.82H4.781c-0.452,0-0.82,0.37-0.82,0.82v0.831H0.078
		v24.596h7.245l0.411-1.641H1.719V3.146H3.96v0.851c0,0.45,0.369,0.82,0.82,0.82h0.205c0.451,0,0.82-0.37,0.82-0.82V3.146h2.397
		v0.851c0,0.45,0.369,0.82,0.82,0.82h0.205C9.679,4.817,10.049,4.447,10.049,3.997z"/>
	<path fill="#CE7A28" d="M25.795,12.324L23.17,9.699c-0.639-0.639-1.671-0.65-2.296-0.027c0,0.001-0.001,0.001-0.001,0.002
		l-0.001-0.001l-9.573,9.574l-0.193,0.19l-1.657,6.616l6.61-1.658l0.617-0.628l0,0l9.146-9.147h-0.001
		c0-0.001,0.001-0.001,0.001-0.001C26.446,13.995,26.434,12.962,25.795,12.324z M11.785,20.104l3.613,3.612l-3.393,0.851
		l-1.059-1.115L11.785,20.104z M16.062,21.481l-2.049-2.049l6.859-6.86l2.049,2.049L16.062,21.481z"/>
</g>
</svg>
