<?xml version="1.0" encoding="utf-8"?>
<!-- Generator: Adobe Illustrator 16.0.4, SVG Export Plug-In . SVG Version: 6.00 Build 0)  -->
<!DOCTYPE svg PUBLIC "-//W3C//DTD SVG 1.1//EN" "http://www.w3.org/Graphics/SVG/1.1/DTD/svg11.dtd">
<svg version="1.1" xmlns="http://www.w3.org/2000/svg" xmlns:xlink="http://www.w3.org/1999/xlink" x="0px" y="0px" width="500px"
	 height="500px" viewBox="0 0 500 500" enable-background="new 0 0 500 500" xml:space="preserve">
<g id="Layer_1">
	<path fill-rule="evenodd" clip-rule="evenodd" stroke="#FF0000" stroke-width="5" d="M492,480c0,6.627-5.373,12-12,12H19
		c-6.627,0-12-5.373-12-12V19c0-6.627,5.373-12,12-12h461c6.627,0,12,5.373,12,12V480z"/>
</g>
<g id="Layer_7">
	<g>
		<linearGradient id="SVGID_1_" gradientUnits="userSpaceOnUse" x1="45.8521" y1="339.4453" x2="183.3989" y2="339.4453">
			<stop  offset="0" style="stop-color:#FF1A00"/>
			<stop  offset="0.1446" style="stop-color:#C71400"/>
			<stop  offset="0.317" style="stop-color:#8B0E00"/>
			<stop  offset="0.4833" style="stop-color:#590900"/>
			<stop  offset="0.6389" style="stop-color:#330500"/>
			<stop  offset="0.7814" style="stop-color:#170200"/>
			<stop  offset="0.9063" style="stop-color:#060100"/>
			<stop  offset="1" style="stop-color:#000000"/>
		</linearGradient>
		<polygon fill="url(#SVGID_1_)" points="183.399,228.8 183.399,333.862 45.852,450.092 45.852,344.965 		"/>
		<linearGradient id="SVGID_2_" gradientUnits="userSpaceOnUse" x1="45.8521" y1="213.2002" x2="183.3989" y2="213.2002">
			<stop  offset="0" style="stop-color:#FFFF00"/>
			<stop  offset="0.1446" style="stop-color:#C7C700"/>
			<stop  offset="0.317" style="stop-color:#8B8B00"/>
			<stop  offset="0.4833" style="stop-color:#595900"/>
			<stop  offset="0.6389" style="stop-color:#333300"/>
			<stop  offset="0.7814" style="stop-color:#171700"/>
			<stop  offset="0.9063" style="stop-color:#060600"/>
			<stop  offset="1" style="stop-color:#000000"/>
		</linearGradient>
		<polygon fill="url(#SVGID_2_)" points="183.399,102.554 183.399,207.616 45.852,323.846 45.852,218.719 		"/>
		<linearGradient id="SVGID_3_" gradientUnits="userSpaceOnUse" x1="45.8521" y1="99.4385" x2="183.3989" y2="99.4385">
			<stop  offset="0" style="stop-color:#FF1A00"/>
			<stop  offset="0.1446" style="stop-color:#C71400"/>
			<stop  offset="0.317" style="stop-color:#8B0E00"/>
			<stop  offset="0.4833" style="stop-color:#590900"/>
			<stop  offset="0.6389" style="stop-color:#330500"/>
			<stop  offset="0.7814" style="stop-color:#170200"/>
			<stop  offset="0.9063" style="stop-color:#060100"/>
			<stop  offset="1" style="stop-color:#000000"/>
		</linearGradient>
		<polygon fill="url(#SVGID_3_)" points="144.155,7.997 183.399,74.65 45.852,190.88 45.852,85.752 		"/>
	</g>
</g>
<g id="Layer_6">
	<path opacity="0.4" fill="#DFCE00" enable-background="new    " d="M290.352,269.426c-1.366,0.371-2.733,0.742-4.093,1.124
		c-0.209,14.043,0.335,28.053,0.862,42.102c0.022,0.578-0.151,0.999-0.688,1.226c-1.563,0.655-3.115,1.336-4.691,1.943
		c-1.521,0.587-4.809-0.899-6.402-1.115c-2.42-0.341-4.855-0.527-7.288-0.792c-4.517-0.489-9.304,2.327-13.293,4.358
		c-1.004,0.521,0.012,1.657-1.38,2.178c-3.108,1.165-5.33,3.112-8.114,4.856c-0.234,0.145-0.371,0.444-0.542,0.66
		c1.313,0.717,2.745,1.115,4.108,1.737c0.872,0.396,2.207,3.001,1.991,3.929c-0.03,0.114-0.079,0.212-0.117,0.315
		c-1.759,3.453-5.376,5.845-8.14,8.47c-0.222,0.573-0.395,1.173-0.488,1.784c-1.201,1.688-3.004,3.18-3.163,5.415
		c2.526,0.542-2.347,8.749-3.167,10.63c2.359,0.814,0.369,3.746-0.072,5.454c-0.433,1.662-0.229,5.07-0.112,6.851
		c1.762-2.329,4.39-2.869,6.966-3.873c0.829-0.32,4.094-0.056,5.278-0.117c2.025-0.074,3.872,0.259,5.966-0.018
		c0.994-0.125,1.573,0.142,1.538,0.946c-0.264,6.579-2.127,13.028-4.396,19.176c-0.564,1.525,0.74,1.17,1.036,2.32
		c0.372,1.427-1.253,4.245-1.625,5.594c-0.836,3.004-0.566,7.184-0.998,10.474c-0.039,0.244,0.007,0.635,0.155,0.729
		c0.794,0.102,1.549-0.055,2.258-0.479c1.653-0.191,7.438-0.265,8.594,1.378c1.663,2.35,0.901,7.445,1.034,10.111
		c0.274,0.712,0.533,1.442,0.762,2.168c0.083,2.221-0.021,4.453-0.078,6.671c1.436-0.871,0.7,0.632,1.174,0.854
		c0.107-0.08,0.223-0.152,0.32-0.241c1.172-1.014,3.042-0.751,3.777,0.626c5.298,9.939,10.977,17.074,19.468,24.786
		c0.061-0.049,0.115-0.089,0.177-0.141c-3.305-4.928-1.918-8.581-2.012-13.986c-0.022-1.505,1.475-0.595,2.017,0.075
		c0.555-1.96,0.066-3.799,0.366-5.527c2.018-1.513,0.851-6.081,0.531-8.334c2.152,0.388,3.924,1.105,5.607,2.162
		c0.203-1.375,1.299-3.712,1.294-4.992c-0.031-3.607,0.052-6.782,0.553-10.411c0.509-3.657,0.363-9.809,2.506-12.937
		c0.22-0.331,0.566-0.566,0.856-0.856c2.733,3.186,2.149,8.941,2.646,12.884c0.431,3.473,2.8,7.838,3.884,11.231
		c0.435,1.397,1.748-0.264,2.14,1.146c0.098,0.349,0.227,0.707,0.327,1.055c0.154,0.59,0.363,1.054,1.257,0.496
		c0.225,3.009,0.929,5.928,1.843,8.811c0.243,0.75,1.162,0.287,1.59,0.624c0.913,0.73,1.268,2.719,1.788,3.718
		c1.234,2.377,3.789,4.618,4.903,6.468c0.519,0.857,0.967,1.757,1.449,2.654c0.391-0.847,2.517-9.246,4.542-7.208
		c2.841-2.974,5.804-5.767,9.048-8.276c0.215-0.163,0.808-0.133,1.034,0.049c4.475,3.614,8.269,8.008,12.694,11.597
		c0.146-0.709,0.115-1.54,0.486-2.086c0.877-1.257,1.897-2.44,2.971-3.541c0.322-0.326,1.093-0.541,1.534-0.399
		c2.314,0.722,3.895,2.525,5.63,4.106c0.564-0.904,1.177-1.538,2.029-1.225c1.786,0.645,3.043,1.867,4.48,3.024
		c0.587,0.48,1.589,0.103,2.18,0.637c1.189,1.08,2.172,2.535,3.219,3.737c1.693,1.937,3.266,4.171,5.355,5.674
		c0.087-0.062,0.166-0.132,0.246-0.183c-0.622-3.375-1.676-6.521-2.587-9.829c-0.606-2.248-0.468-5.143-1.166-7.083
		c-0.186-0.515-0.381-1.016-0.548-1.531c-0.483-1.418-0.136-1.898,1.503-1.771c-0.468-3.797-2.647-6.967-3.888-10.483
		c-0.072-0.22,0.065-0.675,0.262-0.8c1.117-0.713,2.3-1.333,3.41-2.054c1.671-1.08,3.066-0.032,4.489-0.649
		c-0.896-1.453-1.832-4.192-3.02-5.271c-1.14-1.037-2.316-2.032-3.482-3.039c-1.183-1.023,0.477-0.963,0.494-1.75
		c0.018-0.803-2.007-2.582-2.494-3.134c-2.19-2.392-4.446-4.372-6.196-7.168c-2.081-3.323,6.259-7.109,8.432-8.538
		c1.599-1.061,2.479-3.935,5.931-2.876c-0.896-1.592-3.142-3.041-4.493-4.277c-0.909-0.834,0.503-0.976-0.121-1.712
		c-1.042-1.268-3.165-1.888-4.567-2.628c-0.841-0.446-0.903-1.321-0.132-1.898c0.151-0.113,0.321-0.207,0.689-0.426
		c-3.161-1.952-6.672-3.042-10.157-4.305c-1.612-0.576-0.201-3.652,0.672-4.285c-0.477-0.1-0.74-0.142-1-0.23
		c-0.796-0.259-0.478-0.783-1.39-0.87c-1.828-0.19-3.514-0.464-5.318-0.822c0.281,0.667,0.272,1.319-0.02,1.973
		c-1.945,1.453-20.592-9.921-18.667-11.934c0.262-0.278,0.682-0.536,1.057-0.54c7.111-0.094,13.877,3.588,20.179,6.065
		c-0.823-2.12-0.626-3.954,0.298-5.711c0.735-0.837,1.691-0.94,2.86-0.301c3.53,1.373,6.839,3.157,10.57,3.936
		c-0.065-1.051-0.651-2.194,1.06-2.072c2.126,0.152,4.349,1.162,6.377,1.789c0.529-0.182,1.134-0.366,1.648-0.209
		c3.429,1.086,6.634,2.746,9.885,4.273c-1.367-2.546-2.365-4.59-3.488-7.271c-0.756-1.798-3.644-3.176-3.687-5.259
		c-0.011-0.393,0.494-0.788,0.804-1.2c-0.914-0.871-2.942-1.256-3.539-2.267c-0.437-0.75-0.804-1.56-1.248-2.302
		c-1.163-1.874,1.169-2.535,2.512-3.364c-1.939-1.333-3.807-2.604-5.526-3.784c-0.02-0.42,0.077-0.772-0.055-0.885
		c-1.723-1.6-9.577-4.182-6.751-6.817c1.755-1.636,3.553-3.222,5.33-4.821c1.521-1.352-4.948-3.103-5.569-3.298
		c0-0.261,0.085-0.678-0.013-0.729c-2.596-1.369-4.978-1.452-7.844-1.871c-1.171-0.174-1.156-0.23-0.89-1.357
		c-1.62-1.213-3.481-1.832-5.46-1.931c-4.356-0.19-8.769,0.09-13.104-0.485c-0.378-0.05-0.875-0.19-0.635-0.767
		c1.628-3.845,3.498-6.618,2.948-11.025c-0.047-0.448-0.415-0.854-0.64-1.282c-0.083,0.033-0.174,0.058-0.257,0.091
		c-0.037-1.185,0.088-2.315,1.268-3.075c-0.587-0.761-1.403-0.694-2.124-0.718c-1.228-0.028-2.438,0.062-3.664,0.069
		c-0.962,0.01-0.819-1.262-1.655-1.153c-1.836,0.222-3.739,0.117-5.419,1.125c-2.174,1.309-0.748-2.35-2.715-1.879
		c-1.593,0.386-4.435,0.947-5.812,1.712c-0.654,0.364-1.258,0.83-1.883,1.263c0.42-1.467,1.102-2.628,2.773-2.699
		c-1.457-1.822-3.648-1.72-5.499-2.347c-1.908-0.664-8.451,2.484-9.758,3.308c-1.94,1.227-3.329,3.03-4.81,4.736
		c-0.733,0.838-1.562,1.558-1.177,3.07c0.385,1.454-1.997,3.645-3.541,3.732c-0.503,0.031-1.062,0.205-1.482,0.482
		c-1.539,0.989-1.749,0.927-1.896-0.878C290.941,294.877,290.32,282.182,290.352,269.426
		C288.994,269.808,290.351,272.147,290.352,269.426z"/>
	<path opacity="0.5" fill="#E1929C" enable-background="new    " d="M193.828,188.088c2.71-0.172,8.649,4.414,8.177,4.156
		c0.43-0.518,0.822-0.979,1.214-1.44c0.359-0.43,0.726-0.693,1.153-0.066c0.096,0.133,0.24,0.244,0.441,0.427
		c5.202-11.451,15.882-19.319,20.449-31.318c2.382-6.268,3.99-13.473,3.991-20.198c0.002-3.547-1.222-6.126-2.356-9.378
		c-0.42-1.188-2.02-5.429-0.301-6.408c0.744-0.427,2.714,0.208,2.66,1.19c-0.238,4.912,1.168,9.436,0.987,14.354
		c-0.221,6.191-1.663,12.897-3.627,18.762c-2.037,6.09-5.307,11.304-9.033,16.476c-3.237,4.49-9.277,10.29-10.666,15.746
		c-0.297,1.149-0.157,1.327,0.926,1.668c0.598,0.188,1.145,0.546,1.721,0.801c3.628,1.584,7.167-2.647,10.308-3.841
		c1.294-0.488,3.81-2.502,4.973-2.693c2.09-0.338,4.949,0.503,6.951,1.052c4.604,1.258,8.795,3.786,13.104,5.708
		c2.396,1.069,4.734,2.358,7.214,3.225c2.026,0.705,4.592,0.813,6.335,2.103c-6.519,1.609-16.252,1.78-20.749,7.119
		c1.045,2.093,4.333,2.516,6.144,3.859c2.937,2.168,5.168,4.162,8.489,5.77c-2.324,1.98-5.017,3.681-5.802,6.837
		c-0.897,3.598,2.021,4.956,2.127,7.877c0.034,0.866-1.351,1.985-1.739,2.604c-1.034,1.624-1.506,3.535-1.557,5.445
		c-0.058,1.819,1.642,3.542,2.754,4.782c-2.062-0.021-3.876-1.148-5.998-1.282c-3.123-0.194-5.67-0.123-8.78-0.719
		c-2.2-0.426-4.796-0.409-6.67,0.999c-1.479,1.106-1.606,3.642-2.785,4.513c-1.24-4.008-2.942-6.467-5.473-9.746
		c-1.729-2.25-3.979-6.976-7.17-7.33c0.07,1.107,1.021,1.125,0.099,2.285c-2.984,3.775-2.71,9.685-2.086,14.394
		c0.542,4.099-0.129,14.886,6.321,15.264c-2.345,0.649-5.239-2.261-7.81-2.442c-0.748-0.052-3.162,5.807-3.486,6.579
		c-1.155,2.682-0.472,4.982,0.019,7.683c-1.541-1.032-2.847-2.313-4.833-1.718c-5.456,1.62-7.672,6.917-9.722,11.564
		c-0.678-3.46-0.459-6.521-2.929-9.403c-1.309-1.531-2.172-3.218-4.109-4.055c-0.851-0.37-3.294,0.395-3.599,0.183
		c-0.606-0.419,0.041-3.313-0.028-3.964c-0.268-2.487-1.042-4.947-2.572-6.947c-0.549-0.722-1.578-1.063-2.242-1.723
		c-1.094-1.113-2.197-0.811-3.389-0.281c-1.722,0.755-3.088,1.938-4.27,3.38c-0.061-0.048-0.126-0.081-0.189-0.129
		c2.605-4.429,4.121-8.45,4.959-13.526c0.862-5.208,2.76-10.315,2.838-15.584c-3.234,0.474-6.527,1.004-9.182,3.087
		c-2.345,1.844-2.603,6.682-3.819,9.351c-1.612,3.516-2.9,7.19-4.622,10.649c-0.127-0.742-0.16-1.32-0.343-1.846
		c-0.483-1.393-1.655-1.858-2.988-1.942c-3.1-0.209-6.062,0.797-9.005,1.661c-2.648,0.777-3.459,3.264-5.437,4.055
		c-0.548-2.067-0.089-3.894,0.756-5.87c0.542-1.268-0.024-3.454,0.766-4.348c1.83-2.072,4.598-4.193,5.795-6.71
		c1.437-3.031,1.519-6.692,3.053-9.668c1.702-3.306,2.154-6.272,3.969-9.33c1.568-2.656,3.082-5.212,4.842-7.766
		c1.839-2.666,1.379-3.476-1.411-4.529c0.389,0.863,0.254,1.108-0.586,1.032c-1.985-0.188-3.506-0.111-5.451,0.272
		c0.042-0.185,0.031-0.32,0.095-0.389c1.489-1.497,2.955-3.011,4.412-4.54c0.909-0.947,3.669-3.673,4.969-3.981
		c-0.881-0.126-0.764-0.468-0.411-0.903c0.982-1.198,1.061-1.343,2.547-1.46c-0.071-0.245-0.137-0.492-0.215-0.761
		c1.026-1.183,2.052-2.161,3.268-3.144c0.023,0.595,0.037,1.109,0.065,1.775c-0.277-0.23-0.435-0.366-0.691-0.568
		c-0.384,0.372-0.785,0.751-1.285,1.229c0.647-0.143,1.051-0.249,1.459-0.312c0.38,0.346,0.238,0.596-0.412,0.75
		c0.025,0.176,0.062,0.42,0.104,0.756c0.457-0.375,0.845-0.706,1.392-1.158c-0.028-0.397-0.059-0.987-0.1-1.611
		c0.255-0.034,0.545-0.068,0.822-0.103c0.036-0.365-0.111-0.667-0.449-0.913c-0.009-0.015,0.251-0.246,0.304-0.213
		c0.594,0.146,1.008,0.482,1.25,0.981c0.23-0.273,0.409-0.482,0.576-0.674c0.469,0.187,0.903,0.348,1.396,0.539
		c0.279-1.064,0.957-0.765,1.707-1.388c0.604,0.462,1.685,0.568,2.302,0.126c0.194-0.145,0.251-0.479,0.36-0.73
		c-0.442-0.041-1.344,0.187-1.307-0.261C172.909,189.379,190.546,187.101,193.828,188.088z M205.321,251.474
		c0.095,0.016,0.197,0.024,0.292,0.041c0.315-1.746,0.624-3.489,0.935-5.245c-0.128-0.016-0.259-0.038-0.378-0.06
		C205.879,247.962,205.6,249.719,205.321,251.474C205.416,251.489,205.6,249.719,205.321,251.474z"/>
	<linearGradient id="SVGID_4_" gradientUnits="userSpaceOnUse" x1="338.918" y1="255.9121" x2="304.1902" y2="385.5178">
		<stop  offset="0" style="stop-color:#FF1A00"/>
		<stop  offset="0.0074" style="stop-color:#F61900"/>
		<stop  offset="0.0477" style="stop-color:#C81400"/>
		<stop  offset="0.0931" style="stop-color:#9D1000"/>
		<stop  offset="0.1419" style="stop-color:#770C00"/>
		<stop  offset="0.195" style="stop-color:#570900"/>
		<stop  offset="0.2537" style="stop-color:#3B0600"/>
		<stop  offset="0.32" style="stop-color:#250400"/>
		<stop  offset="0.3974" style="stop-color:#140200"/>
		<stop  offset="0.4931" style="stop-color:#090100"/>
		<stop  offset="0.6274" style="stop-color:#020000"/>
		<stop  offset="1" style="stop-color:#000000"/>
	</linearGradient>
	<path fill-rule="evenodd" clip-rule="evenodd" fill="url(#SVGID_4_)" d="M208.165,384.239c-0.711-1.746-0.711-2.42-0.711-3.492
		c-4.048-5.982-0.586-13.32-2.506-22.248c-15.561-72.358,36.3-78.193,65.947-107.762c17.583-0.145,39.665-2.746,54.682,1.609
		c33.28,9.641,49.073,44.643,62.737,73.991c0,0,8.096,0.209,48.766,5.436c0,0-19.908,1.24-60.494,25.733
		c0,0-0.512-1.158-10.592,4.399s-13.7,8.892-27.74,8.35S297,367.75,289.25,364.25s-13-5.75-16.75-5s-40.492,17.741-47.992,20.523
		S208.165,384.239,208.165,384.239z"/>
	<g>
		<linearGradient id="SVGID_5_" gradientUnits="userSpaceOnUse" x1="237.564" y1="66.9189" x2="196.3996" y2="220.5464">
			<stop  offset="0" style="stop-color:#FF1A00"/>
			<stop  offset="0.0074" style="stop-color:#F61900"/>
			<stop  offset="0.0477" style="stop-color:#C81400"/>
			<stop  offset="0.0931" style="stop-color:#9D1000"/>
			<stop  offset="0.1419" style="stop-color:#770C00"/>
			<stop  offset="0.195" style="stop-color:#570900"/>
			<stop  offset="0.2537" style="stop-color:#3B0600"/>
			<stop  offset="0.32" style="stop-color:#250400"/>
			<stop  offset="0.3974" style="stop-color:#140200"/>
			<stop  offset="0.4931" style="stop-color:#090100"/>
			<stop  offset="0.6274" style="stop-color:#020000"/>
			<stop  offset="1" style="stop-color:#000000"/>
		</linearGradient>
		<path fill-rule="evenodd" clip-rule="evenodd" fill="url(#SVGID_5_)" d="M107.743,194.327
			c8.635-20.074-0.052-62.428,12.103-80.863c6.49-9.844,15.759-20.52,25.695-28.258c4.979-3.888,9.107-6.204,13.835-8.815
			c14.33-5.414,45.815-16.906,57.004-15.025c9.12,1.524,18.109,8.464,26.751,11.093c45.482,13.869,68.735,118.395,67.954,118.724
			c0,0-50.21,9.567-89.466,11.595c0,0-15.119,1.598-41.994-1.152s-17.5-1-36.25-1s-36.25-4-36.25-4l0.63-1.938"/>
	</g>
</g>
<g id="Layer_5">
	<g>
		<path fill-rule="evenodd" clip-rule="evenodd" fill="#FF0000" d="M374.839,357.508c-6.819,2.068-14.282,8.934-22.228,11.127
			c-16.054,4.43-51.141-1.18-64.193-4.688c-3.129-0.844-10.22-5.414-15.488-4.094c-21.676,5.426-47,23.178-63.764,23.395
			c26.66-0.779,44.271-17.094,65.947-22.52c5.27-1.322,9.739,2.375,12.867,3.219c13.054,3.508,49.888,10.865,65.941,6.434
			C361.867,368.189,368.02,359.576,374.839,357.508z"/>
		<path fill-rule="evenodd" clip-rule="evenodd" fill="#FF0000" d="M438.1,332.501c2.445,0.245,7.995,4.225,9.118,8.926
			c1.122,4.701,0.993,11.401,0,14.478c-0.993,3.075-2.959,6.401-9.654,9.646c-17.304,10.642-46.12-12.539-60.978-8.044
			C391.815,347.71,425.504,332.623,438.1,332.501z"/>
		<path fill-rule="evenodd" clip-rule="evenodd" fill="#FF0000" d="M389.607,325.365c16.447,0.126,33.689,3.117,47.473,6.408
			C422.852,328.376,389.077,325.361,389.607,325.365z"/>
		<path fill-rule="evenodd" clip-rule="evenodd" fill="#FF0000" d="M389.315,325.347c-13.665-29.349-30.031-63.603-63.312-73.243
			c-15.018-4.355-34.873-0.274-52.456-0.131c-29.648,29.569-81.381,33.363-65.82,105.721c2.142,9.963-0.561,19.893,1.438,25.555
			c-0.711-1.746-0.711-2.42-0.711-3.492c-4.048-5.982-0.586-13.32-2.506-22.248c-15.561-72.358,36.3-78.193,65.947-107.762
			c17.583-0.145,39.665-2.746,54.682,1.609C359.858,260.996,375.651,295.998,389.315,325.347z"/>
	</g>
	<path fill-rule="evenodd" clip-rule="evenodd" fill="#FF0000" d="M388.314,326.338c0,0-23.064-7.838-111.064,32.412
		c0,0,61.793-24.188,84-28.75C381.757,325.788,388.314,326.338,388.314,326.338z"/>
</g>
<g id="Layer_4">
	<g>
		<path fill-rule="evenodd" clip-rule="evenodd" fill="#FF0000" d="M156.998,200c13.593-0.824,32.136,4.645,61,3
			c41.213-2.35,93.087-11.817,93.087-11.817c-21.867,9.236-61.196,19.894-101.964,25.214c-11.78,1.538-23.172,3.26-34.123,3.603
			c-32.073,0.991-43.34-7.99-68.024-23.484C106.974,196.516,123.998,202,156.998,200z"/>
		<path fill-rule="evenodd" clip-rule="evenodd" fill="#FF0000" d="M311.085,191.183c-0.106-1.07-22.452-104.727-67.935-118.596
			c-8.642-2.629-17.632-9.569-26.751-11.093c-11.188-1.88-42.674,9.611-57.004,15.025c-4.728,2.611-8.855,4.927-13.835,8.815
			c-9.936,7.738-19.205,18.414-25.695,28.258c-12.155,18.436-3.467,60.789-12.103,80.863c0,0-0.374,0.939,4.235-0.955
			c7.87-14.495,0.845-64.064,13-82.5c6.49-9.844,15.217-17.895,25.153-25.633c4.979-3.888,9.248-6.237,15.244-8.848
			c14.219-6.206,43.415-15.065,54.603-13.185c9.12,1.524,15.024,7.704,23.667,10.333
			C289.146,87.536,311.866,190.853,311.085,191.183z"/>
	</g>
	<g>
		<g>
			<path fill-rule="evenodd" clip-rule="evenodd" fill="#FF0000" d="M246.164,173.393c-3.46-1.984-7.721-2.696-13.395-1.903
				c-0.155,0.126-0.488,0.054-0.717,0.136c-0.793,0.194-1.585,0.387-2.377,0.581c-1.486,0.569-3.054,0.923-4.351,1.652
				c-0.455,0.256-0.869,0.598-1.263,0.887c-0.021,0.087-0.004,0.048-0.037,0.102c0.045,0.243,0.436,0.575,0.588,0.418
				c0.429-0.107,1.186-1.071,1.645-1.373c0.941-0.619,2.224-0.948,3.355-1.385c0.612-0.236,1.203-0.192,1.859-0.42
				c0.886-0.31,2.44-0.492,3.375-0.409c0.916,0.082,1.706-0.092,2.549,0.034c2.013,0.302,3.869,0.738,5.514,1.486
				c1.296,0.59,2.541,1.214,3.286,2.49c0.884,1.514,0.661,3.267,0,4.454c-1.157,2.076-3.924,4.005-7.146,4.437
				c-1.671,0.224-3.155,0.305-4.484,0.151c-0.466-0.054-1.093,0.123-1.476-0.066c-0.018-0.015-0.036-0.029-0.054-0.042
				c0.646-0.265,1.049-0.923,1.5-1.355c1.342-1.286,2.926-4.408,1.686-7.104c-0.261-0.568-0.623-1.124-1.019-1.542
				c-0.217-0.228-0.553-0.344-0.799-0.539c-0.096,0.011-0.192,0.023-0.289,0.035c1.739,2.054,1.554,6.249,0.418,8.318
				c-0.271,0.492-0.724,1.127-1.139,1.508c-0.219,0.201-0.558,0.328-0.713,0.576c-0.268,0.001-0.45-0.043-0.699-0.112
				c-0.881-0.243-3.638-0.679-3.883,0.666c-0.053,0.103-0.017,0.321,0.009,0.488c0.131,0.099,0.238,0.271,0.385,0.345
				c0.694,0.345,2.137,0.078,2.906-0.254c0.262-0.113,0.983-0.6,1.25-0.592c0.549,0.018,1.269,0.147,1.836,0.219
				c0.77,0.021,1.539,0.042,2.309,0.063c0.484-0.042,0.968-0.085,1.453-0.127c0.864,0.08,2.692-0.341,3.4-0.607
				c0.611-0.229,1.14-0.291,1.696-0.548c2.83-1.31,5.13-3.316,5.467-6.583C248.999,175.647,247.079,173.917,246.164,173.393z
				 M230.278,185.689c-0.221,0.084-0.621,0.064-0.777,0.045c-0.778-0.094-0.693-0.332-0.401-0.881
				c0.139-0.066,0.278-0.132,0.417-0.197c0.724-0.082,1.921-0.065,2.373,0.202c0.088,0.021,0.048,0.004,0.103,0.037
				C231.497,185.212,230.88,185.459,230.278,185.689z"/>
		</g>
	</g>
</g>
<g id="Leafs">
	<path opacity="0.4" fill-rule="evenodd" clip-rule="evenodd" fill="#504A56" enable-background="new    " d="M300.436,80.967
		c0.158-2.132-11.791-11.467-13.299-11.527c0.471,1.583,1.223,3,2.254,4.25c-22.635-23.6-61.808-44.193-96.42-36.073
		c-11.578,2.717-54.418,28.118-63.049,19.66c-8.321-8.167-30.547-18.884-41.907-21.578c-14.511-3.437-23.992-10.881-38.21-2.052
		c3.417,4.232,20.894,4.686,27.106,6.759c5.381,1.794,10.773,7.344,14.882,8.617c2.878,9.14,0.945,36.198-6.216,43.48
		c-8.383,12.566-22.724,21.495-30.384,33.733c0.539,5.443-12.292,13.447-15.208,17.67c-6.638,9.611-9.654,19.069-12.115,30.272
		c-2.297,10.461-5.472,17.505-5.306,28.681c0.039,2.52,2.793,30.636,4.442,28.192c-8.591,12.727,12.763,37.933,20.884,45.748
		c8.275,7.965,50.81,49.811,56.601,39.934c7.928-13.535,13.384-26.615,23.396-39.07c9.049-11.258,19.992-20.463,25.901-34.587
		c14.412-34.455,10.649-73.734-12.281-103.581c-8.048-10.479-14.421-18.854-25.442-26.351c-10.297-7-21.127-13.58-23.587-26.522
		c-1.585-8.347,0.371-41.864,7.117-42.489c-0.377-0.358-0.419-0.769-0.123-1.229c6.556,9.89,27.305,14.068,36.167,24.078
		c4.821,5.448-2.435,41.434,4.75,53.756c-0.205-0.35,8.057,16.075,13.517,20.649c9.276,7.772,23.869,15.37,35.247,19.711
		c9.247,3.529,54.31,7.776,57.659-0.688c-0.332,0.864,27.828-2.92,27.988-6.636c0.316-7.449,26.248-2.066,26.262-11.144
		c-0.537-0.183-1.012-0.477-1.424-0.876c8.275-5.639,27.25,7.612,33.145,0.778c-2.326-1.751-25.934-44.663-26.061-44.329
		c0.58-0.235,1.131-0.175,1.654,0.182c0.77-3.096-2.604-0.052-2.312-0.253c-0.055-3.13-3.371-1.852-0.998-4.835
		c0.469,0.622,1.07,1.062,1.803,1.317C307.561,94.115,301.305,82.175,300.436,80.967C300.594,78.835,300.484,81.033,300.436,80.967z
		 M28.62,243.109C29.223,244.359,28.674,243.222,28.62,243.109C28.701,243.28,28.62,243.109,28.62,243.109z M97.982,319.08
		c-0.003,0.072,0.01,0.139,0.026,0.207C97.991,319.221,97.979,319.152,97.982,319.08z M300.195,82.92
		C299.285,83.511,301.326,82.185,300.195,82.92C300.039,83.023,300.439,82.76,300.195,82.92z"/>
</g>
</svg>
