<?xml version="1.0" encoding="utf-8"?>
<!-- Generator: Adobe Illustrator 16.0.4, SVG Export Plug-In . SVG Version: 6.00 Build 0)  -->
<!DOCTYPE svg PUBLIC "-//W3C//DTD SVG 1.1//EN" "http://www.w3.org/Graphics/SVG/1.1/DTD/svg11.dtd">
<svg version="1.1" xmlns="http://www.w3.org/2000/svg" xmlns:xlink="http://www.w3.org/1999/xlink" x="0px" y="0px" width="500px"
	 height="500px" viewBox="0 0 500 500" enable-background="new 0 0 500 500" xml:space="preserve">
<g id="Layer_1">
	<path fill-rule="evenodd" clip-rule="evenodd" stroke="#FF0000" stroke-width="5" stroke-miterlimit="1" d="M492,480
		c0,6.627-5.373,12-12,12H19c-6.627,0-12-5.373-12-12V19c0-6.627,5.373-12,12-12h461c6.627,0,12,5.373,12,12V480z"/>
</g>
<g id="Layer_4">
	<g>
		<linearGradient id="SVGID_1_" gradientUnits="userSpaceOnUse" x1="78.3462" y1="353.4492" x2="215.8916" y2="353.4492">
			<stop  offset="0" style="stop-color:#FF1A00"/>
			<stop  offset="0.1446" style="stop-color:#C71400"/>
			<stop  offset="0.317" style="stop-color:#8B0E00"/>
			<stop  offset="0.4833" style="stop-color:#590900"/>
			<stop  offset="0.6389" style="stop-color:#330500"/>
			<stop  offset="0.7814" style="stop-color:#170200"/>
			<stop  offset="0.9063" style="stop-color:#060100"/>
			<stop  offset="1" style="stop-color:#000000"/>
		</linearGradient>
		<polygon fill="url(#SVGID_1_)" points="215.892,242.803 215.892,347.865 78.346,464.095 78.346,358.968 		"/>
		<linearGradient id="SVGID_2_" gradientUnits="userSpaceOnUse" x1="78.3462" y1="227.2031" x2="215.8916" y2="227.2031">
			<stop  offset="0" style="stop-color:#FFFF00"/>
			<stop  offset="0.1446" style="stop-color:#C7C700"/>
			<stop  offset="0.317" style="stop-color:#8B8B00"/>
			<stop  offset="0.4833" style="stop-color:#595900"/>
			<stop  offset="0.6389" style="stop-color:#333300"/>
			<stop  offset="0.7814" style="stop-color:#171700"/>
			<stop  offset="0.9063" style="stop-color:#060600"/>
			<stop  offset="1" style="stop-color:#000000"/>
		</linearGradient>
		<polygon fill="url(#SVGID_2_)" points="215.892,116.557 215.892,221.619 78.346,337.849 78.346,232.722 		"/>
		<linearGradient id="SVGID_3_" gradientUnits="userSpaceOnUse" x1="78.3462" y1="113.4414" x2="215.8916" y2="113.4414">
			<stop  offset="0" style="stop-color:#FF1A00"/>
			<stop  offset="0.1446" style="stop-color:#C71400"/>
			<stop  offset="0.317" style="stop-color:#8B0E00"/>
			<stop  offset="0.4833" style="stop-color:#590900"/>
			<stop  offset="0.6389" style="stop-color:#330500"/>
			<stop  offset="0.7814" style="stop-color:#170200"/>
			<stop  offset="0.9063" style="stop-color:#060100"/>
			<stop  offset="1" style="stop-color:#000000"/>
		</linearGradient>
		<polygon fill="url(#SVGID_3_)" points="176.647,22 215.892,88.653 78.346,204.883 78.346,99.755 		"/>
	</g>
</g>
<g id="Layer_6_copy">
	<linearGradient id="SVGID_4_" gradientUnits="userSpaceOnUse" x1="228.8857" y1="134.4629" x2="261.831" y2="284.7526">
		<stop  offset="0" style="stop-color:#FF1A00"/>
		<stop  offset="0.1052" style="stop-color:#CE1500"/>
		<stop  offset="0.2361" style="stop-color:#980F00"/>
		<stop  offset="0.3685" style="stop-color:#690B00"/>
		<stop  offset="0.4996" style="stop-color:#430700"/>
		<stop  offset="0.6292" style="stop-color:#260400"/>
		<stop  offset="0.7568" style="stop-color:#110200"/>
		<stop  offset="0.8814" style="stop-color:#040000"/>
		<stop  offset="1" style="stop-color:#000000"/>
	</linearGradient>
	<path fill="url(#SVGID_4_)" d="M235.891,123.684c-15.046-0.896-45.496,16.375-51.257,19.034
		c-5.761,2.659-22.157,10.192-32.349,23.487c-10.192,13.295-15.953,50.076-19.941,69.575c-3.987,19.498-4.431,29.246-4.431,29.246
		s-10.635,5.317-7.534,11.078c3.102,5.762,7.091,9.307,7.091,9.307s-3.103,10.193,2.215,14.181
		c5.318,3.988,11.522,11.523,18.169,18.169c6.648,6.646,17.726,12.407,17.726,12.407s1.33,5.317,4.431,4.875
		c3.102-0.442,5.318,0,5.318,0s6.646,5.318,9.305,7.977c2.659,2.659,11.965,0.887,11.965,0.887s-7.534,4.874-6.204,7.976
		c1.33,3.103,11.079,15.953,11.079,15.953l0.623,16.716c0,0,88.892,9.43,118.583-7.409c29.69-16.839,31.462-21.271,26.589-33.68
		c-0.886-6.203-1.772-15.065-1.772-15.065s6.202-1.328,18.611-10.636c12.408-9.306,15.951-13.738,16.396-16.84
		s2.659-8.862,2.659-8.862s3.988-2.217,4.875-9.307s0.887-23.486,0.887-23.486s6.646-0.885,5.316-7.977
		c-1.329-7.09-8.419-11.521-15.952-29.691c-7.533-18.167-27.476-57.607-37.224-65.141c-9.75-7.533-40.328-21.714-40.328-21.714
		S273.113,125.899,235.891,123.684z"/>
	<path fill="#FF0000" d="M202.097,384.549l1.383-20.769c0,0-9.397-12.388-10.679-15.378s5.98-7.688,5.98-7.688
		s-8.971,1.709-11.534-0.854c-2.563-2.562-8.97-7.689-8.97-7.689s-2.137-0.426-5.127,0c-2.989,0.427-4.271-4.699-4.271-4.699
		s-10.679-5.553-17.087-11.96c-6.408-6.405-12.388-13.669-17.514-17.514c-5.126-3.844-2.135-13.669-2.135-13.669
		s-3.846-3.417-6.835-8.972c-2.99-5.553,7.262-10.679,7.262-10.679s0.428-9.396,4.271-28.191
		c3.844-18.795,9.398-54.25,19.222-67.066c9.825-12.815,25.63-20.077,31.183-22.64c5.553-2.563,34.905-19.21,49.409-18.347
		c35.88,2.135,62.508,10.658,62.508,10.658s29.476,13.67,38.874,20.931c9.396,7.263,28.62,45.28,35.881,62.792
		c7.262,17.516,14.097,21.787,15.378,28.621c1.28,6.837-5.125,7.689-5.125,7.689s0,15.806-0.855,22.64
		c-0.854,6.834-4.699,8.971-4.699,8.971s-2.135,5.554-2.562,8.543c-0.429,2.99-3.844,7.263-15.805,16.232
		c-11.962,8.973-17.94,10.253-17.94,10.253s0.854,8.543,1.709,14.522c4.697,11.961,2.989,16.233-25.631,32.465
		c-28.621,16.231-115.922,12.104-115.922,12.104s88.523,9.123,118.214-7.716c29.69-16.839,31.462-21.271,26.589-33.68
		c-0.886-6.203-1.772-15.065-1.772-15.065s6.202-1.328,18.611-10.636c12.408-9.306,15.951-13.738,16.396-16.84
		s2.659-8.862,2.659-8.862s3.988-2.217,4.875-9.307s0.887-23.486,0.887-23.486s6.646-0.885,5.316-7.977
		c-1.329-7.09-8.419-11.521-15.952-29.691c-7.533-18.167-27.476-57.607-37.224-65.141c-9.75-7.533-40.328-21.714-40.328-21.714
		s-27.623-8.842-64.845-11.057c-15.046-0.896-45.496,16.375-51.257,19.034c-5.761,2.659-22.157,10.192-32.349,23.487
		c-10.192,13.295-15.953,50.076-19.941,69.575c-3.987,19.498-4.431,29.246-4.431,29.246s-10.635,5.317-7.534,11.078
		c3.102,5.762,7.091,9.307,7.091,9.307s-3.103,10.193,2.215,14.181c5.318,3.988,11.522,11.523,18.169,18.169
		c6.648,6.646,17.726,12.407,17.726,12.407s1.33,5.317,4.431,4.875c3.102-0.442,5.318,0,5.318,0s6.646,5.318,9.305,7.977
		c2.659,2.659,11.965,0.887,11.965,0.887s-7.534,4.874-6.204,7.976c1.33,3.103,11.079,15.953,11.079,15.953L202.097,384.549z"/>
	<path fill="none" stroke="#FF0000" stroke-width="3" d="M186.851,259.264c0,0-3.989,10.191-6.647,12.852
		c-2.658,2.658-5.318,4.874-5.318,4.874l2.216,7.978c0,0,7.534,3.985,11.079,12.406
		C189.066,287.182,189.066,270.343,186.851,259.264z"/>
	<path fill="none" stroke="#FF0000" stroke-width="3" d="M326.884,255.276c0,0,0.885,18.168,2.658,23.486
		c1.772,5.318,4.432,13.294,4.432,13.294s1.328-7.534,5.317-9.748c-3.545-3.546-3.546-7.535-3.102-14.183
		c0.444-6.646,0.444-6.646,0.444-6.646S329.986,263.253,326.884,255.276z"/>
	<path fill="none" stroke="#FF0000" stroke-width="7" d="M218.756,296.044c0,0,42.1-7.531,47.417-7.09
		c5.317,0.442,43.871,1.773,43.871,1.773s2.66,11.965,5.317,16.839c2.659,4.875,19.499,25.701,13.737,34.12
		c-5.761,8.421,1.773,19.054-10.636,24.372c-12.407,5.318-20.385,7.09-51.847,4.874c-31.463-2.215-55.393-4.874-55.393-4.874
		s-7.091-9.749-5.318-20.384C207.678,335.04,222.302,307.126,218.756,296.044z"/>
	<path fill="#FF0000" d="M200.587,310.226c0,0-13.294,3.988-14.18,16.396s0.886,14.179,0.886,14.179l15.954,8.421
		c0,0-2.215-5.318,1.772-18.169c3.988-12.852,8.419-11.965,8.419-11.965S206.348,310.226,200.587,310.226z"/>
	<path fill="#FF0000" d="M331.758,299.146c0,0,11.965-2.658,15.067,8.421c3.102,11.079,1.772,17.725-3.103,19.497
		c9.307-3.987,14.181-7.091,15.51-13.294s0.886-13.735-4.433-18.167C349.483,291.17,343.28,288.069,331.758,299.146z"/>
	<path fill="#FF0000" d="M270.162,371.822c-3.362-0.301-68.688-3.989-68.688-3.989l0.713,16.891c0,0,89.794,16.605,119.614,0
		c32.561-18.132,31.184-25.188,25.467-41.264c-7.092,12.409-30.577,24.816-30.577,24.816S304.727,374.926,270.162,371.822z"/>
	<path d="M267.612,46.364c-3.096-2.417-7.996,2.055-12.557,1.982c-14.622-0.232-37.008,38.525-37.008,42.956
		c0,4.432-2.832,28.761,4.83,40.8c13.623,8.231,26.623,22.987,26.623,22.987S262,140,272.184,132.825
		c3.493-4.586,9.506-15.441,10.29-16.469c6.573-8.617,10.194-16.615,8.871-27.85C290.852,84.308,291.592,65.093,267.612,46.364z"/>
	<g>
		<g>
			<path fill="#FF0000" d="M293.207,98.865c0.318-5.881-2.04-25.714-7.899-35.287c-2.715-4.437-2.722-5.074-6.461-8.623
				c-8.994-8.539-12.557-11.455-20.267-9.252c-7.774,2.222-26.553-1.045-37.346,7.05c-10.794,8.096-22.396,25.634-19.698,46.142
				c2.698,20.507,8.119,26.853,6.206,31.571l0.258,1.942c0,0,1.908,0.159,3.338,2.066s18.44,24.958,28.614,26.071
				c10.174,1.112,7.789-0.477,16.853-1.272c9.061-0.795,25.751-21.778,26.387-26.548c-2.224-5.245-2.224-10.969-0.476-13.83
				C284.464,116.034,292.889,104.747,293.207,98.865z M281.125,118.736c-1.59,4.45-4.45,7.948-9.061,13.513
				c-4.611,5.564-20.586,17.347-22.564,22.84c-2.417-4.615-2.077-2.651-3.984-4.877c-1.907-2.226-18.917-16.057-20.983-24.64
				c-2.067-8.584-1.59-23.846,4.133-34.02c5.723-10.173,23.687-26.547,27.025-32.747s4.133-13.354,8.902-12.4
				s15.693,9.923,20.188,18.123c5.741,10.473,8.321,26.708,5.301,36.247C287.06,110.313,282.715,114.286,281.125,118.736z"/>
		</g>
	</g>
	<path fill="#FF0000" d="M258.826,151.151c-1.331,0-1.774,2.217-1.331,13.738c0.444,11.521,0.889,35.895,2.218,45.644
		c1.329,9.749,0.887,28.805,0.887,28.805l3.544-0.444c0,0-0.886-23.929-1.771-32.349c-0.888-8.42-2.66-36.338-2.66-41.656
		C259.713,159.572,258.826,151.151,258.826,151.151z"/>
	<path fill="#FF0000" d="M236.023,149.138c1.828,0,1.329,7.09,0.886,15.51s-1.772,40.326-2.658,47.416s-0.886,24.816-0.886,24.816
		l-3.545-1.331c0,0,1.772-34.564,2.659-42.54l0.887-29.248C233.365,163.761,233.365,149.138,236.023,149.138z"/>
	<g id="Leafs">
		<path opacity="0.4" fill="#504A56" enable-background="new    " d="M201.059,447.42c0.04,2.138,12.8,10.33,14.307,10.25
			c-0.615-1.532-1.495-2.874-2.637-4.023c24.717,21.409,65.625,38.297,99.337,27.016c11.278-3.773,51.59-33.021,60.966-25.396
			c9.039,7.363,32.159,15.982,43.72,17.616c14.767,2.082,24.895,8.619,38.236-1.484c-3.793-3.898-21.237-2.737-27.614-4.228
			c-5.523-1.29-11.405-6.318-15.614-7.206c-3.709-8.836-4.283-35.957,2.175-43.868c7.188-13.286,20.643-23.502,27.14-36.395
			c-1.039-5.37,10.998-14.524,13.512-19c5.722-10.182,7.853-19.878,9.269-31.261c1.32-10.628,3.832-17.935,2.635-29.048
			c-0.271-2.506-5.609-30.246-7.025-27.662c7.379-13.465-16.212-36.593-25.02-43.624c-8.975-7.167-55.192-44.906-60.046-34.537
			c-6.645,14.209-10.869,27.737-19.689,41.063c-7.971,12.045-18.017,22.221-22.597,36.83
			c-11.169,35.639-3.796,74.402,21.793,102.006c8.981,9.69,16.101,17.441,27.766,23.889c10.899,6.02,22.291,11.571,25.936,24.23
			c2.349,8.166,3.496,41.72-3.164,42.965c0.409,0.322,0.489,0.728,0.236,1.213c-7.441-9.242-28.487-11.487-38.235-20.636
			c-5.304-4.98-1.401-41.482-9.693-53.088c0.236,0.329-9.506-15.263-15.365-19.313c-9.955-6.882-25.187-13.1-36.917-16.372
			c-9.533-2.66-54.796-2.728-57.349,6.008c0.251-0.89-27.44,5.478-27.256,9.193c0.373,7.446-25.945,4.48-25.122,13.521
			c0.552,0.132,1.052,0.381,1.499,0.74c-7.719,6.378-27.835-5.063-33.075,2.286c2.478,1.528,29.947,42.077,30.043,41.732
			c-0.556,0.288-1.11,0.279-1.664-0.028c-0.48,3.154,2.598-0.188,2.326,0.039c0.343,3.111,3.527,1.532,1.439,4.722
			c-0.524-0.576-1.163-0.959-1.917-1.145C192.751,434.986,200.083,446.298,201.059,447.42
			C201.099,449.558,201.004,447.358,201.059,447.42z M456.743,260.873C456.027,259.684,456.679,260.766,456.743,260.873
			C456.646,260.711,456.743,260.873,456.743,260.873z M380.663,191.631c-0.004-0.072-0.023-0.137-0.045-0.204
			C380.641,191.492,380.659,191.559,380.663,191.631z M201.118,445.453C201.97,444.781,200.06,446.29,201.118,445.453
			C201.264,445.336,200.89,445.636,201.118,445.453z"/>
	</g>
	<path opacity="0.4" fill="#DFCE00" enable-background="new    " d="M239.255,80.568c-0.315,0.688-0.631,1.376-0.94,2.066
		c5.695,4.896,11.635,9.47,17.584,14.065c0.246,0.189,0.359,0.404,0.269,0.702c-0.267,0.867-0.519,1.737-0.81,2.592
		c-0.279,0.826-2.016,1.667-2.65,2.247c-0.969,0.877-1.879,1.813-2.821,2.722c-1.748,1.687-2.231,4.618-2.763,6.951
		c-0.13,0.591,0.685,0.562,0.422,1.313c-0.586,1.675-0.547,3.254-0.785,4.995c-0.021,0.146,0.055,0.305,0.085,0.448
		c0.745-0.293,1.398-0.745,2.121-1.091c0.461-0.223,1.988,0.121,2.295,0.527c0.036,0.052,0.06,0.105,0.089,0.156
		c0.816,1.905,0.56,4.209,0.69,6.244c0.159,0.288,0.347,0.564,0.565,0.812c0.282,1.071,0.277,2.323,1.141,3.153
		c1.088-0.852,2.789,3.96,3.28,4.941c1.143-0.689,1.665,1.132,2.216,1.897c0.533,0.747,2.002,1.831,2.773,2.393
		c-0.352-1.521,0.326-2.786,0.796-4.187c0.152-0.45,1.38-1.7,1.76-2.208c0.663-0.857,1.433-1.501,2.036-2.456
		c0.289-0.451,0.598-0.597,0.915-0.307c2.611,2.361,4.622,5.335,6.369,8.373c0.433,0.753,0.733,0.097,1.307,0.369
		c0.714,0.336,1.314,1.969,1.741,2.583c0.947,1.372,2.756,2.693,3.959,3.997c0.087,0.1,0.264,0.215,0.353,0.186
		c0.313-0.291,0.508-0.655,0.577-1.091c0.487-0.745,2.438-3.145,3.509-3.057c1.535,0.122,3.366,2.18,4.506,3.038
		c0.386,0.132,0.775,0.275,1.151,0.43c0.94,0.727,1.821,1.534,2.713,2.317c0.134-0.888,0.499-0.071,0.753-0.189
		c0.004-0.071,0.014-0.144,0.011-0.214c-0.016-0.829,0.733-1.507,1.551-1.337c5.896,1.228,10.771,1.34,16.846,0.495
		c0.001-0.042,0.002-0.077,0.002-0.121c-3.155-0.331-4.181-2.151-6.432-3.963c-0.626-0.507,0.26-0.81,0.722-0.803
		c-0.615-0.899-1.538-1.329-2.145-2.043c0.07-1.346-2.206-2.432-3.24-3.072c0.896-0.751,1.798-1.233,2.809-1.562
		c-0.495-0.555-1.08-1.805-1.607-2.241c-1.492-1.223-2.768-2.345-4.086-3.793c-1.328-1.462-3.903-3.508-4.454-5.46
		c-0.061-0.204-0.038-0.426-0.059-0.645c2.245-0.031,4.408,2.18,6.197,3.326c1.573,1.013,4.177,1.535,5.942,2.252
		c0.722,0.3,0.489-0.809,1.203-0.486c0.177,0.08,0.368,0.149,0.546,0.227c0.295,0.139,0.557,0.212,0.634-0.346
		c1.312,0.938,2.752,1.648,4.249,2.261c0.392,0.157,0.517-0.379,0.801-0.439c0.612-0.125,1.551,0.411,2.14,0.54
		c1.398,0.307,3.193,0.025,4.334,0.202c0.53,0.081,1.054,0.205,1.587,0.314c-0.214-0.451-2.935-4.2-1.404-4.334
		c-0.248-2.185-0.38-4.358-0.3-6.55c0.008-0.144,0.222-0.377,0.375-0.408c3.017-0.6,6.12-0.653,9.109-1.241
		c-0.241-0.303-0.593-0.575-0.69-0.914c-0.216-0.791-0.353-1.615-0.437-2.433c-0.023-0.244,0.152-0.634,0.361-0.767
		c1.089-0.703,2.371-0.734,3.615-0.905c-0.179-0.542-0.229-1.01,0.191-1.253c0.876-0.512,1.809-0.61,2.775-0.803
		c0.398-0.077,0.587-0.618,1.008-0.677c0.852-0.118,1.785-0.023,2.638-0.042c1.376-0.032,2.832,0.087,4.164-0.256
		c0.004-0.057,0.003-0.113,0.01-0.164c-1.6-0.9-3.252-1.545-4.923-2.304c-1.131-0.521-2.272-1.57-3.308-1.947
		c-0.275-0.1-0.548-0.192-0.816-0.299c-0.748-0.287-0.826-0.594-0.212-1.224c-1.72-1.108-3.769-1.299-5.637-1.994
		c-0.115-0.045-0.256-0.257-0.239-0.381c0.091-0.703,0.241-1.401,0.325-2.104c0.129-1.056,1.036-1.27,1.271-2.066
		c-0.903-0.129-2.35-0.683-3.199-0.565c-0.815,0.113-1.627,0.255-2.44,0.389c-0.825,0.135-0.232-0.526-0.549-0.802
		c-0.324-0.283-1.748-0.06-2.142-0.049c-1.732,0.08-3.318,0.328-5.065,0.089c-2.077-0.284-0.775-5.005-0.618-6.387
		c0.111-1.02-0.767-2.366,0.851-3.42c-0.961-0.178-2.325,0.249-3.295,0.379c-0.654,0.088-0.229-0.541-0.745-0.537
		c-0.877-0.006-1.858,0.653-2.643,0.976c-0.472,0.192-0.853-0.082-0.825-0.596c0.006-0.101,0.025-0.203,0.061-0.429
		c-1.884,0.629-3.534,1.698-5.245,2.696c-0.789,0.465-1.569-1.168-1.53-1.744c-0.205,0.162-0.312,0.255-0.437,0.332
		c-0.379,0.238-0.485-0.071-0.834,0.273c-0.704,0.685-1.394,1.284-2.158,1.902c0.37,0.113,0.635,0.34,0.803,0.684
		c-0.069,1.296-11.126,5.058-11.294,3.578c-0.024-0.203,0.014-0.464,0.141-0.619c2.396-2.952,6.226-4.47,9.401-6.209
		c-1.152-0.388-1.838-1.097-2.243-2.078c-0.092-0.589,0.193-1.017,0.856-1.278c1.771-0.979,3.639-1.727,5.236-2.992
		c-0.454-0.333-1.124-0.484-0.488-1.145c0.791-0.821,1.967-1.388,2.919-2.006c0.106-0.28,0.238-0.591,0.479-0.749
		c1.619-1.036,3.399-1.784,5.139-2.596c-1.513-0.311-2.694-0.601-4.18-1.058c-0.997-0.306-2.553,0.408-3.423-0.288
		c-0.164-0.129-0.153-0.472-0.217-0.741c-0.671,0.077-1.523,0.778-2.143,0.677c-0.458-0.077-0.917-0.205-1.373-0.276
		c-1.168-0.165-0.641-1.348-0.521-2.184c-1.211,0.339-2.373,0.671-3.446,0.973c-0.18-0.135-0.291-0.296-0.382-0.28
		c-1.248,0.16-4.998,2.5-5.112,0.438c-0.07-1.281-0.105-2.562-0.154-3.84c-0.034-1.088-2.969,0.969-3.261,1.157
		c-0.107-0.089-0.249-0.267-0.305-0.244c-1.451,0.597-2.301,1.547-3.454,2.58c-0.473,0.421-0.491,0.396-0.862-0.099
		c-1.053,0.25-1.944,0.802-2.663,1.581c-1.57,1.724-2.966,3.632-4.688,5.215c-0.149,0.139-0.377,0.295-0.532-0.001
		c-1.021-1.985-1.519-3.703-3.517-4.987c-0.201-0.134-0.494-0.122-0.746-0.176c-0.016,0.045-0.036,0.091-0.051,0.136
		c-0.5-0.391-0.92-0.829-0.828-1.573c-0.514-0.02-0.766,0.337-1.022,0.625c-0.433,0.495-0.81,1.023-1.228,1.528
		c-0.324,0.399-0.798-0.096-1.039,0.285c-0.538,0.83-1.232,1.575-1.395,2.61c-0.207,1.341-1.221-0.498-1.701,0.471
		c-0.388,0.787-1.13,2.146-1.287,2.973c-0.075,0.394-0.09,0.801-0.127,1.206c-0.459-0.674-0.701-1.352-0.158-2.063
		c-1.248-0.026-1.956,0.909-2.848,1.454c-0.926,0.556-1.873,4.322-1.984,5.14c-0.159,1.217,0.105,2.405,0.299,3.597
		c0.092,0.588,0.104,1.175,0.857,1.535c0.729,0.34,0.812,2.069,0.32,2.733c-0.16,0.217-0.28,0.506-0.311,0.773
		c-0.121,0.971-0.219,1.036-1.01,0.478C249.908,89.043,244.482,84.95,239.255,80.568C238.947,81.257,240.372,81.5,239.255,80.568z"
		/>
</g>
</svg>
