<?xml version="1.0" encoding="utf-8"?>
<!-- Generator: Adobe Illustrator 16.0.4, SVG Export Plug-In . SVG Version: 6.00 Build 0)  -->
<!DOCTYPE svg PUBLIC "-//W3C//DTD SVG 1.1//EN" "http://www.w3.org/Graphics/SVG/1.1/DTD/svg11.dtd">
<svg version="1.1" xmlns="http://www.w3.org/2000/svg" xmlns:xlink="http://www.w3.org/1999/xlink" x="0px" y="0px" width="500px"
	 height="500px" viewBox="0 0 500 500" enable-background="new 0 0 500 500" xml:space="preserve">
<g id="Layer_1">
	<path fill-rule="evenodd" clip-rule="evenodd" stroke="#FF0000" stroke-width="5" stroke-miterlimit="1" d="M492,480
		c0,6.627-5.373,12-12,12H19c-6.627,0-12-5.373-12-12V19c0-6.627,5.373-12,12-12h461c6.627,0,12,5.373,12,12V480z"/>
</g>
<g id="Layer_4">
	<g>
		<linearGradient id="SVGID_1_" gradientUnits="userSpaceOnUse" x1="78.3462" y1="353.4492" x2="215.8916" y2="353.4492">
			<stop  offset="0" style="stop-color:#FF1A00"/>
			<stop  offset="0.1446" style="stop-color:#C71400"/>
			<stop  offset="0.317" style="stop-color:#8B0E00"/>
			<stop  offset="0.4833" style="stop-color:#590900"/>
			<stop  offset="0.6389" style="stop-color:#330500"/>
			<stop  offset="0.7814" style="stop-color:#170200"/>
			<stop  offset="0.9063" style="stop-color:#060100"/>
			<stop  offset="1" style="stop-color:#000000"/>
		</linearGradient>
		<polygon fill="url(#SVGID_1_)" points="215.892,242.803 215.892,347.865 78.346,464.095 78.346,358.968 		"/>
		<linearGradient id="SVGID_2_" gradientUnits="userSpaceOnUse" x1="78.3462" y1="227.2031" x2="215.8916" y2="227.2031">
			<stop  offset="0" style="stop-color:#FFFF00"/>
			<stop  offset="0.1446" style="stop-color:#C7C700"/>
			<stop  offset="0.317" style="stop-color:#8B8B00"/>
			<stop  offset="0.4833" style="stop-color:#595900"/>
			<stop  offset="0.6389" style="stop-color:#333300"/>
			<stop  offset="0.7814" style="stop-color:#171700"/>
			<stop  offset="0.9063" style="stop-color:#060600"/>
			<stop  offset="1" style="stop-color:#000000"/>
		</linearGradient>
		<polygon fill="url(#SVGID_2_)" points="215.892,116.557 215.892,221.619 78.346,337.849 78.346,232.722 		"/>
		<linearGradient id="SVGID_3_" gradientUnits="userSpaceOnUse" x1="78.3462" y1="113.4414" x2="215.8916" y2="113.4414">
			<stop  offset="0" style="stop-color:#FF1A00"/>
			<stop  offset="0.1446" style="stop-color:#C71400"/>
			<stop  offset="0.317" style="stop-color:#8B0E00"/>
			<stop  offset="0.4833" style="stop-color:#590900"/>
			<stop  offset="0.6389" style="stop-color:#330500"/>
			<stop  offset="0.7814" style="stop-color:#170200"/>
			<stop  offset="0.9063" style="stop-color:#060100"/>
			<stop  offset="1" style="stop-color:#000000"/>
		</linearGradient>
		<polygon fill="url(#SVGID_3_)" points="176.647,22 215.892,88.653 78.346,204.883 78.346,99.755 		"/>
	</g>
</g>
<g id="Layer_5">
	<g>
		<g>
			<path fill="#FF0000" d="M401.795,297.241c-0.971-3.31-1.441-7.005-1.748-10.46c-0.283-3.498-0.616-6.936-1.183-10.33
				l-0.532-2.518c-0.095-0.418-0.165-0.842-0.277-1.255l-0.368-1.23l-0.732-2.46l-0.794-2.528c-0.519-1.672-1.067-3.321-1.562-5.013
				l-0.607-2.636c-0.189-0.884-0.448-1.744-0.504-2.676c-0.077-0.909-0.253-1.852-0.212-2.729l-0.003-0.668l-0.001-0.334
				c-0.001-0.044,0.014,0.231,0.004,0.096l-0.006-0.04l-0.013-0.081l-0.025-0.162l-0.101-0.646l-0.17-0.508l-0.157-0.508
				l-0.223-0.591c-0.153-0.395-0.284-0.788-0.458-1.185c-0.326-0.793-0.658-1.585-1.014-2.378l-2.14-4.794l-0.266-0.61l-0.249-0.678
				c-0.075-0.263-0.146-0.555-0.211-0.833c-0.036-0.264-0.077-0.529-0.101-0.792c-0.073-1.065,0.094-2.065,0.29-2.965
				c0.42-1.799,0.868-3.373,1.078-5.016c0.229-1.674,0.218-3.189-0.172-4.717c-0.784-3.158-2.312-6.307-3.784-9.449
				c-1.496-3.146-3.023-6.323-4.402-9.581c-0.353-0.81-0.672-1.639-1.009-2.457l-0.883-2.521c-0.612-1.611-1.046-3.409-1.541-5.135
				c-0.857-3.458-1.412-6.918-2.258-10.222c-0.229-0.818-0.439-1.644-0.683-2.458l-0.865-2.386
				c-0.255-0.811-0.697-1.543-1.035-2.321l-0.545-1.152l-0.584-1.197l-1.161-2.351c-0.374-0.8-0.707-1.647-1.061-2.467
				c-0.368-0.822-0.658-1.661-0.958-2.496c-0.307-0.833-0.607-1.667-0.858-2.514c-1.088-3.367-1.895-6.77-3.034-10.016
				c-0.309-0.786-0.56-1.662-0.917-2.375c-0.378-0.784-0.729-1.597-1.129-2.357l-1.279-2.203c-0.446-0.73-0.946-1.444-1.416-2.168
				c-1.951-2.857-4.097-5.614-6.367-8.229l-0.093-0.107l-0.028-0.128l-0.001-0.003c-0.162-0.689-0.298-1.389-0.616-1.931
				c-0.27-0.578-0.786-0.984-1.327-1.381c-1.161-0.729-2.504-1.28-3.846-1.799c-1.379-0.546-2.684-1.141-4.029-1.709
				c-1.347-0.543-2.638-1.248-3.959-1.867l-7.868-3.785c-1.312-0.625-2.615-1.267-3.947-1.847l-3.977-1.782l-15.938-7.104
				l-7.974-3.542c-2.665-1.158-5.288-2.454-7.934-3.675l-0.07-0.032l-0.063-0.063c-1.336-1.328-2.892-2.414-4.545-3.35
				c-0.844-0.441-1.677-0.902-2.56-1.272l-1.31-0.583l-1.342-0.517c-0.887-0.361-1.798-0.665-2.712-0.959l-1.367-0.452
				c-0.383-0.104-0.923-0.193-1.377-0.29c-1.886-0.333-3.729-0.359-5.674-0.368c-0.957-0.029-1.921,0.034-2.882,0.061
				c-0.962,0.031-1.924,0.061-2.886,0.136l-2.885,0.191l-2.883,0.259c-1.923,0.155-3.839,0.401-5.759,0.602l-5.747,0.73
				c-1.911,0.275-3.826,0.525-5.732,0.835c-1.91,0.288-3.816,0.599-5.718,0.931c-1.906,0.31-3.799,0.689-5.698,1.035
				c-1.89,0.389-3.785,0.754-5.659,1.2c-0.943,0.203-1.875,0.437-2.802,0.687c-0.938,0.225-1.846,0.51-2.748,0.804l-0.34,0.108
				c-0.044,0.015-0.142,0.043-0.141,0.046l-0.167,0.072l-0.665,0.29l-1.33,0.579c-0.918,0.348-1.703,0.856-2.52,1.325
				c-0.403,0.243-0.821,0.458-1.214,0.722l-1.154,0.838c-0.379,0.286-0.782,0.542-1.142,0.853l-1.074,0.938
				c-1.407,1.258-2.748,2.67-3.788,4.196l-0.071,0.104l-0.104,0.062l-0.006,0.004c-1.218,0.813-2.447,1.603-3.676,2.39
				c-1.242,0.767-2.43,1.617-3.635,2.438c-1.199,0.832-2.419,1.625-3.599,2.487l-3.542,2.581c-1.191,0.842-2.368,1.71-3.54,2.59
				l-3.542,2.596c-1.174,0.869-2.379,1.736-3.569,2.577c-1.192,0.852-2.386,1.703-3.603,2.535l-7.262,4.979
				c-2.413,1.66-4.833,3.287-7.161,5.02c-0.599,0.417-1.139,0.889-1.71,1.333c-0.558,0.456-1.148,0.884-1.659,1.382l-1.562,1.428
				l-1.505,1.603c-0.485,0.538-0.886,1.096-1.338,1.645c-0.426,0.562-0.806,1.171-1.204,1.761c-0.707,1.214-1.387,2.525-1.74,3.814
				l-0.046,0.167l-0.102,0.11l-0.007,0.007c-1.04,1.337-1.671,3.105-2.251,4.825c-0.573,1.74-1.047,3.522-1.489,5.318
				c-0.902,3.585-1.612,7.235-2.347,10.875c-0.704,3.649-1.36,7.312-2.029,10.975l-1.922,11.013l-1.906,11.032l-2.022,11.041
				c-0.677,3.702-1.475,7.36-2.225,11.006c-0.75,3.648-1.496,7.291-2.075,10.896c-0.565,3.596-1.021,7.199-0.709,10.471
				c0.043,0.407,0.077,0.818,0.165,1.206c0.072,0.394,0.135,0.792,0.254,1.166c0.101,0.381,0.199,0.764,0.351,1.126l0.487,1.34
				c0.302,0.912,0.654,1.66,0.882,2.831l0.36,1.624c0.071,0.521,0.114,1.031,0.169,1.547c0.367,4.138-0.129,7.839-0.275,11.519
				c-0.108,1.835-0.139,3.697-0.178,5.487l0.012,5.604l0.071,5.587l-0.098,5.678l-0.636,11.194
				c-0.047,1.855-0.236,3.769-0.105,5.551l0.082,2.725c0.043,0.91,0.175,1.82,0.258,2.733c0.414,3.619,1.103,7.319,2.532,10.625
				l0.076,0.175l-0.01,0.111l-0.001,0.018l-0.097,2.266c-0.018,0.756-0.099,1.511-0.062,2.267l0.042,2.268
				c-0.004,0.757,0.06,1.51,0.122,2.263l0.18,2.261l0.306,2.246c0.086,0.752,0.224,1.494,0.375,2.235
				c0.152,0.739,0.266,1.488,0.45,2.221l0.547,2.2c0.192,0.73,0.431,1.448,0.644,2.173c0.204,0.729,0.479,1.433,0.728,2.146
				c0.241,0.717,0.525,1.416,0.815,2.113c0.559,1.403,1.216,2.765,1.907,4.105c0.359,0.662,0.714,1.329,1.11,1.968
				c0.382,0.645,0.799,1.283,1.225,1.871l0.104,0.143l-0.018,0.191l-0.1,1.073c-0.045,0.357-0.065,0.716-0.043,1.077l0.023,1.082
				l0.123,1.078c0.027,0.361,0.118,0.715,0.182,1.071c0.061,0.357,0.142,0.711,0.242,1.06c0.087,0.353,0.187,0.7,0.305,1.043
				c0.105,0.343,0.238,0.689,0.367,1.005l-0.015,0.377L146.766,382c-0.023,0.18,0.024,0.392,0.059,0.598
				c0.087,0.412,0.094,0.825,0.244,1.236l0.374,1.235c0.12,0.402,0.251,0.837,0.392,1.253c0.278,0.835,0.494,1.736,0.654,2.604
				c0.168,0.877,0.272,1.763,0.362,2.641c0.092,0.876,0.155,1.752,0.291,2.59c0.132,0.834,0.363,1.646,0.904,2.142
				c0.259,0.223,0.684,0.507,1.017,0.757c0.365,0.172,0.694,0.387,1.08,0.49c0.192,0.046,0.383,0.113,0.576,0.146l0.581,0.029
				c0.366-0.036,0.784-0.129,1.035-0.298l0.112-0.076l0.186,0.003c0.218,0.004,0.573-0.014,0.874-0.09
				c0.314-0.054,0.627-0.125,0.938-0.241c0.31-0.107,0.627-0.189,0.932-0.316l0.911-0.402c0.617-0.244,1.194-0.588,1.782-0.906
				c0.589-0.316,1.176-0.638,1.73-1.021l1.69-1.095c0.56-0.371,1.087-0.794,1.632-1.188l1.623-1.202
				c0.518-0.403,1.042-0.854,1.563-1.279l1.565-1.294c0.515-0.438,0.996-0.903,1.495-1.354c0.493-0.457,0.998-0.9,1.48-1.369
				l1.418-1.437c0.482-0.471,0.932-0.972,1.377-1.476c0.445-0.504,0.911-0.991,1.323-1.521c0.853-1.031,1.687-2.106,2.385-3.217
				l0.097-0.155l0.159-0.008c1.69-0.092,3.46,0.086,5.004,0.769c1.549,0.599,3.079,1.252,4.606,1.879
				c3.057,1.265,6.122,2.506,9.216,3.669c3.09,1.176,6.206,2.28,9.351,3.295c3.14,1.031,6.317,1.939,9.518,2.754
				c1.601,0.404,3.215,0.75,4.828,1.101c1.626,0.277,3.238,0.648,4.878,0.833l2.452,0.332l2.464,0.192
				c1.635,0.161,3.302,0.154,4.952,0.239c3.303,0.079,6.61,0.143,9.916,0.073c3.306-0.033,6.609-0.198,9.909-0.4
				c3.295-0.256,6.59-0.551,9.863-1.008c1.639-0.215,3.274-0.452,4.9-0.754c1.632-0.26,3.249-0.604,4.865-0.943
				c1.625-0.308,3.215-0.764,4.823-1.14c1.6-0.415,3.18-0.898,4.768-1.354c3.14-1.023,6.261-2.116,9.28-3.454l9.078-4.02l4.539-2.01
				c1.517-0.663,3.013-1.37,4.573-1.935l9.269-3.6l4.707-1.604l2.354-0.799l2.387-0.72l-0.083,0.036l0.019-0.013
				c0.797-0.608,1.498-1.34,1.828-2.181c0.358-0.83,0.271-1.741-0.059-2.609c-0.672-1.75-2.001-3.329-3.286-4.938l-0.914-1.352
				c-0.276-0.475-0.522-1.049-0.777-1.58c-0.42-1.072-0.722-2.146-0.909-3.238c-0.193-1.084-0.292-2.173-0.347-3.232
				c-0.076-1.072-0.081-2.113-0.118-3.154l-0.036-1.608l0.015-1.556c0.026-0.545,0.11-1.168,0.172-1.749
				c0.114-0.565,0.219-1.15,0.374-1.689c0.307-1.1,0.681-2.079,0.977-3.027c0.165-0.478,0.294-0.954,0.428-1.431
				c0.141-0.474,0.268-0.952,0.369-1.441l0.33-1.396l0.27-1.531l0.131-0.763l0.071-0.709c0.041-0.477,0.114-0.937,0.133-1.425
				l0.061-1.463l-0.024-1.456c-0.033-0.479-0.059-0.964-0.11-1.435c-0.076-0.48-0.215-0.89,1.025-1.596l0.033-0.344l0.056,0.003
				c0.162-0.918,0.409-1.761,0.531-2.677l0.4-2.732c0.21-1.845,0.451-3.669,0.614-5.518c0.222-1.835,0.355-3.683,0.525-5.521
				c0.151-1.833,0.323-3.677,0.387-5.474c0.067-0.943,0.021-1.706,0.038-2.519l-0.008-2.915c0.063-1.877,0.208-3.92,0.333-5.755
				c0.117-1.837,0.285-3.7,0.321-5.466c0.022-0.877,0.09-1.825,0.077-2.643c-0.012-0.984-0.07-1.688-0.139-2.65
				c-0.285-3.636-0.675-7.383-0.858-11.159c-0.094-1.895-0.159-3.802-0.144-5.739c0.05-1.95,0.16-3.901,0.688-6.046l0.569-2.643
				c0.115-0.864,0.259-1.728,0.392-2.598c0.236-1.78,0.44-3.635,0.619-5.474l0.529-5.55l0.511-5.576l0.071-0.787l0.607,0.307
				l0.02,0.01l2.292,0.798l0.206,0.072l0.107,0.224c0.384,0.801,0.851,1.594,1.275,2.388l1.407,2.326l1.555,2.219l1.576,2.282
				c0.507,0.77,1.065,1.485,1.527,2.303l1.444,2.398c0.496,0.798,0.912,1.613,1.367,2.42c0.451,0.805,0.892,1.618,1.321,2.441
				l0.096,0.182l0.001,0.302l0.004,1.257c0.005,0.42,0.07,0.859,0.103,1.288c0.029,0.43,0.095,0.864,0.163,1.299
				c0.071,0.435,0.117,0.868,0.209,1.303c0.308,1.734,0.72,3.483,1.176,5.176l0.132,0.492l-0.331,0.434
				c-0.993,1.297-1.669,3.076-2.013,4.782c-0.318,1.718-0.324,3.521,0.351,4.943c0.51,1.442,2.316,2.235,3.555,4.389
				c0.287,0.511,0.479,1.138,0.586,1.606c0.134,0.512,0.209,0.91,0.349,1.346c0.246,0.857,0.606,1.624,0.992,2.532
				c0.385,0.846,0.785,1.8,1.104,2.77c0.332,0.952,0.57,1.958,0.738,2.979c0.166,1.021,0.193,2.091,0.172,3.062
				c-0.022,0.987-0.03,1.778,0.212,2.436c0.041,0.173,0.144,0.336,0.212,0.505l0.32,0.719l0.58,1.313
				c0.204,0.422,0.305,1.002,0.458,1.498c0.123,0.508,0.312,1.051,0.371,1.532c0.142,0.973,0.31,1.97,0.412,2.924l0.31,2.867
				c0.057,0.316,0.124,0.986,0.237,1.265c0.08,0.351,0.24,0.752,0.397,1.139c0.333,0.773,0.818,1.529,1.326,2.374
				c0.506,0.839,1.034,1.8,1.337,2.884c0.301,1.078,0.387,2.229,0.257,3.298c-0.056,0.536-0.166,1.054-0.274,1.568l-0.397,1.415
				c-0.15,0.518-0.184,0.792-0.227,1.204c-0.04,0.406-0.036,0.824-0.01,1.245c0.113,1.695,0.717,3.442,1.41,5.154
				c0.356,0.857,0.746,1.714,1.148,2.571l0.614,1.288l0.154,0.322l0.072,0.166l0.033,0.084l0.065,0.167l0.262,0.669l0.261,0.669
				c0.079,0.241,0.133,0.536,0.197,0.804c0.114,0.546,0.272,1.105,0.269,1.629c0.1,1.063,0.024,2.127-0.123,3.121
				c-0.135,1.004-0.365,1.954-0.486,2.837c-0.092,0.457-0.098,0.871-0.132,1.297l-0.019,0.25l0.023,0.358
				c0.004,0.283,0.066,0.341,0.084,0.52c0.342,1.419,1.605,2.858,2.938,3.776l0.373,0.257l0.109,0.414
				c0.2,0.758,0.452,1.562,0.742,2.29c0.144,0.373,0.311,0.707,0.479,1.036l0.266,0.413l0.171,0.202l0.151,0.15
				c0.272,0.27,0.66,0.591,1.014,1.083c0.362,0.482,0.602,1.199,0.582,1.822c0.018,0.329-0.059,0.595-0.103,0.888
				c-0.08,0.253-0.151,0.524-0.251,0.757c-0.194,0.475-0.429,0.892-0.669,1.3c-0.258,0.383-0.503,0.783-0.782,1.132l-0.409,0.539
				l-0.353,0.482c-0.283,0.359-0.438,0.662-0.629,0.974c-0.162,0.324-0.354,0.667-0.457,1.012c-0.252,0.687-0.358,1.394-0.277,2.065
				c0.026,0.339,0.131,0.66,0.248,0.971c0.109,0.293,0.335,0.635,0.46,0.779l-0.362-0.23c0.946,0.346,1.912,0.667,2.879,0.988
				c0.963,0.331,1.932,0.643,2.909,0.927l2.924,0.884l2.95,0.767c0.976,0.238,1.989,0.541,2.934,0.725l3.021,0.569
				c1.01,0.221,2.002,0.296,3.004,0.452c0.997,0.142,2,0.275,3.023,0.382c1.02,0.117,2.026,0.22,3.064,0.36l1.547,0.199
				c0.48,0.062,0.708,0.037,1.064-0.123c0.682-0.32,1.262-1.095,1.641-1.922c0.193-0.418,0.344-0.863,0.439-1.316
				c0.031-0.112,0.042-0.227,0.064-0.34c0.005-0.034,0.028-0.165,0.02-0.119l0.008-0.192l0.026-0.766
				c-0.063-0.896-0.188-1.905-0.37-2.908c-0.169-1-0.363-2.012-0.518-3.042c-0.074-0.519-0.144-1.038-0.173-1.588l-0.007-0.8
				l0.009-0.769c0.03-0.53-0.034-0.995-0.09-1.464c-0.045-0.463-0.159-0.977-0.27-1.423l-0.053-0.212l0.124-0.228l0.001-0.002
				c0.608-0.919,0.848-2.171,1.049-3.356c0.146-1.215,0.236-2.451,0.178-3.686c-0.017-1.253-0.174-2.421-0.384-3.704
				c-0.189-1.208-0.245-2.595-0.187-3.863c0.031-1.28,0.135-2.538,0.194-3.794c0.079-1.255,0.111-2.503,0.135-3.751
				c-0.014-1.244-0.027-2.488-0.15-3.723l-0.134-1.9c-0.023-0.638-0.121-1.238-0.084-1.907c0.028-0.657,0.014-1.325,0.084-1.975
				c0.095-0.645,0.138-1.301,0.276-1.936c0.245-1.275,0.602-2.528,0.948-3.724c0.184-0.607,0.314-1.197,0.471-1.794
				c0.118-0.586,0.232-1.213,0.306-1.765c0.134-1.283,0.156-2.465,0.093-3.679c-0.051-0.614-0.07-1.229-0.146-1.842l-0.24-1.842
				c-0.222-1.223-0.42-2.448-0.715-3.663c-0.255-1.22-0.585-2.428-0.9-3.638c-0.319-1.209-0.694-2.406-1.038-3.61L401.795,297.241z
				 M403.4,296.804c0.337,1.226,0.702,2.44,1.014,3.674c0.308,1.234,0.629,2.464,0.877,3.718c0.287,1.241,0.479,2.509,0.692,3.771
				l0.229,1.913c0.072,0.639,0.087,1.288,0.132,1.932c0.053,0.639,0.004,1.316,0.008,1.972c0,0.667-0.101,1.267-0.146,1.903
				c-0.098,0.696-0.222,1.312-0.358,1.959c-0.169,0.621-0.321,1.262-0.51,1.86c-0.369,1.224-0.715,2.396-0.96,3.596
				c-0.139,0.597-0.182,1.204-0.278,1.806c-0.072,0.604-0.062,1.202-0.099,1.804c-0.048,0.592,0.046,1.249,0.062,1.87l0.111,1.875
				c0.112,1.28,0.113,2.56,0.112,3.838c-0.037,1.273-0.085,2.548-0.178,3.81c-0.075,1.263-0.19,2.52-0.234,3.762
				c-0.066,1.252-0.045,2.395,0.137,3.683c0.186,1.208,0.352,2.548,0.351,3.819c0.045,1.288-0.061,2.577-0.23,3.861
				c-0.243,1.276-0.462,2.579-1.267,3.787l-0.001,0.002l0.071-0.438c0.152,0.542,0.275,1.03,0.351,1.585
				c0.081,0.547,0.158,1.099,0.144,1.598l0.014,0.769l0.027,0.736c0.039,0.472,0.118,0.97,0.204,1.462l0.592,3.008
				c0.201,1.012,0.371,2.033,0.457,3.182l-0.011,0.771l-0.003,0.192c-0.008,0.175-0.02,0.168-0.029,0.262
				c-0.023,0.139-0.036,0.28-0.069,0.416c-0.105,0.553-0.273,1.089-0.498,1.606c-0.457,1.016-1.1,2.049-2.27,2.667
				c-0.303,0.146-0.594,0.256-0.979,0.303c-0.478,0.05-0.533,0.021-0.949-0.014l-1.507-0.16c-0.996-0.113-2.031-0.196-3.051-0.291
				c-1.019-0.083-2.051-0.197-3.087-0.322c-1.025-0.136-2.086-0.201-3.086-0.397l-3.029-0.527c-1.07-0.196-2.027-0.474-3.047-0.707
				l-3.012-0.74l-2.975-0.856c-0.995-0.276-1.982-0.579-2.963-0.901c-0.983-0.312-1.967-0.625-2.951-0.97l-0.223-0.078l-0.14-0.152
				c-0.449-0.492-0.672-0.895-0.894-1.391c-0.197-0.482-0.355-0.987-0.409-1.503c-0.139-1.031,0.018-2.064,0.34-2.985
				c0.145-0.477,0.364-0.894,0.581-1.334c0.245-0.426,0.502-0.876,0.747-1.193l0.761-1.048c0.253-0.324,0.448-0.661,0.666-0.99
				c0.189-0.333,0.369-0.665,0.495-0.987c0.067-0.161,0.096-0.31,0.149-0.462c0.006-0.131,0.06-0.284,0.038-0.386
				c-0.005-0.233-0.048-0.37-0.195-0.577s-0.418-0.447-0.763-0.769l-0.303-0.303l-0.245-0.287l-0.44-0.66
				c-0.232-0.43-0.448-0.86-0.619-1.285c-0.353-0.859-0.629-1.689-0.867-2.587l0.482,0.671c-0.945-0.639-1.676-1.326-2.382-2.164
				c-0.674-0.843-1.262-1.812-1.551-2.972c-0.057-0.294-0.146-0.697-0.145-0.896l-0.024-0.358l-0.003-0.045l-0.003-0.098
				l0.001-0.025l0.006-0.1l0.013-0.199c0.034-0.529,0.054-1.075,0.147-1.56c0.139-1.016,0.359-1.931,0.473-2.827
				c0.13-0.898,0.18-1.758,0.097-2.603c0.007-0.441-0.125-0.806-0.195-1.198c-0.047-0.197-0.062-0.38-0.13-0.593l-0.265-0.668
				l-0.265-0.667l-0.065-0.167l-0.033-0.084l-0.017-0.041c0.07,0.161,0.014,0.033,0.027,0.063l-0.011-0.021l-0.157-0.324
				l-0.628-1.302c-0.415-0.875-0.823-1.76-1.205-2.669c-0.742-1.823-1.445-3.74-1.608-5.882c-0.036-0.533-0.044-1.075,0.007-1.623
				c0.041-0.54,0.171-1.215,0.293-1.615l0.374-1.352c0.084-0.421,0.175-0.845,0.216-1.259c0.193-1.688-0.28-3.114-1.285-4.688
				c-0.479-0.795-1.043-1.65-1.477-2.636c-0.207-0.498-0.408-0.986-0.549-1.569c-0.184-0.635-0.188-0.93-0.293-1.555l-0.32-2.844
				c-0.104-0.95-0.271-1.84-0.395-2.764c-0.056-0.471-0.202-0.835-0.293-1.259c-0.129-0.417-0.147-0.807-0.356-1.252l-0.571-1.317
				l-0.258-0.597c-0.117-0.271-0.257-0.527-0.337-0.82c-0.208-0.567-0.275-1.168-0.319-1.723c-0.024-0.546-0.011-1.062,0.001-1.527
				c0.026-0.942,0.008-1.796-0.126-2.668c-0.139-0.866-0.331-1.734-0.626-2.593c-0.273-0.852-0.606-1.669-1.007-2.569
				c-0.355-0.857-0.804-1.832-1.075-2.822c-0.15-0.478-0.256-1.021-0.363-1.437c-0.105-0.461-0.201-0.763-0.377-1.086
				c-0.1-0.153-0.176-0.312-0.285-0.469l-0.386-0.462c-0.21-0.3-0.639-0.661-0.952-0.99c-0.165-0.168-0.354-0.337-0.499-0.504
				l-0.58-0.636c-0.327-0.467-0.664-0.939-0.874-1.465c-0.945-2.087-0.856-4.321-0.438-6.323c0.474-2.019,1.191-3.919,2.559-5.654
				l-0.199,0.926c-0.443-1.797-0.821-3.569-1.105-5.391c-0.085-0.449-0.126-0.914-0.19-1.37c-0.062-0.457-0.12-0.915-0.145-1.386
				l-0.05-0.7c-0.012-0.235-0.045-0.461-0.031-0.706l0.029-1.447l0.096,0.483c-0.402-0.813-0.819-1.623-1.249-2.429
				c-0.427-0.804-0.839-1.628-1.285-2.407l-1.314-2.369c-0.411-0.799-0.96-1.557-1.436-2.337l-1.475-2.303l-1.525-2.346
				l-1.361-2.436c-0.408-0.841-0.834-1.655-1.206-2.528l0.313,0.295l-2.252-0.903l-0.021-0.005l0.678-0.479
				c0.235,1.869,0.396,3.737,0.538,5.61c0.144,1.874,0.22,3.749,0.285,5.633c0.049,0.94,0.055,1.884,0.044,2.831
				c-0.014,0.956,0.017,1.873-0.032,2.863c-0.049,0.985-0.084,1.979-0.151,2.97l-0.392,2.866c-0.257,1.508-0.229,3.312-0.164,5.084
				c0.071,1.791,0.219,3.608,0.396,5.433c0.374,3.66,0.838,7.323,1.164,11.12c0.075,0.896,0.161,2.053,0.175,2.933
				c0.021,1.046-0.068,1.96-0.098,2.946c-0.05,1.964-0.266,3.812-0.444,5.692c-0.161,1.882-0.4,3.55-0.545,5.394l-0.083,1.397
				l-0.042,0.698l-0.021,0.35l-0.011,0.175l-0.006,0.087l-0.002,0.044l-0.002,0.021c0.001,0.114-0.003-0.131-0.003-0.097
				c-0.057,1.051-0.104,2.155-0.265,3.064c-0.244,1.92-0.589,3.77-0.915,5.635c-0.392,1.849-0.774,3.693-1.23,5.526
				c-0.433,1.832-0.984,3.652-1.515,5.463l-0.95,2.695c-0.335,0.891-0.797,1.781-1.205,2.636l0.043,0.041l0.033-0.344
				c0.713,0.159,1.067,0.383,1.27,0.652c0.192,0.261,0.144,0.552,0.191,0.83c0.052,0.561,0.071,1.112,0.099,1.667l-0.003,1.654
				l-0.097,1.643c-0.032,0.547-0.126,1.112-0.188,1.667l-0.106,0.835l-0.146,0.768l-0.298,1.526
				c-0.149,0.64-0.271,1.077-0.412,1.624c-0.13,0.522-0.288,1.039-0.462,1.554c-0.167,0.516-0.33,1.033-0.522,1.53
				c-0.364,1.017-0.763,1.964-1.046,2.854c-0.149,0.449-0.237,0.888-0.352,1.331c-0.056,0.449-0.143,0.851-0.188,1.34l-0.099,1.552
				l-0.052,1.501c-0.023,1.031-0.077,2.064-0.063,3.064c-0.014,1.012,0.04,1.995,0.129,2.963c0.087,0.965,0.284,1.911,0.547,2.792
				c0.171,0.414,0.28,0.82,0.485,1.26l0.728,1.29c0.569,0.866,1.153,1.748,1.689,2.683c0.528,0.936,1.038,1.924,1.309,3.043
				c0.288,1.096,0.263,2.41-0.345,3.444c-0.589,1.032-1.506,1.715-2.429,2.242l-0.02,0.014l-0.03,0.021l-0.053,0.016l-2.372,0.693
				l-2.354,0.775l-4.706,1.558l-9.267,3.525c-1.556,0.559-3.056,1.264-4.573,1.924l-4.544,2.001l-9.088,4.001
				c-3.037,1.339-6.173,2.431-9.327,3.45c-1.595,0.454-3.182,0.937-4.786,1.35c-1.615,0.374-3.212,0.828-4.842,1.133
				c-1.622,0.338-3.244,0.68-4.882,0.937c-1.631,0.296-3.269,0.542-4.911,0.763c-3.281,0.47-6.582,0.776-9.885,1.044
				c-3.306,0.215-6.616,0.391-9.929,0.436c-3.312,0.08-6.625,0.027-9.94-0.04c-1.655-0.08-3.304-0.066-4.965-0.223l-2.485-0.187
				l-2.469-0.325c-1.652-0.181-3.273-0.548-4.91-0.821c-1.622-0.347-3.246-0.689-4.855-1.09c-3.217-0.807-6.41-1.707-9.563-2.73
				c-3.158-1.008-6.287-2.105-9.388-3.273c-3.105-1.155-6.182-2.389-9.246-3.644c-3.086-1.151-6.052-2.947-9.308-2.57l0.255-0.163
				c-0.739,1.186-1.568,2.256-2.435,3.313c-0.418,0.54-0.887,1.035-1.335,1.548c-0.45,0.512-0.903,1.021-1.389,1.497l-1.43,1.458
				c-0.487,0.477-0.998,0.929-1.496,1.395c-0.504,0.457-0.996,0.936-1.511,1.376l-1.561,1.299c-0.527,0.433-1.026,0.867-1.575,1.298
				l-1.636,1.222c-0.55,0.4-1.08,0.828-1.647,1.206l-1.714,1.119c-0.561,0.39-1.16,0.722-1.763,1.048
				c-0.601,0.328-1.188,0.681-1.832,0.939l-0.946,0.42c-0.318,0.134-0.659,0.226-0.988,0.34c-0.325,0.122-0.67,0.203-1.024,0.266
				c-0.358,0.077-0.684,0.122-1.141,0.095l0.298-0.073c-0.488,0.326-0.957,0.397-1.457,0.458c-0.245,0.001-0.489-0.021-0.733-0.034
				c-0.238-0.038-0.466-0.113-0.7-0.171c-0.46-0.123-0.889-0.389-1.307-0.599c-0.368-0.275-0.685-0.471-1.094-0.812
				c-0.393-0.343-0.627-0.801-0.816-1.242c-0.159-0.449-0.274-0.904-0.342-1.351c-0.147-0.895-0.212-1.771-0.307-2.64
				c-0.092-0.867-0.196-1.728-0.361-2.573c-0.164-0.856-0.358-1.666-0.636-2.497l-0.398-1.258l-0.392-1.283
				c-0.153-0.418-0.176-0.896-0.268-1.342c-0.037-0.228-0.088-0.446-0.066-0.707c0.028-0.271-0.048-0.443,0.115-0.85l-0.015,0.376
				c-0.154-0.37-0.287-0.718-0.402-1.083c-0.125-0.359-0.231-0.725-0.323-1.093c-0.105-0.364-0.191-0.734-0.257-1.108
				c-0.068-0.373-0.163-0.742-0.194-1.122l-0.133-1.133l-0.03-1.144c-0.023-0.381-0.003-0.762,0.042-1.144l0.104-1.144l0.085,0.334
				c-0.471-0.645-0.888-1.282-1.286-1.946c-0.409-0.655-0.773-1.333-1.142-2.009c-0.71-1.364-1.383-2.749-1.958-4.175
				c-0.297-0.709-0.589-1.42-0.837-2.147c-0.255-0.725-0.538-1.44-0.747-2.18c-0.219-0.736-0.464-1.465-0.662-2.207l-0.564-2.234
				c-0.189-0.744-0.308-1.504-0.465-2.256c-0.156-0.753-0.298-1.507-0.389-2.271l-0.318-2.281l-0.191-2.296
				c-0.065-0.765-0.133-1.53-0.131-2.299l-0.05-2.303c-0.04-0.768,0.04-1.534,0.055-2.301l0.091-2.302v-0.019l0.065,0.285
				c-1.884-3.406-2.931-7.078-3.648-10.819c-0.162-0.938-0.371-1.869-0.494-2.818l-0.298-2.866
				c-0.256-1.941-0.188-3.771-0.265-5.649l-0.034-1.401l-0.004-1.451l0.001-2.788c0.005-1.857,0.039-3.718,0.021-5.569l-0.19-5.529
				c-0.113-1.871-0.256-3.746-0.333-5.614l-0.221-5.601c-0.033-1.944-0.07-3.82-0.03-5.719l0.124-5.611
				c0.032-1.823,0.067-3.613-0.154-5.26l-0.158-1.235l-0.273-1.105c-0.094-0.679-0.531-1.641-0.838-2.492l-0.5-1.282
				c-0.214-0.5-0.368-1.017-0.517-1.535c-0.169-0.517-0.271-1.039-0.378-1.562c-0.124-0.524-0.184-1.043-0.25-1.563
				c-0.497-4.179,0.031-8.067,0.586-11.838c0.58-3.776,1.308-7.462,2.034-11.138l2.213-10.965l2.14-10.985l2.264-10.992
				c0.754-3.667,1.598-7.319,2.461-10.969c0.851-3.653,1.779-7.292,2.794-10.914c0.996-3.627,2.104-7.229,3.384-10.791
				c0.636-1.781,1.364-3.54,2.167-5.272c0.402-0.867,0.853-1.718,1.36-2.546c0.506-0.827,1.082-1.641,1.857-2.333l0.008-0.009
				l-0.148,0.277c0.317-1.571,0.929-2.925,1.63-4.274c0.388-0.646,0.755-1.303,1.183-1.93c0.448-0.608,0.881-1.26,1.35-1.833
				l1.428-1.672l1.632-1.593c0.526-0.542,1.112-0.994,1.674-1.482c0.572-0.474,1.124-0.982,1.715-1.422
				c2.329-1.828,4.698-3.587,7.114-5.251l7.193-5.038c1.194-0.834,2.38-1.697,3.564-2.562l3.556-2.576
				c2.388-1.71,4.738-3.458,7.186-5.097l3.662-2.462c1.225-0.814,2.499-1.564,3.745-2.349c1.244-0.791,2.512-1.54,3.818-2.226
				c1.293-0.707,2.586-1.41,3.891-2.091l0.007-0.004l-0.175,0.166c1.141-1.674,2.494-3.083,3.961-4.401l1.111-0.971
				c0.372-0.321,0.789-0.587,1.181-0.883l1.194-0.866c0.409-0.274,0.853-0.506,1.278-0.76c0.86-0.494,1.711-1.03,2.609-1.37
				l1.33-0.579l0.665-0.289l0.166-0.073c0.111-0.048,0.132-0.045,0.202-0.071l0.352-0.111c0.937-0.306,1.875-0.6,2.819-0.826
				c0.941-0.253,1.885-0.49,2.833-0.694c1.89-0.449,3.793-0.816,5.693-1.207c1.906-0.347,3.807-0.728,5.719-1.039
				c1.908-0.334,3.82-0.645,5.735-0.934c1.912-0.311,3.833-0.562,5.75-0.838l5.765-0.732c1.928-0.202,3.85-0.448,5.782-0.604
				l2.896-0.26l2.904-0.192c0.967-0.076,1.938-0.106,2.91-0.138c0.972-0.027,1.94-0.09,2.917-0.061
				c0.98,0.026,1.938-0.02,2.937,0.066l1.493,0.118l0.744,0.063l0.711,0.143c0.491,0.107,0.911,0.163,1.46,0.312l1.388,0.458
				c0.927,0.299,1.851,0.607,2.756,0.975l1.366,0.527l1.341,0.596c0.902,0.378,1.764,0.854,2.634,1.31
				c1.71,0.966,3.353,2.111,4.764,3.515l-0.134-0.095c2.637,1.215,5.23,2.498,7.901,3.659l7.974,3.542l15.94,7.105l3.985,1.786
				c1.335,0.581,2.642,1.225,3.956,1.851l7.856,3.78c1.312,0.615,2.579,1.309,3.932,1.854c1.334,0.563,2.678,1.174,4.003,1.698
				c1.365,0.532,2.734,1.081,4.039,1.899c0.625,0.449,1.286,0.983,1.649,1.735c0.41,0.725,0.545,1.484,0.717,2.202l0.001,0.003
				l-0.121-0.235c2.384,2.6,4.613,5.31,6.684,8.17c0.502,0.728,1.024,1.433,1.51,2.181l1.412,2.296
				c0.434,0.773,0.797,1.559,1.199,2.338c0.44,0.843,0.688,1.654,1.04,2.484c1.265,3.32,2.165,6.712,3.317,9.967
				c0.269,0.823,0.583,1.625,0.901,2.423c0.312,0.803,0.625,1.605,0.997,2.368c0.365,0.772,0.693,1.544,1.085,2.315l1.24,2.31
				l0.603,1.14l0.618,1.198c0.388,0.81,0.877,1.576,1.18,2.426l1.007,2.511c0.286,0.851,0.538,1.711,0.809,2.568
				c0.965,3.448,1.659,6.876,2.506,10.198c0.486,1.626,0.867,3.235,1.51,4.892l0.866,2.421c0.324,0.799,0.628,1.604,0.969,2.398
				c1.327,3.189,2.811,6.323,4.298,9.499c0.741,1.588,1.483,3.188,2.166,4.839c0.68,1.652,1.325,3.345,1.75,5.178
				c0.984,3.865-0.201,7.678-1.021,10.907c-0.188,0.801-0.306,1.544-0.267,2.229l0.056,0.508l0.098,0.44l0.192,0.556l0.251,0.595
				l2.07,4.809c0.349,0.807,0.682,1.63,1.01,2.458c0.171,0.406,0.313,0.844,0.47,1.266l0.229,0.64l0.214,0.748l0.202,0.75
				l0.091,0.651l0.023,0.162l0.011,0.081l0.006,0.04c-0.005-0.108,0.014,0.193,0.011,0.178l-0.004,0.321l-0.007,0.643
				c-0.054,0.874,0.104,1.664,0.157,2.495c0.028,0.821,0.266,1.649,0.431,2.476l0.527,2.481c0.46,1.67,0.99,3.348,1.482,5.021
				l0.738,2.485l0.727,2.576l0.362,1.287c0.11,0.432,0.179,0.872,0.27,1.308l0.513,2.62c0.533,3.511,0.818,7.041,1.047,10.514
				c0.272,3.507,0.612,6.782,1.55,10.213L403.4,296.804z"/>
			<path fill="#FF0000" d="M183.739,348.797c0.027,1.074,0.037,2.158,0.012,3.267c0,0.554-0.033,1.094-0.05,1.642
				c-0.02,0.546-0.032,1.093-0.072,1.638c-0.055,1.093-0.135,2.188-0.254,3.283c-0.046,0.547-0.131,1.097-0.212,1.646
				c-0.085,0.551-0.143,1.099-0.275,1.656c-0.126,0.56-0.206,1.106-0.394,1.674l-0.286,0.854l-0.146,0.427l-0.037,0.106
				l-0.005,0.014c-0.038,0.098,0.049-0.126,0.04-0.101l-0.002,0.006l-0.007,0.024l-0.016,0.048l-0.061,0.192l-0.244,0.771
				l-0.119,0.385l-0.049,0.335c-0.057,0.464-0.167,0.843-0.208,1.376c-0.044,0.506-0.126,0.997-0.155,1.515
				c-0.027,0.516-0.094,1.024-0.116,1.547l-0.1,1.564c-0.041,0.521-0.067,1.059-0.12,1.567l0,0l-0.082,1.112l-0.786-0.052
				c-1.361-0.088-2.613-0.243-3.905-0.83c-0.618-0.289-1.299-0.853-1.49-1.655c-0.18-0.773,0.004-1.492,0.251-2.093
				c0.925-2.362,2.807-4.143,2.871-6.427c0.081-2.281-0.775-4.602-1.618-6.823c-0.415-1.139-0.912-2.226-1.394-3.321
				c-0.477-1.108-1.053-2.185-1.348-3.431l-0.121-0.459l-0.048-0.474c-0.026-0.314-0.088-0.635-0.081-0.946
				c0.045-0.617,0.011-1.262,0.125-1.859c0.097-0.611,0.146-1.205,0.283-1.832l0.376-1.771c0.188-1.183,0.654-2.354,0.83-3.554
				c0.037-0.585,0.135-1.141,0.081-1.719c-0.058-0.581-0.092-1.146-0.076-1.706c0.021-0.509-0.018-1.181,0.024-1.764
				c0.014-0.594,0.042-1.179,0.09-1.774c0.084-1.206,0.175-2.427,0.085-3.633c-0.078-1.208-0.292-2.406-0.49-3.636l-0.299-1.891
				c-0.046-0.326-0.051-0.681-0.075-1.029c-0.021-0.354-0.034-0.723-0.032-1.013c-0.024-1.193,0.046-2.671-0.223-3.09l-0.088-0.145
				c-0.049-0.05-0.084-0.1-0.114-0.148c-0.017-0.04-0.103-0.134-0.146-0.197c-0.026-0.035-0.052-0.07-0.073-0.106l-0.016-0.027
				l-0.008-0.014l-0.154-0.379l-0.042-0.104l-0.085-0.211c-0.009-0.004-0.042-0.148-0.063-0.244l-0.06-0.318
				c-0.034-0.215-0.057-0.435-0.063-0.651c-0.005-0.126-0.002-0.196,0-0.241l0.008-0.17c0.013-0.22,0.024-0.474,0.048-0.665
				c0.022-0.188,0.054-0.374,0.086-0.56c0.264-1.412,0.641-2.479,0.957-3.592c0.344-1.088,0.641-2.136,0.9-3.184
				c0.24-1.046,0.467-2.104,0.508-3.174c0.01-0.548,0.029-1.041-0.03-1.655c-0.046-0.618-0.108-1.201-0.185-1.791
				c-0.139-1.204-0.364-2.358-0.561-3.649c-0.047-0.321-0.061-0.686-0.036-1.072c0.042-0.404,0.211-0.827,0.462-1.142
				c0.255-0.286,0.515-0.525,0.778-0.708l0.197-0.144l0.134-0.113l0.345-0.293c0.257-0.195,0.382-0.412,0.546-0.619l0.244-0.311
				l0.199-0.37c0.299-0.48,0.466-1.026,0.651-1.567c0.257-1.108,0.411-2.277,0.243-3.435c-0.024-0.586-0.173-1.152-0.312-1.723
				c-0.068-0.296-0.125-0.557-0.237-0.844c-0.093-0.295-0.205-0.56-0.321-0.815c-0.239-0.522-0.536-1.021-0.896-1.487
				c-0.35-0.466-0.788-0.96-1.002-1.6c-0.218-0.635-0.188-1.283-0.137-1.896c0.059-0.617,0.171-1.22,0.31-1.812
				c0.142-0.597,0.252-1.168,0.378-1.767l0.184-0.887l0.116-0.887c0.3-2.359,0.372-4.807-0.052-7.151l-0.009-0.049l0.017-0.041
				c0.523-1.27,1.059-2.532,1.618-3.786c0.277-0.628,0.57-1.25,0.865-1.872c0.148-0.311,0.303-0.619,0.465-0.926l0.26-0.456
				c0.105-0.147,0.181-0.303,0.388-0.459l0.008-0.006l0.321-0.248l-0.07,0.43c-0.302,1.846-0.491,3.715-0.635,5.583
				c-0.164,1.867-0.204,3.744-0.263,5.615c-0.035,1.871-0.032,3.753,0.495,5.619c0.233,0.932,0.475,1.858,0.658,2.78
				c0.091,0.461,0.158,0.922,0.208,1.383c0.017,0.23,0.069,0.458,0.087,0.688l0.036,0.345l0.018,0.172
				c0.128,0.051-0.641,0.144-1.086,0.223c-0.073,0.018-0.163,0.036-0.183,0.052c-0.022,0.016-0.004,0.029-0.006,0.044l0.016,0.087
				l0.032,0.174l0.066,0.347c0.059,0.23,0.104,0.461,0.179,0.689c0.127,0.459,0.312,0.912,0.504,1.362
				c0.18,0.45,0.41,0.895,0.608,1.339c0.213,0.442,0.469,0.873,0.655,1.31c0.395,0.87,0.634,1.747,0.72,2.647
				c0.043,0.451,0.062,0.905,0.045,1.367c0.009,0.551-0.031,0.977-0.081,1.477c-0.254,1.939-0.742,3.913-0.695,5.821
				c0.108,1.894,0.26,3.767,0.533,5.643c0.221,1.873,0.488,3.786,0.677,5.625c0.072,0.933,0.211,1.801,0.349,2.656l0.129,0.627
				l0.137,0.718l0.21,1.392c0.167,0.907,0.205,1.915,0.276,2.878c0.07,0.981,0.13,1.936,0.132,2.871
				c0.042,1.889,0.069,3.771,0.068,5.65l0.016,5.637c0.028,1.873,0.06,3.755,0.17,5.616c0.046,0.936,0.112,1.869,0.255,2.753
				l0.218,1.413l0.052,0.351l-0.01,0.419c-0.016,0.276-0.005,0.575-0.077,0.82c-0.191,1.064-0.637,1.898-0.809,2.735
				c-0.134,0.415-0.143,0.85-0.224,1.269l-0.028,1.304V348.797z M182.074,348.783l0.147-1.505c0.127-0.495,0.189-1.008,0.376-1.478
				c0.303-0.982,0.827-1.801,1.021-2.581c0.085-0.203,0.068-0.381,0.1-0.57l0.039-0.283l-0.03-0.348l-0.126-1.38
				c-0.12-0.977-0.169-1.915-0.233-2.853l-0.415-5.627c-0.139-1.871-0.322-3.744-0.494-5.61c-0.169-1.868-0.341-3.733-0.542-5.59
				l-0.133-1.395l-0.152-1.348c-0.125-0.902-0.141-1.777-0.331-2.715l-0.476-2.812c-0.122-0.999-0.115-2.01-0.071-2.951
				c0.111-1.913,0.318-3.752,0.346-5.627c0.006-1.867-0.125-3.737-0.52-5.563c-0.334-1.826-1.494-3.548-2.319-5.316
				c-0.193-0.428-0.392-0.927-0.514-1.306c-0.14-0.468-0.244-0.943-0.324-1.423c-0.161-0.959-0.167-1.942-0.019-2.932
				c0.072-0.495,0.174-0.991,0.307-1.483c0.141-0.492,0.314-0.984,0.436-1.47c0.135-0.486,0.263-0.97,0.332-1.447
				c0.046-0.24,0.062-0.478,0.093-0.715l0.023-0.355l0.01-0.178l0.005-0.089c-0.004-0.015,0.013-0.03-0.012-0.044
				c-0.022-0.014-0.114-0.024-0.188-0.035c-0.453-0.038-1.229-0.063-1.108-0.129l-0.004-0.179l-0.007-0.358
				c-0.004-0.239-0.001-0.479,0.015-0.718c0.042-0.478,0.101-0.954,0.184-1.432c0.167-0.954,0.394-1.904,0.611-2.848
				c0.193-0.945,0.436-1.882,0.556-2.819c0.133-0.938,0.16-1.877,0.221-2.815l0.494-5.615l0.572-5.608l0.251,0.181l-0.003,0.004
				c-0.066,0.058-0.17,0.197-0.261,0.331l-0.256,0.434c-0.164,0.297-0.321,0.599-0.473,0.904c-0.303,0.612-0.588,1.234-0.868,1.858
				c-0.56,1.25-1.097,2.511-1.62,3.775l0.008-0.089c0.427,2.411,0.42,4.85,0.142,7.272l-0.106,0.909l-0.17,0.889
				c-0.113,0.584-0.224,1.199-0.353,1.779c-0.222,1.152-0.478,2.395-0.112,3.438c0.188,0.511,0.578,0.936,0.967,1.415
				c0.393,0.477,0.738,1.009,1.019,1.575c0.143,0.289,0.272,0.577,0.37,0.855c0.118,0.272,0.207,0.598,0.282,0.888
				c0.167,0.599,0.343,1.196,0.392,1.821c0.342,2.446-0.09,5.174-1.97,7.132l-0.325,0.316c-0.072,0.066-0.068,0.074-0.202,0.189
				l-0.161,0.135c-0.22,0.179-0.395,0.364-0.518,0.547c-0.099,0.183-0.132,0.343-0.133,0.542c0.015,0.217,0.066,0.456,0.155,0.723
				c0.337,1.063,0.893,2.198,1.374,3.327l0.729,1.711c0.245,0.553,0.477,1.252,0.667,1.896c0.38,1.323,0.548,2.695,0.573,4.049
				c0.032,1.355-0.125,2.686-0.349,3.941c-0.233,1.239-0.556,2.485-0.785,3.437l-0.131,0.564l-0.015,0.055
				c-0.007,0.03-0.009,0.035-0.007-0.016c0-0.066-0.016-0.135-0.043-0.198c-0.014-0.032-0.031-0.063-0.05-0.093
				c-0.015-0.021-0.056-0.088-0.036-0.021l0.043,0.224l0.022,0.111c0.129,0.329-0.171-0.417-0.135-0.325l0.014,0.038l0.028,0.077
				l0.105,0.309c0.063,0.219,0.137,0.388,0.184,0.645c0.05,0.242,0.095,0.483,0.126,0.725c0.018,0.249,0.018,0.505,0.017,0.754
				c-0.053,0.977-0.333,1.755-0.6,2.327c-0.263,0.614-0.535,1.129-0.804,1.701c-0.149,0.296-0.25,0.523-0.338,0.771
				c-0.091,0.25-0.205,0.492-0.286,0.767c-0.134,0.565-0.283,1.132-0.347,1.729c-0.146,1.185-0.203,2.396-0.104,3.594
				c0.097,1.2,0.381,2.386,0.645,3.587c0.119,0.608,0.235,1.228,0.306,1.839c0.051,0.623,0.124,1.158,0.07,1.854
				c-0.06,0.644-0.171,1.283-0.305,1.907c-0.147,0.623-0.473,1.22-0.678,1.813c-0.472,1.124-0.81,2.234-1.068,3.429l-0.419,1.762
				c-0.136,0.549-0.205,1.16-0.312,1.738c-0.126,0.588-0.101,1.162-0.162,1.746c-0.014,0.29,0.039,0.57,0.053,0.856l0.038,0.427
				l0.108,0.416c0.249,1.113,0.808,2.199,1.277,3.305c0.489,1.112,0.961,2.236,1.4,3.356c0.883,2.246,1.826,4.56,1.79,7.144
				c-0.023,1.295-0.561,2.561-1.176,3.602c-0.609,1.064-1.221,2.064-1.641,3.141c-0.215,0.506-0.265,1.028-0.158,1.433
				c0.119,0.398,0.488,0.672,0.966,0.838c0.953,0.33,2.188,0.267,3.219,0.019l-0.868,1.061v-0.001
				c-0.278-1.114-0.417-2.207-0.482-3.329c-0.053-0.558-0.029-1.125-0.029-1.688c-0.018-0.562,0.077-1.139,0.118-1.707
				c0.021-0.547,0.206-1.214,0.321-1.812l0.101-0.46l0.132-0.384l0.267-0.764l0.543-1.485c0.162-0.452,0.269-0.974,0.418-1.455
				c0.152-0.483,0.243-1.006,0.357-1.515c0.11-0.512,0.227-1.021,0.306-1.546c0.193-1.038,0.365-2.086,0.505-3.142
				c0.154-1.051,0.264-2.118,0.363-3.171c0.1-1.045,0.168-2.116,0.218-3.199V348.783z"/>
		</g>
	</g>
	<linearGradient id="SVGID_4_" gradientUnits="userSpaceOnUse" x1="339.9883" y1="152.0479" x2="208.0857" y2="393.7567">
		<stop  offset="0" style="stop-color:#FF1A00"/>
		<stop  offset="0.1052" style="stop-color:#CE1500"/>
		<stop  offset="0.2361" style="stop-color:#980F00"/>
		<stop  offset="0.3685" style="stop-color:#690B00"/>
		<stop  offset="0.4996" style="stop-color:#430700"/>
		<stop  offset="0.6292" style="stop-color:#260400"/>
		<stop  offset="0.7568" style="stop-color:#110200"/>
		<stop  offset="0.8814" style="stop-color:#040000"/>
		<stop  offset="1" style="stop-color:#000000"/>
	</linearGradient>
	<path fill="url(#SVGID_4_)" d="M402.604,297.043c-2.576-8.587-0.857-17.174-4.725-28.627c-3.863-11.444-3.434-14.022-3.434-16.027
		c0-2.006-3.15-8.445-4.58-11.882c-1.43-3.434,0.859-5.865,1.146-11.593c0.283-5.723-5.299-14.023-9.594-25.045
		c-4.294-11.021-3.147-17.175-8.299-26.479c-5.153-9.301-5.583-15.458-8.446-22.329c-2.86-6.87-10.734-15.457-10.734-15.457
		c-0.572-2.718-1-3.577-6.725-5.723c-5.727-2.148-11.022-5.582-29.197-13.453c-18.179-7.876-25.763-11.594-25.763-11.594
		c-1.862-1.862-5.299-4.581-14.169-7.299c-8.875-2.722-50.095,3.719-59.112,7.012c-9.017,3.293-13.31,10.018-13.31,10.018
		c-7.587,4.292-12.883,8.016-23.616,15.886c-10.735,7.875-19.751,13.169-24.762,18.321c-5.006,5.152-5.724,9.304-5.724,9.304
		c-6.153,5.866-13.169,50.236-17.034,69.129c-3.865,18.894-5.724,27.191-2.859,33.775c2.859,6.586,1.288,11.021,1.352,22.328
		c0.065,11.31,0.795,11.162,0.078,26.909c-0.717,15.745,3.723,23.473,3.723,23.473c-1.575,21.897,8.441,34.922,8.441,34.922
		c-0.713,4.58,1.146,8.729,1.146,8.729s-0.472,0.857,0.859,4.58c1.842,5.152,0.717,9.158,2.577,10.735
		c2.897,2.45,4.723,1.073,4.723,1.073s3.353,0.571,12.55-6.669c9.197-7.244,12.521-12.954,12.521-12.954
		c2.516-0.235,4.267,0.516,4.267,0.516c4.869,1.717,29.774,13.451,49.237,14.311c19.464,0.858,44.085-0.283,64.695-10.018
		c20.608-9.733,34.349-13.453,34.349-13.453c4.725-3.009,1.859-6.868-0.858-10.593c-2.724-3.722-2.433-8.157-2.433-13.45
		c0-5.299,1.428-5.582,2.861-12.022c1.431-6.442,0.43-10.882,0.43-10.882c2.001-4.577,4.435-21.321,4.295-24.757
		c-0.147-3.436,1-11.023,1-16.317c0-5.298-2.434-19.751-1-25.62c1.428-5.87,1.142-22.186,1.142-22.186l2.293,0.858
		c0,0,1.717,3.864,4.577,7.729c2.863,3.865,6.586,11.237,6.586,11.237c-0.286,3.792,1.573,10.661,1.573,10.661
		c-2.002,2.434-4.279,9.292-0.561,12.727c3.724,3.435,1.881,3.203,3.994,7.741c3.486,7.489,1.006,9.16,2.576,12.165
		c1.577,3.005,1.718,5.151,2.294,10.449c0.569,5.296,5.294,6.154,3.004,13.167c-1.228,3.766,0.858,8.157,3.147,12.88
		c2.289,4.724,0.289,7.876,0.289,11.165c0,3.293,3.577,5.582,3.577,5.582s0.716,2.864,1.717,4.151
		c1.001,1.288,3.436,1.859-0.287,6.582c-3.719,4.725-0.859,7.588-0.859,7.588s7.024,2.542,14.323,4.151
		c5.64,1.241,11.46,1.493,14.329,1.932c2.004,0.287,3.553-2.221,3.84-4.51c0.287-2.29-1.289-7.297-1.148-9.303
		c0.146-2.006-0.43-3.865-0.43-3.865c1.436-2.004,1.719-7.298,1.006-11.021c-0.717-3.719,0.713-9.301,0-16.17
		c-0.717-6.872,1.432-9.446,2.002-13.741C406.039,311.5,405.18,305.63,402.604,297.043z M182.906,348.783
		c0,4.08-0.645,12.237-2.147,15.672c-1.504,3.436-0.86,9.875-0.86,9.875s-6.441,0.645-4.508-3.649
		c1.932-4.293,4.292-4.722,1.502-12.236c-2.791-7.515-4.079-7.086-3.005-12.881c1.073-5.798,1.932-5.369,1.932-9.446
		c0-4.079-1.074-10.735-0.429-13.74c0.644-3.006,1.073-3.83,0.214-5.565c-0.859-1.734,2.739-7.732,1.236-13.959
		c-1.502-6.226-2.524-6.668-0.485-8.171c2.039-1.502,3.327-5.154,1.932-9.446c-1.395-4.293-3.542-2.575-2.147-8.374
		c1.396-5.795,0.43-10.196,0.43-10.196s2.898-7.084,3.542-7.406c0,0-2.576,17.817,0,32.418c2.576,14.598,1.074,17.818,2.147,22.112
		c1.074,4.294,1.29,24.474,1.932,27.479C184.837,344.274,182.906,344.704,182.906,348.783z"/>
	<path id="neck_x5F_bord" fill="#FF0000" d="M292.254,108.834c-1.862-1.862-5.299-4.581-14.169-7.299
		c-8.875-2.722-50.095,3.719-59.112,7.012c-9.017,3.293-13.31,10.018-13.31,10.018s0.75,17.891,21.683,37.642
		c20.931,19.751,22.328,18.463,23.829,18.571c1.502,0.108,19.001-20.396,22.972-24.796c3.973-4.401,15.994-25.548,17.39-30.164
		C292.934,115.202,292.254,108.834,292.254,108.834z M275.65,132.164c-12.311,20.897-25.334,31.773-25.334,31.773
		s-29.438-18.347-37.066-43.796c-1.972-6.569,1-7.87,3.863-8.3c0,0,35.779-11.593,66.552-5.01
		C283.665,106.831,287.961,111.266,275.65,132.164z"/>
	<path id="r_x5F_arm_x5F_bord" fill="#FF0000" d="M183.907,378.625c0,0-4.007-1.718-8.587,0.858
		c-4.58,2.575-16.746,7.334-20.753,13.685c0,0-1.718,1.56,0,4.564c0,0-1.824,1.378-4.723-1.073
		c-1.861-1.574-0.734-5.582-2.577-10.735c-1.33-3.722-0.859-4.579-0.859-4.579s1.719-6.655,9.949-10.447
		c8.229-3.795,17.245-4.652,18.176-2.936c0.93,1.718,0.43,3.292,0.43,3.292s-1.432,1.574,0.215,2.361
		c1.645,0.787,3.999-0.06,4.722,0.715C180.623,375.107,183.907,377.979,183.907,378.625z"/>
	<path id="l_x5F_arm_x5F_bord" fill="#FF0000" d="M372.689,354.15c1.001,1.288,3.436,1.861-0.287,6.585
		c-3.72,4.723-0.859,7.155-0.859,7.155c2.863-5.867,20.611-0.144,24.906,0.717c4.293,0.857,3.719,5.436,3.719,5.436
		c2.006,0.287,3.58-1.859,3.867-4.149c0.285-2.289-1.289-7.299-1.146-9.301c0.145-2.005-0.43-3.867-0.43-3.867
		s-1.359-4.149-10.088-5.938c-8.732-1.789-11.238-1.574-13.813-0.645S372.689,354.15,372.689,354.15z"/>
	<path id="waist_x5F_bord" fill="#FF0000" d="M184.479,344.561c0,0-1.573,0.144-1.573,4.223c0,4.08-0.645,12.237-2.147,15.672
		c-1.504,3.436-0.86,9.875-0.86,9.875l4.007,4.295c4.866,1.717,29.771,13.453,49.235,14.312
		c19.465,0.859,44.083-0.285,64.694-10.019c20.608-9.732,34.348-13.455,34.348-13.455c4.725-3.005,1.861-6.868-0.858-10.591
		c-2.718-3.719-2.431-8.155-2.431-13.45c0,0-13.026,3.289-20.755,5.436c-7.729,2.146-26.62,7.871-34.493,9.447
		c-7.871,1.573-22.042-0.144-30.772,1.145c-8.73,1.29-17.604-0.285-24.475-1.432c-6.869-1.146-12.021-4.293-17.031-5.296
		C196.36,353.721,185.768,348.854,184.479,344.561z"/>
	<path id="r_x5F_arm_x5F_opening" fill="#730022" d="M154.567,396.873c-1.718-3.005,0-3.706,0-3.706
		c4.006-6.35,16.174-11.108,20.752-13.684c1.55-0.871,2.175-1.253,3.461-1.373c0,0-11.203,11.112-16.951,14.792
		C156.083,396.583,154.567,396.873,154.567,396.873z"/>
	<path id="l_x5F_arm_x5F_opening" fill="#5B0022" d="M371.543,367.462c2.863-5.871,20.609,0.286,24.904,1.146
		c4.293,0.857,3.721,4.577,3.721,4.577c-0.83,0.138-7.568-0.3-14.3-1.716C378.701,369.959,371.543,367.462,371.543,367.462z"/>
	<path id="neck_x5F_opening" fill="#630022" d="M283.665,106.831c0,0,4.294,4.436-8.015,25.333
		c-12.309,20.896-25.334,31.773-25.334,31.773s-29.437-18.344-37.068-43.796c-1.97-6.567,1.001-7.871,3.864-8.3
		C217.112,111.84,252.893,100.246,283.665,106.831z"/>
	<g id="Leafs">
		<path opacity="0.4" fill="#504A56" enable-background="new    " d="M72.809,287.479c-1.298,1.699,3.606,16.048,4.836,16.922
			c0.471-1.582,0.616-3.181,0.436-4.791c6.055,32.135,27.604,70.79,61.026,82.907c11.18,4.055,60.938,6.198,63.543,17.999
			c2.505,11.387,15.259,32.51,23.3,40.975c10.273,10.81,14.144,22.226,30.875,22.604c-0.548-5.411-14.935-15.345-19.004-20.476
			c-3.525-4.443-5.008-12.039-7.753-15.351c2.587-9.227,18.994-30.829,28.971-33.013c13.889-5.94,30.778-5.58,43.882-11.642
			c2.523-4.853,17.643-4.542,22.394-6.485c10.811-4.42,18.507-10.69,26.691-18.728c7.64-7.505,14.149-11.668,20.119-21.117
			c1.345-2.132,14.405-27.181,11.69-26.037c14.149-5.961,10.044-38.742,7.515-49.725c-2.575-11.192-15.323-69.483-25.571-64.377
			c-14.036,7.001-25.755,14.973-40.947,19.93c-13.73,4.481-27.926,6.209-40.593,14.806c-30.901,20.977-49.22,55.926-46.331,93.454
			c1.013,13.174,1.771,23.671,6.902,35.972c4.797,11.49,10.27,22.92,5.256,35.102c-3.235,7.857-23.192,34.855-29.184,31.69
			c0.12,0.507-0.068,0.874-0.568,1.098c-0.085-11.865-15.176-26.706-17.126-39.932c-1.06-7.197,24.686-33.366,25.403-47.612
			c-0.02,0.405,2.04-17.864-0.032-24.68c-3.521-11.578-11.588-25.917-18.743-35.771c-5.814-8.009-41.229-36.195-48.659-30.939
			c0.75-0.541-24.9-12.765-27.065-9.739c-4.336,6.065-23.109-12.616-28.084-5.022c0.351,0.446,0.588,0.953,0.714,1.512
			c-10.011,0.198-18.658-21.268-27.331-18.767c0.991,2.737-2.694,51.575-2.404,51.365c-0.615-0.12-1.043-0.472-1.286-1.057
			c-2.337,2.172,2.152,1.467,1.798,1.477c-1.665,2.65,1.811,3.392-1.808,4.593c-0.052-0.777-0.314-1.474-0.79-2.088
			C74.028,272.575,72.741,285.993,72.809,287.479C71.511,289.179,72.804,287.397,72.809,287.479z M389.053,300.268
			C389.231,298.891,389.069,300.144,389.053,300.268C389.078,300.081,389.053,300.268,389.053,300.268z M372.492,198.737
			c0.042-0.059,0.067-0.122,0.092-0.188C372.562,198.614,372.534,198.679,372.492,198.737z M74.077,285.976
			C75.162,285.979,72.728,285.974,74.077,285.976C74.264,285.975,73.785,285.977,74.077,285.976z"/>
	</g>
	<path opacity="0.4" fill="#DFCE00" enable-background="new    " d="M189.05,64.785c-0.383,0.836-0.768,1.673-1.143,2.512
		c6.923,5.951,14.144,11.512,21.376,17.099c0.299,0.23,0.437,0.491,0.327,0.854c-0.324,1.054-0.63,2.111-0.984,3.151
		c-0.339,1.004-2.45,2.026-3.222,2.731c-1.178,1.066-2.284,2.205-3.429,3.309c-2.125,2.051-2.712,5.613-3.359,8.45
		c-0.158,0.718,0.833,0.684,0.513,1.596c-0.712,2.036-0.665,3.956-0.954,6.072c-0.025,0.177,0.067,0.37,0.103,0.545
		c0.905-0.356,1.7-0.905,2.578-1.327c0.561-0.271,2.417,0.147,2.79,0.641c0.044,0.062,0.072,0.128,0.108,0.19
		c0.992,2.316,0.68,5.117,0.839,7.59c0.193,0.35,0.421,0.686,0.688,0.987c0.343,1.302,0.337,2.824,1.386,3.833
		c1.323-1.035,3.391,4.815,3.988,6.007c1.389-0.838,2.024,1.376,2.694,2.307c0.648,0.908,2.434,2.225,3.372,2.909
		c-0.428-1.849,0.396-3.387,0.967-5.09c0.186-0.547,1.678-2.067,2.14-2.684c0.806-1.042,1.741-1.825,2.475-2.986
		c0.352-0.548,0.727-0.725,1.112-0.373c3.174,2.871,5.619,6.486,7.743,10.178c0.526,0.916,0.892,0.117,1.588,0.448
		c0.868,0.409,1.598,2.394,2.117,3.141c1.152,1.668,3.35,3.273,4.813,4.859c0.105,0.121,0.32,0.261,0.429,0.226
		c0.381-0.354,0.617-0.796,0.701-1.327c0.593-0.905,2.965-3.823,4.266-3.716c1.866,0.148,4.092,2.65,5.478,3.693
		c0.468,0.16,0.943,0.334,1.4,0.522c1.143,0.883,2.215,1.865,3.299,2.816c0.162-1.079,0.605-0.087,0.914-0.23
		c0.006-0.086,0.018-0.175,0.014-0.26c-0.02-1.007,0.891-1.832,1.885-1.625c7.168,1.493,13.094,1.629,20.479,0.602
		c0.002-0.051,0.002-0.094,0.002-0.147c-3.834-0.402-5.082-2.615-7.818-4.818c-0.76-0.616,0.316-0.984,0.877-0.976
		c-0.748-1.093-1.869-1.615-2.605-2.484c0.084-1.637-2.682-2.957-3.939-3.735c1.09-0.913,2.186-1.499,3.414-1.899
		c-0.602-0.674-1.312-2.194-1.955-2.724c-1.812-1.487-3.363-2.851-4.967-4.611c-1.613-1.777-4.744-4.265-5.414-6.638
		c-0.074-0.248-0.047-0.518-0.07-0.784c2.729-0.037,5.357,2.65,7.533,4.043c1.912,1.231,5.078,1.866,7.223,2.738
		c0.879,0.365,0.596-0.983,1.463-0.591c0.215,0.097,0.447,0.181,0.664,0.276c0.359,0.168,0.678,0.257,0.771-0.421
		c1.594,1.14,3.344,2.004,5.164,2.748c0.477,0.19,0.629-0.46,0.975-0.534c0.744-0.152,1.885,0.5,2.6,0.656
		c1.701,0.374,3.883,0.031,5.27,0.246c0.645,0.098,1.281,0.249,1.93,0.381c-0.26-0.548-3.568-5.106-1.707-5.269
		c-0.303-2.656-0.463-5.298-0.365-7.962c0.01-0.175,0.27-0.459,0.455-0.496c3.668-0.729,7.441-0.794,11.074-1.508
		c-0.293-0.368-0.721-0.699-0.838-1.111c-0.264-0.961-0.43-1.963-0.531-2.957c-0.029-0.297,0.186-0.771,0.439-0.933
		c1.322-0.854,2.883-0.893,4.395-1.101c-0.217-0.658-0.279-1.228,0.232-1.523c1.064-0.622,2.199-0.742,3.375-0.977
		c0.484-0.093,0.713-0.751,1.225-0.823c1.035-0.144,2.17-0.029,3.207-0.051c1.672-0.039,3.441,0.106,5.061-0.311
		c0.006-0.069,0.004-0.138,0.012-0.199c-1.943-1.095-3.953-1.878-5.984-2.801c-1.373-0.633-2.762-1.908-4.02-2.367
		c-0.336-0.122-0.666-0.233-0.992-0.364c-0.91-0.349-1.006-0.722-0.258-1.487c-2.092-1.348-4.582-1.58-6.854-2.424
		c-0.141-0.055-0.311-0.313-0.291-0.464c0.111-0.854,0.293-1.703,0.396-2.557c0.156-1.284,1.26-1.544,1.543-2.511
		c-1.098-0.157-2.855-0.831-3.889-0.687c-0.99,0.137-1.977,0.311-2.967,0.473c-1.002,0.165-0.281-0.639-0.666-0.975
		c-0.395-0.344-2.125-0.073-2.604-0.06c-2.107,0.097-4.035,0.399-6.158,0.109c-2.525-0.345-0.943-6.084-0.752-7.764
		c0.135-1.24-0.932-2.876,1.035-4.158c-1.17-0.216-2.828,0.302-4.006,0.461c-0.797,0.107-0.279-0.658-0.906-0.652
		c-1.066-0.008-2.26,0.794-3.213,1.186c-0.572,0.234-1.037-0.099-1.002-0.724c0.006-0.123,0.029-0.247,0.072-0.521
		c-2.289,0.765-4.297,2.064-6.375,3.278c-0.961,0.565-1.908-1.42-1.861-2.12c-0.25,0.196-0.379,0.311-0.531,0.403
		c-0.459,0.29-0.59-0.086-1.014,0.332c-0.855,0.833-1.693,1.561-2.623,2.312c0.449,0.137,0.771,0.414,0.977,0.832
		c-0.086,1.576-13.526,6.149-13.73,4.35c-0.03-0.247,0.017-0.564,0.171-0.753c2.913-3.589,7.567-5.434,11.429-7.548
		c-1.4-0.471-2.234-1.334-2.727-2.526c-0.111-0.716,0.234-1.236,1.041-1.553c2.154-1.19,4.424-2.1,6.365-3.638
		c-0.551-0.405-1.365-0.589-0.594-1.392c0.963-0.998,2.391-1.687,3.549-2.438c0.129-0.34,0.289-0.719,0.584-0.91
		c1.967-1.259,4.131-2.168,6.246-3.156c-1.84-0.377-3.275-0.73-5.082-1.286c-1.211-0.372-3.102,0.497-4.16-0.35
		c-0.199-0.157-0.186-0.574-0.264-0.9c-0.816,0.094-1.852,0.946-2.605,0.823c-0.557-0.094-1.113-0.249-1.668-0.335
		c-1.42-0.2-0.779-1.639-0.635-2.654c-1.471,0.413-2.885,0.816-4.189,1.182c-0.219-0.164-0.354-0.359-0.463-0.341
		c-1.518,0.194-6.077,3.04-6.216,0.532c-0.085-1.557-0.128-3.115-0.188-4.668c-0.042-1.323-3.609,1.178-3.964,1.407
		c-0.13-0.109-0.303-0.325-0.371-0.297c-1.764,0.726-2.797,1.88-4.199,3.136c-0.575,0.513-0.597,0.481-1.048-0.12
		c-1.28,0.303-2.364,0.975-3.237,1.921c-1.909,2.095-3.605,4.416-5.699,6.339c-0.182,0.168-0.458,0.358-0.647-0.002
		c-1.24-2.413-1.846-4.501-4.275-6.062c-0.245-0.163-0.601-0.148-0.907-0.214c-0.019,0.055-0.044,0.11-0.062,0.166
		c-0.608-0.475-1.118-1.007-1.007-1.912c-0.625-0.024-0.931,0.41-1.243,0.76c-0.526,0.602-0.984,1.244-1.492,1.858
		c-0.395,0.485-0.97-0.116-1.263,0.347c-0.654,1.008-1.499,1.915-1.695,3.173c-0.252,1.63-1.484-0.605-2.068,0.573
		c-0.471,0.956-1.374,2.609-1.564,3.614c-0.091,0.479-0.109,0.974-0.154,1.466c-0.558-0.82-0.853-1.644-0.192-2.508
		c-1.517-0.031-2.378,1.105-3.462,1.768c-1.125,0.676-2.277,5.253-2.412,6.249c-0.194,1.48,0.128,2.923,0.363,4.373
		c0.111,0.715,0.127,1.429,1.042,1.866c0.886,0.414,0.988,2.515,0.39,3.322c-0.195,0.264-0.341,0.615-0.377,0.94
		c-0.147,1.18-0.266,1.259-1.228,0.581C202,75.087,195.404,70.112,189.05,64.785C188.676,65.622,190.408,65.918,189.05,64.785z"/>
</g>
</svg>
