<?xml version="1.0" encoding="utf-8"?>
<!-- Generator: Adobe Illustrator 16.0.4, SVG Export Plug-In . SVG Version: 6.00 Build 0)  -->
<!DOCTYPE svg PUBLIC "-//W3C//DTD SVG 1.1//EN" "http://www.w3.org/Graphics/SVG/1.1/DTD/svg11.dtd">
<svg version="1.1" xmlns="http://www.w3.org/2000/svg" xmlns:xlink="http://www.w3.org/1999/xlink" x="0px" y="0px" width="500px"
	 height="500px" viewBox="0 0 500 500" enable-background="new 0 0 500 500" xml:space="preserve">
<g id="Layer_1">
	<path fill-rule="evenodd" clip-rule="evenodd" stroke="#FF0000" stroke-width="5" stroke-miterlimit="1" d="M492,480
		c0,6.627-5.373,12-12,12H19c-6.627,0-12-5.373-12-12V19c0-6.627,5.373-12,12-12h461c6.627,0,12,5.373,12,12V480z"/>
</g>
<g id="Layer_4">
	<g>
		<linearGradient id="SVGID_1_" gradientUnits="userSpaceOnUse" x1="78.3462" y1="353.4492" x2="215.8916" y2="353.4492">
			<stop  offset="0" style="stop-color:#FF1A00"/>
			<stop  offset="0.1446" style="stop-color:#C71400"/>
			<stop  offset="0.317" style="stop-color:#8B0E00"/>
			<stop  offset="0.4833" style="stop-color:#590900"/>
			<stop  offset="0.6389" style="stop-color:#330500"/>
			<stop  offset="0.7814" style="stop-color:#170200"/>
			<stop  offset="0.9063" style="stop-color:#060100"/>
			<stop  offset="1" style="stop-color:#000000"/>
		</linearGradient>
		<polygon fill="url(#SVGID_1_)" points="215.892,242.803 215.892,347.865 78.346,464.095 78.346,358.968 		"/>
		<linearGradient id="SVGID_2_" gradientUnits="userSpaceOnUse" x1="78.3462" y1="227.2031" x2="215.8916" y2="227.2031">
			<stop  offset="0" style="stop-color:#FFFF00"/>
			<stop  offset="0.1446" style="stop-color:#C7C700"/>
			<stop  offset="0.317" style="stop-color:#8B8B00"/>
			<stop  offset="0.4833" style="stop-color:#595900"/>
			<stop  offset="0.6389" style="stop-color:#333300"/>
			<stop  offset="0.7814" style="stop-color:#171700"/>
			<stop  offset="0.9063" style="stop-color:#060600"/>
			<stop  offset="1" style="stop-color:#000000"/>
		</linearGradient>
		<polygon fill="url(#SVGID_2_)" points="215.892,116.557 215.892,221.619 78.346,337.849 78.346,232.722 		"/>
		<linearGradient id="SVGID_3_" gradientUnits="userSpaceOnUse" x1="78.3462" y1="113.4414" x2="215.8916" y2="113.4414">
			<stop  offset="0" style="stop-color:#FF1A00"/>
			<stop  offset="0.1446" style="stop-color:#C71400"/>
			<stop  offset="0.317" style="stop-color:#8B0E00"/>
			<stop  offset="0.4833" style="stop-color:#590900"/>
			<stop  offset="0.6389" style="stop-color:#330500"/>
			<stop  offset="0.7814" style="stop-color:#170200"/>
			<stop  offset="0.9063" style="stop-color:#060100"/>
			<stop  offset="1" style="stop-color:#000000"/>
		</linearGradient>
		<polygon fill="url(#SVGID_3_)" points="176.647,22 215.892,88.653 78.346,204.883 78.346,99.755 		"/>
	</g>
	<linearGradient id="SVGID_4_" gradientUnits="userSpaceOnUse" x1="315.8789" y1="142.2197" x2="182.0953" y2="339.8549">
		<stop  offset="0" style="stop-color:#FF1A00"/>
		<stop  offset="0.0074" style="stop-color:#F61900"/>
		<stop  offset="0.0477" style="stop-color:#C81400"/>
		<stop  offset="0.0931" style="stop-color:#9D1000"/>
		<stop  offset="0.1419" style="stop-color:#770C00"/>
		<stop  offset="0.195" style="stop-color:#570900"/>
		<stop  offset="0.2537" style="stop-color:#3B0600"/>
		<stop  offset="0.32" style="stop-color:#250400"/>
		<stop  offset="0.3974" style="stop-color:#140200"/>
		<stop  offset="0.4931" style="stop-color:#090100"/>
		<stop  offset="0.6274" style="stop-color:#020000"/>
		<stop  offset="1" style="stop-color:#000000"/>
	</linearGradient>
	<path fill="url(#SVGID_4_)" d="M122.333,224.986c0,0,16.486,7.738,27.589,9.084c11.103,1.346,16.273,0.195,16.273,0.195
		s0.326,28.292-0.684,37.262c-1.009,8.974-3.59,16.263-3.814,31.403s2.132,31.514,1.459,48.562
		c-0.673,17.046-1.907,8.411-3.365,48.113c0,0,1.346,2.578,31.85,4.484c30.504,1.908,107.556-0.224,114.845-2.355
		c7.288-2.129,15.363-6.393,15.363-6.393s-0.786-19.625,0-34.093c0.786-14.467,0.505-46.094,1.178-74.692
		s-3.701-60.394-1.346-63.758c0,0,0.729-2.187,2.075-0.954c1.346,1.234,4.71,4.823,10.767,4.374
		c6.056-0.448,16.71-1.346,26.467-17.607c0,0-1.794-23.104-1.794-26.805c0-3.701,1.312-14.003-5.831-29.72
		c-7.852-17.272-10.655-15.589-10.655-15.589s-3.029-3.701-10.207-7.29c-7.177-3.589-14.69-5.159-14.69-5.159
		s-18.169-7.065-21.758-8.523c-3.59-1.458-10.094-3.028-11.776-5.383c-1.682-2.355-6.393-13.234-11.439-13.907
		s-53.384,1.233-58.879,1.233s-6.058,0-7.177,2.691c-1.123,2.692-4.487,10.542-9.084,12.562
		c-4.599,2.019-46.543,19.402-54.282,23.888c-7.738,4.486-15.589,34.207-17.72,43.179
		C123.566,188.761,122.333,224.986,122.333,224.986z"/>
	<g>
		<path fill="#FF0000" d="M122.849,224.666c1.617,0.741,3.243,1.441,4.885,2.128c0.867,0.375,1.752,0.703,2.628,1.057
			c0.879,0.344,1.751,0.708,2.642,1.019l2.661,0.967c0.882,0.338,1.787,0.601,2.683,0.895l2.693,0.863l2.729,0.716
			c0.912,0.225,1.813,0.518,2.741,0.646l2.766,0.492l0.691,0.123l0.687,0.058l1.416,0.117l2.832,0.234
			c0.941,0.058,1.892,0.201,2.827,0.189l2.806,0.001c0.936,0.007,1.872,0.016,2.8-0.093c0.928-0.082,1.874-0.129,2.752-0.301
			l0.609,0.482c0.254,3.456,0.377,6.911,0.522,10.369c0.119,3.458,0.168,6.917,0.196,10.378c-0.022,3.464-0.004,6.926-0.169,10.402
			c-0.102,3.454-0.415,7.047-1.005,10.438c-0.586,3.491-1.266,6.827-1.841,10.216c-0.287,1.688-0.555,3.378-0.752,5.074
			c-0.248,1.692-0.374,3.397-0.542,5.101c-0.198,1.7-0.225,3.415-0.335,5.125c-0.124,1.709-0.099,3.409-0.135,5.15
			c-0.044,1.731-0.015,3.446,0.019,5.161c0.021,1.716,0.054,3.436,0.123,5.161l0.385,10.352c0.136,3.455,0.233,6.911,0.329,10.369
			c0.071,1.728,0.033,3.46,0.055,5.188l0.004,2.594l-0.078,2.595c-0.025,3.462-0.396,6.911-0.613,10.354
			c-0.063,0.861-0.102,1.724-0.186,2.584l-0.315,2.574c-0.197,1.717-0.454,3.43-0.577,5.15c-0.281,3.44-0.658,6.874-0.82,10.322
			c-0.278,6.902-0.53,13.806-0.668,20.709l-0.056-0.25l0-0.002c0.006-0.023-0.006-0.045-0.021-0.048l0.117,0.062l0.23,0.126
			c0.133,0.097,0.363,0.146,0.544,0.221c0.392,0.124,0.748,0.303,1.168,0.386c0.819,0.193,1.622,0.428,2.453,0.588
			c1.672,0.285,3.327,0.646,5.022,0.835c1.689,0.21,3.369,0.482,5.066,0.643l5.088,0.504c3.393,0.334,6.802,0.521,10.202,0.789
			c1.701,0.143,3.397,0.198,5.107,0.291c1.706,0.094,3.411,0.168,5.114,0.21c3.405,0.122,6.816,0.194,10.23,0.244
			c3.412,0.074,6.826,0.064,10.239,0.101c6.828,0.017,13.656-0.016,20.483-0.104c6.828-0.091,13.655-0.212,20.481-0.397L272,403.519
			l10.233-0.387c3.408-0.169,6.82-0.302,10.225-0.524c1.702-0.104,3.406-0.193,5.104-0.338c1.699-0.13,3.4-0.251,5.083-0.455
			c0.842-0.094,1.698-0.163,2.495-0.338l1.196-0.218l1.21-0.419c1.604-0.576,3.247-1.081,4.82-1.715
			c1.555-0.669,3.119-1.309,4.667-2c1.53-0.738,3.086-1.438,4.584-2.225l-0.267,0.462v-0.008c-0.434-3.591-0.676-7.189-0.903-10.792
			c-0.118-1.801-0.156-3.604-0.217-5.408c-0.064-1.804-0.109-3.608-0.138-5.413c-0.042-3.613,0.117-7.234,0.193-10.852l0.396-10.769
			c0.062-1.797,0.148-3.597,0.189-5.392l0.1-5.384l0.2-10.771l0.48-21.584l0.666-21.589c0.278-7.179,0.29-14.361,0.11-21.553
			c-0.198-7.188-0.558-14.375-0.917-21.562c-0.178-3.594-0.356-7.188-0.467-10.786l-0.16-5.398
			c-0.035-0.901-0.039-1.804-0.037-2.715c0.041-0.929-0.026-1.796,0.428-2.875l-0.064,0.128l0.004-0.017
			c0.223-0.543,0.453-1.065,1.085-1.473c0.317-0.199,0.803-0.237,1.147-0.091c0.325,0.131,0.607,0.37,0.773,0.532
			c0.729,0.702,1.466,1.32,2.248,1.902c0.41,0.254,0.812,0.527,1.229,0.77l1.301,0.629l1.373,0.446
			c0.457,0.148,0.945,0.173,1.416,0.268c0.238,0.033,0.474,0.092,0.714,0.105l0.725,0.001c0.485-0.006,0.963,0.02,1.454-0.009
			c1.005-0.081,1.988-0.154,2.97-0.293c0.981-0.125,1.955-0.292,2.913-0.524c0.482-0.1,0.958-0.229,1.428-0.376
			c0.473-0.137,0.946-0.272,1.403-0.456c0.934-0.313,1.824-0.735,2.72-1.143c0.859-0.478,1.746-0.912,2.555-1.479
			c0.843-0.512,1.617-1.125,2.398-1.729c0.778-0.606,1.487-1.301,2.227-1.955c0.678-0.722,1.395-1.407,2.04-2.159
			c0.625-0.771,1.3-1.499,1.884-2.303c0.576-0.809,1.191-1.59,1.737-2.42l1.609-2.514l-0.069,0.296l-0.716-9.583
			c-0.261-3.189-0.408-6.404-0.616-9.605l-0.292-4.806l-0.145-2.403c-0.057-0.817,0.02-1.606,0.021-2.409
			c0.062-1.602,0.032-3.188-0.007-4.773l-0.181-2.372l-0.094-1.186l-0.178-1.176l-0.356-2.353c-0.106-0.787-0.338-1.551-0.501-2.327
			l-0.536-2.32c-0.183-0.772-0.465-1.519-0.692-2.28c-0.504-1.507-0.895-3.053-1.552-4.506l-1.81-4.411
			c-0.682-1.448-1.345-2.912-2.067-4.324c-0.35-0.715-0.711-1.424-1.093-2.122c-0.372-0.704-0.747-1.406-1.151-2.088
			c-0.776-1.387-1.64-2.717-2.569-3.979c-0.476-0.619-0.968-1.231-1.521-1.744c-0.269-0.266-0.562-0.499-0.854-0.677
			c-0.148-0.1-0.292-0.159-0.431-0.211c-0.064-0.019-0.125-0.026-0.179-0.038c-0.025-0.01-0.126,0.028-0.006-0.029l-0.644-0.112
			l-0.005-0.005c-0.354-0.404-0.78-0.812-1.196-1.202c-0.431-0.381-0.864-0.762-1.312-1.125c-0.461-0.35-0.91-0.714-1.379-1.054
			l-1.431-0.985c-0.482-0.321-0.988-0.607-1.48-0.913c-0.492-0.308-0.992-0.601-1.512-0.861l-1.539-0.813
			c-0.463-0.242-1.06-0.465-1.582-0.699l-3.241-1.386c-0.537-0.249-1.086-0.438-1.637-0.611l-1.647-0.547l-1.646-0.548
			c-0.542-0.198-1.117-0.318-1.676-0.479l-1.685-0.454c-0.562-0.163-1.124-0.264-1.686-0.4l-0.11-0.033l-16.931-6.495l-4.233-1.624
			c-1.396-0.555-2.772-1.022-4.223-1.5c-1.436-0.478-2.884-0.963-4.32-1.566c-0.719-0.295-1.435-0.633-2.142-1.03
			c-0.703-0.396-1.414-0.871-2.036-1.611c-1.006-1.382-1.63-2.724-2.397-4.02c-0.74-1.304-1.499-2.586-2.309-3.822
			c-0.814-1.229-1.688-2.411-2.659-3.451c-0.961-1.026-2.076-1.944-3.208-2.238c-0.116-0.029-0.334-0.084-0.363-0.101l-0.566-0.019
			l-1.133-0.038c-0.753-0.021-1.513-0.062-2.262-0.065l-4.473,0.053c-2.968,0.02-6.02,0.136-9.025,0.199l-36.224,1.185l-4.559,0.111
			c-1.5,0.034-3.066-0.019-4.396,0.116c-0.366,0.012-0.603,0.103-0.879,0.154c-0.153,0.02-0.184,0.099-0.287,0.129
			c-0.042,0.021-0.092,0.034-0.133,0.057c-0.029,0.038-0.059,0.073-0.091,0.106c-0.137,0.077-0.273,0.361-0.42,0.577l-0.423,0.932
			c-0.584,1.408-1.226,2.825-1.936,4.202c-1.449,2.736-3.075,5.477-5.674,7.64c-0.324,0.268-0.697,0.499-1.046,0.746
			c-0.381,0.205-0.793,0.435-1.164,0.6l-2.083,0.891l-4.175,1.773l-16.675,7.099c-5.546,2.386-11.093,4.771-16.597,7.235
			c-2.767,1.208-5.496,2.474-8.221,3.743l-2.043,0.952l-1.973,1.013l-1.974,1.011l-0.124,0.063l-0.062,0.032
			c-0.089,0.053,0.051-0.038,0.016-0.013l-0.235,0.158l-0.47,0.316c-0.213,0.209-0.421,0.357-0.654,0.595
			c-1.904,1.926-3.358,4.583-4.673,7.204c-1.296,2.662-2.446,5.422-3.5,8.224c-2.153,5.589-3.991,11.326-5.671,17.104
			c-0.839,2.869-1.66,5.838-2.377,8.662l-0.815,4.457l-0.532,4.446c-0.367,2.961-0.566,5.994-0.858,8.988l-0.661,9.03
			C123.353,212.825,123.013,218.744,122.849,224.666z M121.833,224.969l0.79-18.118l0.448-9.06c0.222-3.024,0.347-6.028,0.65-9.072
			l0.42-4.566l0.68-4.481c0.673-3.055,1.382-5.932,2.147-8.888c1.545-5.863,3.256-11.689,5.31-17.429
			c1.048-2.862,2.199-5.696,3.523-8.477c1.375-2.76,2.791-5.533,5.118-7.957c1.376-1.454,2.752-1.878,4.125-2.631l2.062-1.05
			l2.066-0.956c2.754-1.273,5.51-2.542,8.284-3.744c5.532-2.458,11.091-4.83,16.651-7.204l16.697-7.053l4.171-1.758l2.085-0.886
			c0.319-0.143,0.563-0.29,0.851-0.434c0.264-0.194,0.54-0.355,0.798-0.568c2.085-1.706,3.683-4.25,5.036-6.826
			c0.678-1.306,1.289-2.641,1.865-4.021c0.157-0.354,0.332-0.747,0.52-1.128c0.265-0.415,0.458-0.828,0.926-1.227l0.315-0.289
			c0.117-0.077,0.243-0.139,0.367-0.206c0.243-0.115,0.52-0.288,0.744-0.326c0.46-0.113,0.952-0.239,1.345-0.25
			c1.679-0.158,3.142-0.084,4.659-0.119l4.5-0.098c12.07-0.353,24.153-0.692,36.242-0.938c3.035-0.039,6.022-0.131,9.096-0.126
			l4.589-0.013c0.762,0.011,1.511,0.057,2.267,0.083l1.132,0.047l0.566,0.023c0.34,0.05,0.484,0.108,0.735,0.167
			c1.804,0.518,3.056,1.689,4.144,2.838c1.08,1.177,1.995,2.444,2.839,3.738c0.835,1.298,1.604,2.624,2.345,3.952
			c0.753,1.311,1.432,2.718,2.193,3.784c0.345,0.421,0.893,0.836,1.502,1.176c0.607,0.347,1.256,0.663,1.932,0.946
			c1.347,0.575,2.759,1.07,4.182,1.568c1.412,0.487,2.889,1.013,4.292,1.595l4.205,1.681l16.82,6.727l-0.11-0.033
			c0.579,0.148,1.174,0.266,1.738,0.438l1.713,0.487c0.568,0.172,1.146,0.302,1.706,0.514l1.69,0.589l1.689,0.59
			c0.567,0.189,1.127,0.392,1.654,0.646l3.222,1.432c0.546,0.253,1.054,0.444,1.631,0.749l1.565,0.855
			c0.528,0.274,1.037,0.583,1.538,0.906c0.502,0.32,1.016,0.621,1.507,0.958l1.458,1.034c0.478,0.356,0.938,0.739,1.406,1.107
			c0.46,0.383,0.904,0.784,1.347,1.188c0.436,0.421,0.856,0.829,1.27,1.316l0.006,0.007l-0.644-0.112
			c0.528-0.22,0.705-0.075,0.991-0.032c0.24,0.083,0.462,0.184,0.649,0.307c0.389,0.238,0.726,0.512,1.025,0.807
			c0.622,0.578,1.135,1.221,1.635,1.87c0.969,1.314,1.851,2.678,2.639,4.085c0.412,0.695,0.792,1.405,1.168,2.117
			c0.386,0.707,0.752,1.425,1.106,2.149c0.735,1.439,1.394,2.893,2.076,4.343l1.838,4.477c0.664,1.472,1.063,3.042,1.574,4.572
			c0.231,0.772,0.517,1.529,0.702,2.315l0.547,2.359c0.165,0.79,0.399,1.566,0.509,2.367l0.362,2.396l0.182,1.199l0.096,1.208
			l0.184,2.417c0.04,1.617,0.069,3.232,0.008,4.832c-0.001,0.797-0.077,1.611-0.021,2.392l0.145,2.392l0.291,4.783
			c0.208,3.19,0.354,6.375,0.614,9.57l0.715,9.579l-0.069,0.296l-1.637,2.558c-0.557,0.846-1.185,1.645-1.773,2.47
			c-0.596,0.82-1.287,1.569-1.927,2.356c-0.662,0.77-1.399,1.476-2.096,2.216c-0.761,0.676-1.491,1.389-2.295,2.016
			c-0.808,0.625-1.608,1.257-2.482,1.79c-0.838,0.586-1.759,1.04-2.653,1.534c-0.931,0.425-1.856,0.862-2.828,1.189
			c-0.476,0.19-0.967,0.332-1.458,0.473c-0.489,0.153-0.982,0.286-1.482,0.39c-0.993,0.241-2.001,0.413-3.01,0.542
			c-1.006,0.143-2.025,0.219-3.021,0.299c-0.51,0.031-1.038,0.007-1.557,0.011l-0.78-0.004c-0.259-0.015-0.516-0.076-0.773-0.112
			c-0.512-0.101-1.039-0.133-1.537-0.292l-1.49-0.485l-1.409-0.681c-0.449-0.261-0.881-0.552-1.321-0.828
			c-0.831-0.614-1.631-1.291-2.348-1.982c-0.193-0.188-0.312-0.263-0.447-0.331c-0.125-0.04-0.187-0.034-0.302,0.025
			c-0.232,0.125-0.498,0.552-0.634,0.93l-0.004,0.005l-0.064,0.128c-0.195,0.234-0.384,0.633-0.48,1.053
			c-0.126,0.412-0.206,0.854-0.283,1.29c-0.127,0.883-0.204,1.779-0.241,2.677c-0.07,1.796-0.032,3.596,0.059,5.392
			c0.183,3.593,0.434,7.182,0.683,10.771c0.503,7.178,1.006,14.359,1.349,21.552c0.175,3.597,0.339,7.195,0.432,10.798
			c0.101,3.601,0.124,7.215,0.104,10.815l-0.033,21.579l0.055,10.793c0.012,3.6,0.055,7.193,0.029,10.796l-0.049,10.816
			l-0.023,5.408c-0.016,1.803-0.077,3.599-0.113,5.397l-0.26,10.81l-0.364,10.728c-0.029,3.586-0.148,7.173-0.252,10.765
			c-0.053,3.592-0.196,7.189-0.351,10.788l0.001,0.008l-0.267,0.463c-1.527,0.801-3.088,1.504-4.634,2.248
			c-1.569,0.702-3.168,1.355-4.751,2.034c-1.594,0.642-3.222,1.141-4.83,1.719l-1.211,0.419l-1.322,0.252
			c-0.874,0.188-1.723,0.255-2.577,0.351c-1.709,0.207-3.415,0.329-5.121,0.459c-1.707,0.146-3.413,0.235-5.12,0.34
			c-3.413,0.222-6.827,0.355-10.24,0.524l-10.244,0.387l-10.245,0.305c-6.831,0.186-13.663,0.307-20.495,0.397
			c-6.833,0.088-13.666,0.12-20.5,0.104c-3.417-0.037-6.834-0.026-10.251-0.101c-3.417-0.05-6.834-0.122-10.256-0.245
			c-1.711-0.042-3.419-0.116-5.123-0.21c-1.701-0.093-3.418-0.149-5.122-0.293c-3.409-0.268-6.823-0.455-10.228-0.79l-5.108-0.506
			c-1.703-0.161-3.398-0.436-5.098-0.647c-1.702-0.189-3.389-0.556-5.083-0.845c-0.846-0.163-1.685-0.406-2.528-0.606
			c-0.421-0.083-0.841-0.281-1.261-0.418c-0.213-0.089-0.413-0.121-0.638-0.264l-0.329-0.187l-0.163-0.095
			c-0.092-0.077-0.18-0.174-0.25-0.271l-0.006-0.009l-0.057-0.25c0.522-6.897,0.93-13.796,1.312-20.694
			c0.255-3.446,0.609-6.886,0.887-10.331c0.122-1.727,0.376-3.432,0.571-5.146l0.312-2.569c0.083-0.858,0.121-1.723,0.183-2.583
			c0.214-3.453,0.457-6.891,0.422-10.341l0.021-2.586l-0.062-2.587c-0.06-1.725-0.059-3.448-0.167-5.171
			c-0.094-1.724-0.163-3.446-0.278-5.168l-0.383-5.165l-0.785-10.34c-0.136-1.722-0.236-3.454-0.32-5.191
			c-0.098-1.736-0.191-3.475-0.21-5.197c-0.027-1.714-0.116-3.469-0.056-5.211c0.048-1.74,0.012-3.484,0.148-5.224
			c0.099-1.741,0.192-3.484,0.403-5.218c0.161-1.74,0.392-3.468,0.644-5.192c0.481-3.438,1.179-6.875,1.685-10.206
			c0.528-3.427,0.832-6.727,0.955-10.178c0.156-3.425,0.271-6.872,0.371-10.315l0.323-10.346c0.146-3.451,0.241-6.904,0.427-10.356
			l0.608,0.482c-0.984,0.193-1.933,0.237-2.892,0.322c-0.957,0.111-1.916,0.104-2.875,0.096l-2.876-0.003
			c-0.961,0.01-1.893-0.132-2.84-0.19l-2.832-0.234l-1.416-0.117l-0.728-0.062l-0.707-0.125l-2.829-0.502
			c-0.953-0.134-1.86-0.428-2.786-0.656l-2.767-0.727l-2.718-0.871c-0.904-0.296-1.819-0.562-2.707-0.902l-2.68-0.974
			c-0.898-0.313-1.775-0.679-2.659-1.025c-0.881-0.356-1.771-0.687-2.644-1.063c-1.75-0.731-3.505-1.481-5.227-2.277
			L121.833,224.969z"/>
	</g>
	<linearGradient id="SVGID_5_" gradientUnits="userSpaceOnUse" x1="209.3379" y1="123.3145" x2="275.6465" y2="123.3145">
		<stop  offset="0" style="stop-color:#FF1A00"/>
		<stop  offset="0.1446" style="stop-color:#C71400"/>
		<stop  offset="0.317" style="stop-color:#8B0E00"/>
		<stop  offset="0.4833" style="stop-color:#590900"/>
		<stop  offset="0.6389" style="stop-color:#330500"/>
		<stop  offset="0.7814" style="stop-color:#170200"/>
		<stop  offset="0.9063" style="stop-color:#060100"/>
		<stop  offset="1" style="stop-color:#000000"/>
	</linearGradient>
	<path fill="url(#SVGID_5_)" d="M247.046,146.816c0,0,8.188-17.159,10.879-17.159c2.689,0,7.626-0.001,9.646-2.917
		c2.019-2.916,8.188-19.065,8.074-21.645c-0.113-2.58,0.112-5.496-3.253-5.271c-3.364,0.225-62.021,0.336-62.58,1.458
		c-0.56,1.122-1.121,11.104,1.458,14.58c2.579,3.477,12.786,13.907,14.691,13.907c1.906,0,8.748-1.458,10.767,0.112
		C238.747,131.451,247.046,146.816,247.046,146.816z"/>
	<g id="details">
		<path fill="#FF0000" d="M360.456,201.545c0.3,4.037,0.535,7.065,0.535,7.067c-9.757,16.261-20.411,17.159-26.467,17.607
			c-6.057,0.449-9.421-3.14-10.767-4.374c-0.562-0.515-1.018-0.433-1.356-0.163c0,0-1.406-4.211-0.361-4.098
			c1.045,0.111,6.651,4.822,13.269,4.037c3.31-0.394,10.69-3.604,16.15-8.524C356.918,208.177,360.456,201.545,360.456,201.545z"/>
		<path fill="#FF0000" d="M122.613,217.925c-0.184,4.249-0.28,7.062-0.28,7.062s16.486,7.738,27.589,9.084
			c11.103,1.346,16.273,0.195,16.273,0.195s3.073-1.708,1.222-5.073c0,0-9.084,0.673-23.72-3.701
			C127.534,220.66,122.613,217.925,122.613,217.925z"/>
		<path fill="#FF0000" d="M321.569,384.579c0.102,6.271,0.281,10.764,0.281,10.764s-8.075,4.264-15.363,6.393
			c-7.289,2.132-84.34,4.264-114.845,2.355c-30.504-1.906-31.85-4.484-31.85-4.484c0.183-4.976,0.363-9.189,0.536-12.793
			c0,0,3.95,3.596,21.67,4.494c17.719,0.896,93.063,1.606,110.805-0.449C314.112,388.391,321.569,384.579,321.569,384.579z"/>
		<linearGradient id="SVGID_6_" gradientUnits="userSpaceOnUse" x1="195.939" y1="119.8701" x2="287.7266" y2="119.8701">
			<stop  offset="0" style="stop-color:#FF1A00"/>
			<stop  offset="0.1446" style="stop-color:#C71400"/>
			<stop  offset="0.317" style="stop-color:#8B0E00"/>
			<stop  offset="0.4833" style="stop-color:#590900"/>
			<stop  offset="0.6389" style="stop-color:#330500"/>
			<stop  offset="0.7814" style="stop-color:#170200"/>
			<stop  offset="0.9063" style="stop-color:#060100"/>
			<stop  offset="1" style="stop-color:#000000"/>
		</linearGradient>
		<path fill="url(#SVGID_6_)" d="M257.588,132.909c5.289-1.319,11.889-0.561,14.131,1.009c2.242,1.57,5.16,5.607,5.047,7.851
			s2.355,2.243,4.263,1.121s4.935-8.859,6.28-15.252c1.346-6.393-0.985-15.866-0.985-15.866c-0.901-0.501-1.623-1.041-2.044-1.63
			c-1.682-2.355-6.393-13.234-11.439-13.907s-53.384,1.233-58.879,1.233s-6.058,0-7.177,2.691
			c-1.123,2.692-4.487,10.542-9.084,12.562c-0.365,0.16-0.962,0.416-1.76,0.753c0,0,0.301,10.125,1.423,13.041
			c1.123,2.916,8.298,16.613,11.776,17.111c3.478,0.497,15.813-7.915,17.609-10.158c1.794-2.243,0-5.271-2.244-7.065
			c-2.243-1.794-11.664-10.654-13.959-23.884c0,0,2.072,1.454,5.772,0.781c3.701-0.673,54.731-2.131,56.188-1.458
			c0,0,1.569,7.626-1.122,14.691s-7.852,12.112-10.767,13.122C257.701,130.666,255.802,133.249,257.588,132.909z"/>
		<ellipse id="button" cx="244.863" cy="164.962" rx="1.79" ry="2.321"/>
	</g>
</g>
<g id="Layer_7">
	<g id="Leafs">
		<path opacity="0.4" fill="#504A56" enable-background="new    " d="M383.99,394.418c1.5-1.523-1.563-16.373-2.674-17.396
			c-0.666,1.511-1.011,3.078-1.033,4.698c-1.973-32.641-18.499-73.696-50.135-89.914c-10.584-5.425-59.679-13.8-60.781-25.834
			c-1.055-11.61-11.057-34.168-17.971-43.575c-8.835-12.014-11.242-23.826-27.793-26.301c-0.135,5.438,12.891,17.098,16.283,22.7
			c2.94,4.85,3.456,12.571,5.765,16.201c-3.724,8.83-22.714,28.201-32.887,29.114c-14.524,4.15-31.234,1.673-44.995,6.039
			c-3.114,4.499-18.074,2.293-23.031,3.624c-11.281,3.027-19.702,8.282-28.831,15.229c-8.522,6.485-15.503,9.799-22.612,18.424
			c-1.602,1.946-17.705,25.158-14.865,24.362c-14.787,4.139-14.831,37.175-13.7,48.388c1.15,11.428,6.479,70.858,17.287,67.078
			c14.804-5.182,27.431-11.619,43.125-14.63c14.186-2.724,28.485-2.653,42.132-9.593c33.29-16.931,55.852-49.303,57.697-86.896
			c0.651-13.196,1.215-23.705-2.332-36.555c-3.316-12.002-7.311-24.028-0.807-35.483c4.196-7.388,27.386-31.667,32.932-27.776
			c-0.057-0.518,0.178-0.858,0.702-1.016c-1.407,11.781,11.703,28.399,11.977,41.765c0.146,7.272-28.68,30.002-31.18,44.045
			c0.07-0.398-4.267,17.468-3.065,24.489c2.038,11.929,8.242,27.167,14.103,37.842c4.763,8.676,36.359,41.086,44.391,36.804
			c-0.812,0.443,23.1,15.791,25.627,13.06c5.062-5.472,21.343,15.419,27.231,8.51c-0.292-0.487-0.464-1.021-0.519-1.589
			c9.956,1.058,15.84,23.441,24.758,22.05c-0.639-2.84,9.147-50.831,8.834-50.658c0.595,0.196,0.976,0.599,1.144,1.209
			c2.591-1.861-1.95-1.725-1.599-1.688c1.984-2.422-1.369-3.594,2.37-4.331c-0.045,0.778,0.127,1.502,0.522,2.171
			C380.908,409.051,383.87,395.9,383.99,394.418C385.49,392.895,383.983,394.499,383.99,394.418z M71.853,342.026
			C71.503,343.369,71.82,342.146,71.853,342.026C71.805,342.208,71.853,342.026,71.853,342.026z M75.536,444.832
			c-0.049,0.053-0.082,0.112-0.114,0.175C75.451,444.945,75.486,444.885,75.536,444.832z M382.542,395.75
			C381.467,395.611,383.879,395.922,382.542,395.75C382.356,395.728,382.832,395.786,382.542,395.75z"/>
	</g>
	<path opacity="0.5" fill="#E1929C" enable-background="new    " d="M332.566,157.505c-2.562-0.899-6.244-7.438-5.909-7.017
		c-0.599,0.309-1.139,0.582-1.68,0.853c-0.497,0.257-0.938,0.356-1.087-0.387c-0.037-0.161-0.126-0.319-0.24-0.566
		c-9.256,8.516-22.157,11.597-31.041,20.866c-4.639,4.843-8.928,10.851-11.552,17.043c-1.384,3.266-1.263,6.118-1.486,9.554
		c-0.077,1.258-0.257,5.787-2.222,6.019c-0.851,0.103-2.418-1.25-1.985-2.134c2.134-4.43,2.604-9.145,4.688-13.603
		c2.618-5.615,6.561-11.229,10.656-15.863c4.25-4.813,9.294-8.34,14.742-11.649c4.73-2.873,12.555-5.859,15.961-10.341
		c0.722-0.942,0.662-1.16-0.201-1.896c-0.478-0.408-0.843-0.95-1.272-1.409c-2.725-2.874-7.632-0.358-10.991-0.483
		c-1.382-0.055-4.483,0.818-5.629,0.541c-2.057-0.504-4.361-2.394-5.99-3.679c-3.749-2.955-6.623-6.916-9.841-10.366
		c-1.79-1.918-3.44-4.017-5.386-5.782c-1.593-1.44-3.912-2.54-5.014-4.407c6.63,1.061,15.659,4.698,21.883,1.535
		c-0.147-2.334-3.01-4.006-4.154-5.95c-1.859-3.141-3.135-5.847-5.566-8.623c2.912-0.917,6.055-1.433,8.009-4.033
		c2.229-2.964,0.071-5.352,1.111-8.083c0.308-0.811,2.02-1.301,2.618-1.72c1.585-1.092,2.765-2.667,3.557-4.406
		c0.763-1.653-0.132-3.902-0.673-5.478c1.892,0.824,3.122,2.568,5.024,3.52c2.801,1.396,5.174,2.324,7.805,4.085
		c1.859,1.25,4.257,2.247,6.532,1.681c1.793-0.442,2.898-2.728,4.324-3.07c-0.422,4.174,0.188,7.103,1.239,11.108
		c0.715,2.746,0.943,7.975,3.744,9.545c0.368-1.046-0.501-1.434,0.801-2.143c4.219-2.312,6.271-7.861,7.532-12.441
		c1.1-3.986,5.923-13.658,0.132-16.521c2.412,0.317,3.942,4.125,6.238,5.294c0.669,0.339,5.177-4.115,5.776-4.7
		c2.108-2.019,2.377-4.403,2.978-7.083c1.018,1.552,1.72,3.241,3.781,3.467c5.655,0.636,9.761-3.377,13.461-6.858
		c-0.725,3.451-2.119,6.184-0.97,9.801c0.609,1.921,0.746,3.81,2.203,5.336c0.64,0.673,3.188,0.921,3.387,1.235
		c0.394,0.623-1.331,3.035-1.521,3.661c-0.723,2.395-0.969,4.962-0.34,7.401c0.225,0.877,1.039,1.593,1.393,2.459
		c0.574,1.452,1.708,1.604,3.012,1.582c1.881-0.024,3.6-0.581,5.25-1.449c0.037,0.069,0.084,0.124,0.124,0.192
		c-4.126,3.063-7.09,6.175-9.842,10.522c-2.823,4.46-6.562,8.423-8.689,13.244c3.163,0.825,6.402,1.621,9.659,0.737
		c2.879-0.783,5.002-5.138,7.163-7.122c2.855-2.609,5.474-5.49,8.408-8.005c-0.172,0.734-0.367,1.28-0.404,1.834
		c-0.098,1.47,0.801,2.357,1.995,2.954c2.772,1.401,5.893,1.628,8.939,1.981c2.741,0.316,4.458-1.657,6.588-1.613
		c-0.301,2.117-1.437,3.62-2.984,5.11c-0.993,0.957-1.324,3.19-2.401,3.705c-2.493,1.196-5.869,2.069-7.953,3.92
		c-2.505,2.231-4.007,5.57-6.581,7.712c-2.855,2.382-4.429,4.937-7.291,7.045c-2.481,1.833-4.871,3.597-7.487,5.263
		c-2.733,1.738-2.625,2.663-0.468,4.721c-0.021-0.946,0.199-1.119,0.942-0.723c1.755,0.948,3.186,1.471,5.125,1.875
		c-0.11,0.154-0.153,0.282-0.238,0.321c-1.955,0.797-3.896,1.621-5.833,2.46c-1.206,0.518-4.812,1.952-6.128,1.729
		c0.762,0.459,0.521,0.729,0.026,0.991c-1.371,0.721-1.501,0.824-2.915,0.352c-0.029,0.253-0.065,0.506-0.099,0.785
		c-1.406,0.689-2.731,1.191-4.234,1.622c0.21-0.558,0.397-1.037,0.632-1.661c0.165,0.321,0.258,0.506,0.414,0.793
		c0.499-0.193,1.017-0.385,1.663-0.631c-0.652-0.121-1.064-0.18-1.466-0.282c-0.215-0.468,0.014-0.642,0.673-0.53
		c0.045-0.17,0.106-0.411,0.198-0.736c-0.567,0.167-1.053,0.321-1.732,0.523c-0.13,0.376-0.331,0.932-0.537,1.522
		c-0.248-0.067-0.527-0.15-0.796-0.225c-0.177,0.321-0.158,0.657,0.057,1.015c0.003,0.018-0.327,0.129-0.362,0.079
		c-0.49-0.367-0.741-0.838-0.77-1.391c-0.317,0.161-0.563,0.284-0.793,0.396c-0.358-0.355-0.695-0.674-1.075-1.042
		c-0.671,0.872-1.18,0.332-2.112,0.613c-0.376-0.661-1.331-1.181-2.071-1.013c-0.235,0.056-0.418,0.342-0.616,0.53
		c0.392,0.21,1.311,0.353,1.102,0.75C352.333,164.471,335.204,159.693,332.566,157.505z M346.699,94.654
		c-0.082-0.052-0.173-0.099-0.253-0.152c-0.972,1.486-1.936,2.97-2.906,4.466c0.111,0.064,0.223,0.136,0.324,0.203
		C344.815,97.67,345.756,96.162,346.699,94.654C346.616,94.604,345.756,96.162,346.699,94.654z"/>
</g>
</svg>
