<?xml version="1.0" encoding="utf-8"?>
<!-- Generator: Adobe Illustrator 16.0.4, SVG Export Plug-In . SVG Version: 6.00 Build 0)  -->
<!DOCTYPE svg PUBLIC "-//W3C//DTD SVG 1.1//EN" "http://www.w3.org/Graphics/SVG/1.1/DTD/svg11.dtd">
<svg version="1.1" xmlns="http://www.w3.org/2000/svg" xmlns:xlink="http://www.w3.org/1999/xlink" x="0px" y="0px" width="500px"
	 height="500px" viewBox="0 0 500 500" enable-background="new 0 0 500 500" xml:space="preserve">
<g id="Layer_1">
	<path fill-rule="evenodd" clip-rule="evenodd" stroke="#FF0000" stroke-width="5" d="M492,480c0,6.627-5.373,12-12,12H19
		c-6.627,0-12-5.373-12-12V19c0-6.627,5.373-12,12-12h461c6.627,0,12,5.373,12,12V480z"/>
</g>
<g id="Layer_6">
	<g>
		<linearGradient id="SVGID_1_" gradientUnits="userSpaceOnUse" x1="85.3462" y1="363.4492" x2="222.8916" y2="363.4492">
			<stop  offset="0" style="stop-color:#FF1A00"/>
			<stop  offset="0.1446" style="stop-color:#C71400"/>
			<stop  offset="0.317" style="stop-color:#8B0E00"/>
			<stop  offset="0.4833" style="stop-color:#590900"/>
			<stop  offset="0.6389" style="stop-color:#330500"/>
			<stop  offset="0.7814" style="stop-color:#170200"/>
			<stop  offset="0.9063" style="stop-color:#060100"/>
			<stop  offset="1" style="stop-color:#000000"/>
		</linearGradient>
		<polygon fill="url(#SVGID_1_)" points="222.892,252.803 222.892,357.865 85.346,474.095 85.346,368.968 		"/>
		<linearGradient id="SVGID_2_" gradientUnits="userSpaceOnUse" x1="85.3462" y1="237.2031" x2="222.8916" y2="237.2031">
			<stop  offset="0" style="stop-color:#FFFF00"/>
			<stop  offset="0.1446" style="stop-color:#C7C700"/>
			<stop  offset="0.317" style="stop-color:#8B8B00"/>
			<stop  offset="0.4833" style="stop-color:#595900"/>
			<stop  offset="0.6389" style="stop-color:#333300"/>
			<stop  offset="0.7814" style="stop-color:#171700"/>
			<stop  offset="0.9063" style="stop-color:#060600"/>
			<stop  offset="1" style="stop-color:#000000"/>
		</linearGradient>
		<polygon fill="url(#SVGID_2_)" points="222.892,126.557 222.892,231.619 85.346,347.849 85.346,242.722 		"/>
		<linearGradient id="SVGID_3_" gradientUnits="userSpaceOnUse" x1="85.3462" y1="123.4414" x2="222.8916" y2="123.4414">
			<stop  offset="0" style="stop-color:#FF1A00"/>
			<stop  offset="0.1446" style="stop-color:#C71400"/>
			<stop  offset="0.317" style="stop-color:#8B0E00"/>
			<stop  offset="0.4833" style="stop-color:#590900"/>
			<stop  offset="0.6389" style="stop-color:#330500"/>
			<stop  offset="0.7814" style="stop-color:#170200"/>
			<stop  offset="0.9063" style="stop-color:#060100"/>
			<stop  offset="1" style="stop-color:#000000"/>
		</linearGradient>
		<polygon fill="url(#SVGID_3_)" points="183.647,32 222.892,98.653 85.346,214.883 85.346,109.755 		"/>
	</g>
	<path opacity="0.5" fill="#E1CE9C" enable-background="new    " d="M274.209,183.526c-3.185-0.158-9.507-6.299-8.993-5.936
		c-0.57,0.549-1.088,1.034-1.606,1.521c-0.476,0.455-0.939,0.713-1.354-0.076c-0.093-0.168-0.246-0.316-0.457-0.557
		c-7.592,12.673-21.097,20.439-28.017,33.837c-3.613,6.999-6.445,15.194-7.337,23.043c-0.473,4.137,0.613,7.311,1.506,11.256
		c0.333,1.441,1.637,6.604-0.5,7.52c-0.924,0.398-3.14-0.604-2.946-1.744c0.93-5.7-0.111-11.167,0.753-16.881
		c1.079-7.197,3.65-14.832,6.72-21.415c3.186-6.837,7.692-12.488,12.727-18.03c4.375-4.81,12.191-10.778,14.536-16.962
		c0.498-1.301,0.358-1.526-0.858-2.069c-0.675-0.299-1.264-0.789-1.905-1.164c-4.021-2.328-8.714,2.14-12.537,3.116
		c-1.576,0.398-4.777,2.415-6.163,2.483c-2.483,0.119-5.707-1.243-7.97-2.148c-5.207-2.079-9.762-5.586-14.537-8.399
		c-2.655-1.565-5.212-3.378-7.992-4.72c-2.271-1.091-5.251-1.558-7.114-3.294c7.822-1.014,19.203,0.078,25.16-5.557
		c-0.943-2.582-4.724-3.512-6.659-5.32c-3.14-2.92-5.479-5.542-9.143-7.859c2.975-2.002,6.343-3.63,7.678-7.21
		c1.526-4.08-1.701-6.051-1.437-9.474c0.076-1.015,1.84-2.138,2.374-2.809c1.423-1.757,2.227-3.926,2.541-6.146
		c0.307-2.116-1.447-4.352-2.581-5.948c2.404,0.3,4.371,1.855,6.831,2.292c3.618,0.642,6.6,0.895,10.151,2.003
		c2.51,0.789,5.542,1.114,7.915-0.28c1.874-1.094,2.358-4.039,3.851-4.898c0.914,4.842,2.573,7.937,5.094,12.099
		c1.72,2.855,3.718,8.67,7.396,9.505c0.064-1.299-1.041-1.448,0.188-2.68c3.98-4.009,4.446-10.941,4.341-16.52
		c-0.088-4.856,2.126-17.356-5.352-18.653c2.823-0.447,5.814,3.333,8.792,3.887c0.866,0.159,4.46-6.359,4.941-7.216
		c1.702-2.978,1.21-5.751,0.995-8.97c1.661,1.41,3.015,3.078,5.413,2.646c6.582-1.167,9.87-7.053,12.878-12.206
		c0.333,4.127-0.327,7.67,2.173,11.363c1.325,1.959,2.109,4.043,4.257,5.276c0.945,0.545,3.896-0.024,4.224,0.263
		c0.653,0.571-0.486,3.862-0.492,4.632c-0.016,2.937,0.56,5.912,2.081,8.448c0.545,0.914,1.699,1.449,2.387,2.308
		c1.13,1.445,2.457,1.237,3.919,0.778c2.11-0.654,3.86-1.854,5.432-3.379c0.064,0.065,0.135,0.111,0.202,0.175
		c-3.626,4.825-5.931,9.315-7.581,15.129c-1.695,5.963-4.588,11.673-5.378,17.81c3.836-0.124,7.748-0.306,11.126-2.385
		c2.979-1.841,3.924-7.452,5.696-10.407c2.348-3.889,4.338-8.005,6.805-11.814c0.051,0.884,0.012,1.562,0.156,2.2
		c0.38,1.689,1.688,2.388,3.23,2.663c3.589,0.655,7.182-0.126,10.73-0.744c3.192-0.556,4.469-3.35,6.88-4.011
		c0.367,2.484-0.411,4.556-1.66,6.749c-0.8,1.409-0.429,4.035-1.471,4.973c-2.409,2.176-5.92,4.284-7.65,7.063
		c-2.082,3.346-2.662,7.607-4.846,10.878c-2.427,3.632-3.347,7.033-5.868,10.362c-2.184,2.893-4.289,5.673-6.685,8.419
		c-2.497,2.868-2.067,3.875,1.048,5.473c-0.337-1.058-0.148-1.326,0.82-1.126c2.291,0.483,4.077,0.596,6.4,0.405
		c-0.076,0.21-0.081,0.37-0.166,0.441c-1.935,1.55-3.847,3.123-5.749,4.713c-1.188,0.985-4.771,3.8-6.328,3.986
		c1.01,0.266,0.83,0.648,0.361,1.11c-1.306,1.268-1.419,1.425-3.167,1.365c0.052,0.295,0.096,0.593,0.15,0.917
		c-1.354,1.245-2.681,2.25-4.231,3.235c0.054-0.698,0.103-1.299,0.159-2.079c0.293,0.304,0.46,0.483,0.73,0.753
		c0.498-0.383,1.017-0.772,1.664-1.265c-0.775,0.083-1.26,0.153-1.744,0.172c-0.398-0.455-0.199-0.727,0.58-0.821
		c-0.007-0.209-0.018-0.499-0.021-0.896c-0.581,0.377-1.079,0.711-1.776,1.166c-0.021,0.466-0.063,1.16-0.1,1.893
		c-0.301,0.006-0.644,0.007-0.972,0.011c-0.091,0.422,0.04,0.793,0.403,1.125c0.009,0.019-0.325,0.254-0.383,0.209
		c-0.674-0.249-1.114-0.697-1.328-1.311c-0.304,0.288-0.544,0.507-0.764,0.71c-0.521-0.281-1.008-0.526-1.558-0.815
		c-0.466,1.205-1.217,0.767-2.174,1.394c-0.646-0.619-1.894-0.887-2.671-0.453c-0.245,0.143-0.355,0.525-0.518,0.804
		c0.51,0.107,1.595-0.04,1.491,0.479C298.794,184.794,277.909,185.113,274.209,183.526z M269.203,108.028
		c-0.11-0.031-0.227-0.055-0.336-0.087c-0.6,1.996-1.19,3.991-1.787,5.999c0.148,0.035,0.297,0.078,0.434,0.12
		C268.087,112.054,268.643,110.04,269.203,108.028C269.093,108,268.643,110.04,269.203,108.028z"/>
</g>
<g id="Layer_5">
	<linearGradient id="SVGID_4_" gradientUnits="userSpaceOnUse" x1="310.2451" y1="118.1406" x2="217.5627" y2="464.0364">
		<stop  offset="0" style="stop-color:#FF1A00"/>
		<stop  offset="0.0074" style="stop-color:#F61900"/>
		<stop  offset="0.0477" style="stop-color:#C81400"/>
		<stop  offset="0.0931" style="stop-color:#9D1000"/>
		<stop  offset="0.1419" style="stop-color:#770C00"/>
		<stop  offset="0.195" style="stop-color:#570900"/>
		<stop  offset="0.2537" style="stop-color:#3B0600"/>
		<stop  offset="0.32" style="stop-color:#250400"/>
		<stop  offset="0.3974" style="stop-color:#140200"/>
		<stop  offset="0.4931" style="stop-color:#090100"/>
		<stop  offset="0.6274" style="stop-color:#020000"/>
		<stop  offset="1" style="stop-color:#000000"/>
	</linearGradient>
	<path fill-rule="evenodd" clip-rule="evenodd" fill="url(#SVGID_4_)" d="M341.555,367.419c-4.205,5.332-13.477,7.762-20.236,10.687
		c-27.081,11.718-51.486,21.272-88.942,11.551c-13.677-3.55-34.774-3.869-35.808-19.637c3.885-6.248-2.189-15.278-1.155-23.102
		c0.77-1.925,1.541-3.851,2.311-5.775c-0.283-2.15-3.498-8.359-4.4-11.052c-2.712-8.089-1.872-22.683-6.381-29.377
		c-1.508,13.878-11.281,24.624-13.477,36.963c2.548,1.262,3.702,3.569,3.894,5.878c-1.704,2.475-8.891,23.293-8.27,26.348
		c0.847,4.164,3.055,11.625,2.308,18.464c-0.413,3.781-8.655,9.425,0.913,17.462c4.291,6.728,6.315,22.335,7.549,31.39
		c-9.784,5.109-19.323,7.45-32.961,7.884c0-0.771,0-1.54,0-2.311c-5.48-8.574-3.35-26.974-7.62-37.115
		c-2.556-6.071-8.193-14.584-10.192-21.348c0.385-8.471,0.96-17.687,1.346-26.157c-10.083-44.292,3.117-97.013,16.466-138.313
		c5.908-18.28,8.7-43.3,18.481-57.755c16.336-24.14,65.592-17.776,76.236-47.359c5.688,6.7,5.536,19.178,9.24,27.722
		c1.287,2.97,5.266,11.143,8.086,12.706c3.084,1.709,6.118-0.246,8.086,2.311c1.155,5.005,2.311,10.011,3.465,15.016
		c2.199,3.051,8.419,3.535,10.396,6.931c3.547,6.092,3.465,16.336,7.636,21.771c2.716-17.651,16.296-29.86,21.241-44.874
		c3.601-10.93-6.117-19.186-8.086-25.412c0-5.39,0.609-14.803,0.994-14.803c0,0,8.405,18.094,15.178,22.889
		c8.854,3.08,17.712,6.161,26.567,9.241c8.439,5.088,12.869,13.004,19.637,19.636c0.018,18.555-0.812,40.743-4.621,53.135
		c0.771,13.86,1.54,27.723,2.311,41.583c0.093,8.76-4.184,15.697-2.311,23.103c0.581,2.299,3.773,4.972,3.466,8.085
		c-0.179,1.799-3.402,5.835-3.466,8.086c-0.08,2.854,2.806,10.026,3.466,12.706c0.385,9.624,0.771,19.253,1.155,28.878
		c4.57,2.102,11.725,5.808,13.86,10.396c-10.911,6.719,2.424,38.619-8.085,45.049c0-0.771,0-1.54,0-2.311
		c1.109-1.638,1.128-3.781,1.155-6.931c-7.7-5.076-12.693-8.156-26.567-8.085"/>
</g>
<g id="Layer_4">
	<path fill-rule="evenodd" clip-rule="evenodd" fill="#FF0000" d="M340.296,340.308c0.555-1.387,8.878-0.833,10.82-0.417
		c1.942,0.417,2.22,1.804,0.416,1.11s-6.111,0.682-6.111,0.682c2.135,2.35,1.972,34.529,2.781,37.743
		c11.514,0.277,16.438,2.831,24.138,7.907c-0.027,3.149,0.416,1.387,0,4.022c0,0.771-1.11,5.057-1.11,5.827
		c7.769-7.77-5.917-37.811,4.994-44.529c-2.137-4.588-8.052-6.5-12.623-8.601c-0.384-9.625-1.419-23.808-1.804-33.432
		c-0.659-2.681-4.103-9.631-4.022-12.485c0.063-2.251-2.397-8.051-2.22-9.849c0.308-3.113,2.938-6.023,2.357-8.322
		c-1.873-7.404,2.729-13.991,2.637-22.75c-0.771-13.861-1.589-26.786-2.359-40.646c3.81-12.392,4.458-30.83,4.44-49.384
		c-6.768-6.633-11.258-12.945-19.697-18.034c-8.855-3.08-16.67-6.492-25.525-9.572c-6.772-4.795-13.732-24.138-13.732-24.138
		c-0.385,0-0.223,5.618-0.223,11.007c1.969,6.227,12.979,16.627,9.378,27.557c-4.945,15.014-21.678,25.252-24.394,42.904
		c-4.171-5.435-2.999-12.39-6.546-18.481c-1.978-3.396-8.755-3.616-10.953-6.667c-1.155-5.005-2.869-10.393-4.023-15.397
		c-1.968-2.557-3.887-0.484-6.971-2.193c-2.82-1.563-8.527-11.068-9.815-14.038c-3.704-8.545-1.665-18.824-7.352-25.524
		c-10.644,29.583-56.493,22.469-72.829,46.609c-9.782,14.455-15.37,35.894-21.278,54.174
		c-13.35,41.301-28.565,97.785-18.482,142.077c-0.385,8.471-0.77,16.942-1.155,25.412c1.999,6.764,6.685,15.876,9.241,21.947
		c4.27,10.142,1.451,29.544,6.931,38.118c0,0.771,0,1.539,0,2.31c13.638-0.433,28.334-4.131,38.118-9.24
		c-1.234-9.055-4.95-27.926-9.241-34.653c-1.155-0.385-2.311-0.771-3.465-1.155c-2.781-5.027,3.052-11.234,3.465-15.016
		c0.747-6.84-1.464-12.008-2.311-16.172c-0.621-3.055,7.537-24.092,9.241-26.566c-0.497-5.685-2.131-6.995-5.775-9.241
		c2.195-12.34,11.198-19.62,12.706-33.498c4.509,6.694,3.669,18.596,6.381,26.685c0.902,2.691,5.169,11.819,4.4,13.744
		c-1.035,7.823,4.255,18.374,3.485,25.683c1.034,15.768,18.261,15.816,31.938,19.366c37.456,9.721,61.861,0.167,88.942-11.551
		c6.76-2.926,14.276-3.909,18.481-9.241c-4.205,5.332-12.492,9.781-19.252,12.706c-27.081,11.718-51.486,21.272-88.942,11.551
		c-13.677-3.55-34.774-3.869-35.808-19.637c3.885-6.248-2.189-15.278-1.155-23.102c0.77-1.925,1.541-3.851,2.311-5.775
		c-0.283-2.15-3.498-8.359-4.4-11.052c-2.712-8.089-1.872-22.683-6.381-29.377c-1.508,13.878-11.281,24.624-13.477,36.963
		c2.548,1.262,3.702,3.569,3.894,5.878c-1.704,2.475-8.891,23.293-8.27,26.348c0.847,4.164,3.055,11.625,2.308,18.464
		c-0.413,3.781-8.655,9.425,0.913,17.462c4.291,6.728,6.315,22.335,7.549,31.39c-9.784,5.109-19.323,7.45-32.961,7.884
		c0-0.771,0-1.54,0-2.311c-5.48-8.574-3.35-26.974-7.62-37.115c-2.556-6.071-8.193-14.584-10.192-21.348
		c0.385-8.471,0.96-17.687,1.346-26.157c-10.083-44.292,3.117-97.013,16.466-138.313c5.908-18.28,8.7-43.3,18.481-57.755
		c16.336-24.14,65.592-17.776,76.236-47.359c5.688,6.7,5.536,19.178,9.24,27.722c1.287,2.97,5.266,11.143,8.086,12.706
		c3.084,1.709,6.118-0.246,8.086,2.311c1.155,5.005,2.311,10.011,3.465,15.016c2.199,3.051,8.419,3.535,10.396,6.931
		c3.547,6.092,3.465,16.336,7.636,21.771c2.716-17.651,16.296-29.86,21.241-44.874c3.601-10.93-6.117-19.186-8.086-25.412
		c0-5.39,0.609-14.803,0.994-14.803c0,0,8.405,18.094,15.178,22.889c8.854,3.08,17.712,6.161,26.567,9.241
		c8.439,5.088,12.869,13.004,19.637,19.636c0.018,18.555-0.812,40.743-4.621,53.135c0.771,13.86,1.54,27.723,2.311,41.583
		c0.093,8.76-4.184,15.697-2.311,23.103c0.581,2.299,3.773,4.972,3.466,8.085c-0.179,1.799-3.402,5.835-3.466,8.086
		c-0.08,2.854,2.806,10.026,3.466,12.706c0.385,9.624,0.771,19.253,1.155,28.878c4.57,2.102,11.725,5.808,13.86,10.396
		c-10.911,6.719,2.424,38.619-8.085,45.049c0-0.771,0-1.54,0-2.311c1.109-1.638,1.128-3.781,1.155-6.931
		c-7.7-5.076-12.693-8.156-26.567-8.085c-0.811-3.214-0.945-33.074-3.081-35.424L340.296,340.308z"/>
</g>
<g id="Layer_2">
	<path fill-rule="evenodd" clip-rule="evenodd" fill="#FF0000" d="M289.846,213.597c-3.208,2.138-4.633-5.237-1.713-6.646
		c-2.92,1.41-2.115,9.567,1.511,8.258c4.72-1.704,1.31-7.251,0.403-7.754C290.047,207.454,292.263,211.986,289.846,213.597z"/>
	<path fill-rule="evenodd" clip-rule="evenodd" fill="#FF0000" d="M289,247c-3.208,2.138-4.633-5.237-1.713-6.646
		c-2.92,1.41-2.115,9.567,1.511,8.258c4.72-1.704,1.31-7.251,0.403-7.754C289.201,240.857,291.417,245.389,289,247z"/>
	<path fill-rule="evenodd" clip-rule="evenodd" fill="#FF0000" d="M288,283c-3.208,2.139-4.633-5.236-1.713-6.646
		c-2.92,1.41-2.115,9.566,1.511,8.258c4.72-1.703,1.31-7.251,0.403-7.754C288.201,276.857,290.417,281.389,288,283z"/>
	<path fill-rule="evenodd" clip-rule="evenodd" fill="#FF0000" d="M288,324c-3.208,2.139-4.633-5.236-1.713-6.646
		c-2.92,1.41-2.115,9.566,1.511,8.258c4.72-1.703,1.31-7.251,0.403-7.754C288.201,317.857,290.417,322.389,288,324z"/>
	<path fill-rule="evenodd" clip-rule="evenodd" fill="#FF0000" d="M293,362c-3.208,2.139-4.633-5.236-1.713-6.646
		c-2.92,1.41-2.115,9.566,1.511,8.258c4.72-1.703,1.31-7.251,0.403-7.754C293.201,355.857,295.417,360.389,293,362z"/>
</g>
<g id="Layer_7">
	<g id="Leafs">
		<path opacity="0.4" fill="#504A56" enable-background="new    " d="M66.877,219.345c-2.136-0.081-11.033,12.197-11.039,13.707
			c1.564-0.528,2.954-1.331,4.166-2.406c-22.767,23.473-41.932,63.363-32.567,97.659c3.133,11.473,30.064,53.367,21.923,62.298
			c-7.861,8.61-17.769,31.209-20.05,42.659c-2.911,14.626-10.008,24.37-0.671,38.26c4.105-3.568,3.928-21.05,5.776-27.332
			c1.599-5.442,6.95-11.032,8.074-15.184c9.03-3.206,36.141-2.252,43.676,4.642c12.86,7.924,22.302,21.933,34.809,29.146
			c5.42-0.735,13.882,11.798,18.208,14.561c9.845,6.286,19.405,8.959,30.689,11.014c10.537,1.918,17.692,4.836,28.855,4.267
			c2.516-0.131,30.515-3.897,28.012-5.457c13.029,8.126,37.448-14.125,44.965-22.522c7.66-8.558,47.943-52.576,37.863-58.007
			c-13.812-7.434-27.08-12.413-39.889-21.97c-11.578-8.637-21.172-19.239-35.5-24.635c-34.953-13.159-74.07-7.979-103.069,16.015
			c-10.183,8.421-18.321,15.092-25.415,26.376c-6.624,10.543-12.808,21.604-25.653,24.529c-8.285,1.886-41.85,1.141-42.719-5.578
			c-0.344,0.391-0.753,0.447-1.223,0.167c9.646-6.908,13.073-27.795,22.756-37.013c5.271-5.015,41.495,0.937,53.55-6.688
			c-0.342,0.218,15.773-8.631,20.147-14.254c7.433-9.55,14.498-24.408,18.425-35.935c3.193-9.369,5.811-54.556-2.769-57.598
			c0.875,0.301-3.923-27.705-7.643-27.729c-7.455-0.047-3.012-26.156-12.085-25.843c-0.163,0.543-0.441,1.03-0.824,1.455
			c-5.934-8.065,6.624-27.506-0.419-33.151c-1.666,2.388-43.698,27.53-43.359,27.646c-0.256-0.571-0.217-1.124,0.122-1.66
			c-3.122-0.657,0.042,2.605-0.169,2.32c-3.125,0.167-1.729,3.435-4.795,1.171c0.605-0.491,1.022-1.107,1.25-1.85
			C79.761,211.75,68.053,218.433,66.877,219.345C64.742,219.264,66.942,219.294,66.877,219.345z M238.73,485.128
			C239.957,484.48,238.842,485.07,238.73,485.128C238.897,485.041,238.73,485.128,238.73,485.128z M312.146,413.067
			c0.072,0.001,0.138-0.015,0.207-0.032C312.287,413.054,312.219,413.068,312.146,413.067z M68.838,219.515
			C69.461,220.403,68.063,218.411,68.838,219.515C68.947,219.667,68.669,219.276,68.838,219.515z"/>
	</g>
</g>
</svg>
