<?xml version="1.0" encoding="utf-8"?>
<!-- Generator: Adobe Illustrator 16.0.4, SVG Export Plug-In . SVG Version: 6.00 Build 0)  -->
<!DOCTYPE svg PUBLIC "-//W3C//DTD SVG 1.1//EN" "http://www.w3.org/Graphics/SVG/1.1/DTD/svg11.dtd">
<svg version="1.1" xmlns="http://www.w3.org/2000/svg" xmlns:xlink="http://www.w3.org/1999/xlink" x="0px" y="0px" width="500px"
	 height="500px" viewBox="0 0 500 500" enable-background="new 0 0 500 500" xml:space="preserve">
<g id="Layer_1">
	<path fill-rule="evenodd" clip-rule="evenodd" fill="none" stroke="#000000" d="M76.997,193.032"/>
	<path fill-rule="evenodd" clip-rule="evenodd" stroke="#EE0000" stroke-width="5" d="M492,480c0,6.627-5.373,12-12,12H19
		c-6.627,0-12-5.373-12-12V19c0-6.627,5.373-12,12-12h461c6.627,0,12,5.373,12,12V480z"/>
</g>
<g id="Layer_7">
	<g>
		<linearGradient id="SVGID_1_" gradientUnits="userSpaceOnUse" x1="69.3462" y1="347.4492" x2="206.8916" y2="347.4492">
			<stop  offset="0" style="stop-color:#FF1A00"/>
			<stop  offset="0.1446" style="stop-color:#C71400"/>
			<stop  offset="0.317" style="stop-color:#8B0E00"/>
			<stop  offset="0.4833" style="stop-color:#590900"/>
			<stop  offset="0.6389" style="stop-color:#330500"/>
			<stop  offset="0.7814" style="stop-color:#170200"/>
			<stop  offset="0.9063" style="stop-color:#060100"/>
			<stop  offset="1" style="stop-color:#000000"/>
		</linearGradient>
		<polygon fill="url(#SVGID_1_)" points="206.892,236.803 206.892,341.865 69.346,458.095 69.346,352.968 		"/>
		<linearGradient id="SVGID_2_" gradientUnits="userSpaceOnUse" x1="69.3462" y1="221.2031" x2="206.8916" y2="221.2031">
			<stop  offset="0" style="stop-color:#FFFF00"/>
			<stop  offset="0.1446" style="stop-color:#C7C700"/>
			<stop  offset="0.317" style="stop-color:#8B8B00"/>
			<stop  offset="0.4833" style="stop-color:#595900"/>
			<stop  offset="0.6389" style="stop-color:#333300"/>
			<stop  offset="0.7814" style="stop-color:#171700"/>
			<stop  offset="0.9063" style="stop-color:#060600"/>
			<stop  offset="1" style="stop-color:#000000"/>
		</linearGradient>
		<polygon fill="url(#SVGID_2_)" points="206.892,110.557 206.892,215.619 69.346,331.849 69.346,226.722 		"/>
		<linearGradient id="SVGID_3_" gradientUnits="userSpaceOnUse" x1="69.3462" y1="107.4414" x2="206.8916" y2="107.4414">
			<stop  offset="0" style="stop-color:#FF1A00"/>
			<stop  offset="0.1446" style="stop-color:#C71400"/>
			<stop  offset="0.317" style="stop-color:#8B0E00"/>
			<stop  offset="0.4833" style="stop-color:#590900"/>
			<stop  offset="0.6389" style="stop-color:#330500"/>
			<stop  offset="0.7814" style="stop-color:#170200"/>
			<stop  offset="0.9063" style="stop-color:#060100"/>
			<stop  offset="1" style="stop-color:#000000"/>
		</linearGradient>
		<polygon fill="url(#SVGID_3_)" points="167.647,16 206.892,82.653 69.346,198.883 69.346,93.755 		"/>
	</g>
</g>
<g id="Layer_6">
	<path opacity="0.5" fill="#E1929C" enable-background="new    " d="M191.568,300.452c4.298-1.462,15.889,3.344,15.014,3.133
		c0.469-1.023,0.9-1.938,1.331-2.854c0.392-0.851,0.869-1.436,1.833-0.611c0.211,0.174,0.492,0.29,0.897,0.499
		c3.391-20.758,17.189-38.126,19.312-59.489c1.104-11.157,0.549-23.489-2.391-34.344c-1.546-5.727-4.649-9.354-7.902-14.107
		c-1.197-1.734-5.633-7.88-3.287-10.211c1.014-1.014,4.472-0.851,4.813,0.759c1.764,8.031,6.012,14.719,7.871,22.736
		c2.348,10.087,2.954,21.542,2.349,31.868c-0.625,10.719-3.625,20.563-7.375,30.541c-3.263,8.66-10.475,20.663-10.332,30.077
		c0.024,1.985,0.327,2.21,2.224,2.287c1.047,0.042,2.087,0.381,3.128,0.539c6.546,0.971,10.409-7.405,14.958-10.704
		c1.875-1.355,5.054-5.705,6.849-6.522c3.225-1.459,8.208-1.351,11.678-1.34c7.983,0.018,15.85,2.264,23.646,3.481
		c4.334,0.68,8.67,1.738,13.055,2.052c3.576,0.254,7.766-0.693,11.143,0.625c-9.817,5.446-25.453,9.979-30.378,20.562
		c2.604,2.924,8.094,2.165,11.604,3.543c5.69,2.214,10.161,4.459,16.225,5.601c-2.886,4.213-6.487,8.135-6.375,13.572
		c0.125,6.199,5.428,7.115,6.878,11.784c0.432,1.383-1.314,3.793-1.67,4.962c-0.96,3.073-0.885,6.363-0.133,9.468
		c0.704,2.962,4.199,5,6.537,6.515c-3.337,0.867-6.758-0.159-10.242,0.554c-5.126,1.051-9.203,2.281-14.484,2.68
		c-3.736,0.274-7.919,1.435-10.329,4.527c-1.903,2.431-0.999,6.58-2.522,8.502c-3.754-5.926-7.574-9.149-13.093-13.336
		c-3.775-2.877-9.473-9.521-14.777-8.696c0.598,1.757,2.138,1.369,1.157,3.644c-3.163,7.398-0.141,16.815,2.927,24.144
		c2.667,6.379,6.3,24.083,16.877,21.875c-3.504,2.072-9.445-1.361-13.674-0.531c-1.23,0.245-2.563,10.761-2.75,12.146
		c-0.69,4.833,1.417,8.248,3.392,12.394c-2.939-0.994-5.607-2.491-8.552-0.662c-8.098,4.999-9.359,14.517-10.634,22.916
		c-2.607-5.29-3.593-10.326-8.841-13.898c-2.782-1.898-4.912-4.242-8.403-4.747c-1.536-0.224-5.145,2.077-5.729,1.869
		c-1.162-0.412-1.383-5.364-1.779-6.388c-1.519-3.893-3.844-7.528-7.189-10.088c-1.201-0.922-3.012-1.024-4.372-1.802
		c-2.252-1.315-3.899-0.345-5.592,1.029c-2.449,1.975-4.136,4.48-5.413,7.325c-0.12-0.053-0.239-0.075-0.362-0.127
		c2.268-8.288,2.958-15.437,2.09-23.998c-0.887-8.784-0.056-17.856-2.233-26.393c-5.014,2.178-10.096,4.474-13.471,8.995
		c-2.979,4.001-1.279,11.924-2.075,16.762c-1.065,6.379-1.537,12.872-2.804,19.208c-0.529-1.142-0.835-2.062-1.36-2.829
		c-1.388-2.036-3.484-2.272-5.672-1.827c-5.094,1.02-9.436,3.938-13.808,6.618c-3.934,2.412-4.155,6.779-7.001,8.921
		c-1.788-3.095-1.846-6.243-1.347-9.802c0.32-2.283-1.549-5.567-0.666-7.353c2.049-4.145,5.589-8.778,6.42-13.367
		c0.994-5.52-0.474-11.463,0.7-16.938c1.302-6.082,0.735-11.064,2.327-16.794c1.371-4.974,2.696-9.759,4.421-14.65
		c1.802-5.107,0.706-6.214-4.258-6.694c1.005,1.223,0.894,1.677-0.494,1.924c-3.286,0.562-5.707,1.353-8.68,2.82
		c-0.013-0.317-0.089-0.529-0.016-0.666c1.748-3.07,3.454-6.154,5.137-9.26c1.051-1.927,4.315-7.531,6.278-8.598
		c-1.477,0.183-1.438-0.422-1.058-1.276c1.062-2.365,1.125-2.631,3.472-3.472c-0.222-0.362-0.436-0.733-0.68-1.133
		c1.14-2.358,2.368-4.386,3.901-6.504c0.296,0.951,0.544,1.773,0.88,2.836c-0.548-0.249-0.863-0.4-1.364-0.614
		c-0.458,0.769-0.939,1.556-1.537,2.546c0.982-0.514,1.587-0.861,2.219-1.143c0.765,0.394,0.645,0.858-0.337,1.391
		c0.117,0.272,0.284,0.65,0.499,1.174c0.573-0.805,1.055-1.507,1.74-2.476c-0.22-0.63-0.527-1.567-0.866-2.557
		c0.396-0.167,0.849-0.348,1.281-0.525c-0.101-0.604-0.47-1.03-1.124-1.276c-0.021-0.021,0.298-0.509,0.398-0.479
		c1.021-0.023,1.838,0.339,2.446,1.039c0.251-0.541,0.449-0.957,0.634-1.34c0.838,0.097,1.61,0.167,2.489,0.258
		c-0.016-1.838,1.211-1.651,2.149-2.984c1.176,0.481,2.968,0.181,3.77-0.806c0.25-0.318,0.195-0.883,0.263-1.335
		c-0.732,0.13-2.088,0.889-2.224,0.151C158.37,311.684,185.84,300.296,191.568,300.452z M237.832,397.733
		c0.162-0.016,0.327-0.046,0.49-0.061c-0.256-2.955-0.521-5.905-0.786-8.878c-0.213,0.032-0.433,0.054-0.634,0.073
		C237.197,391.822,237.514,394.777,237.832,397.733C237.992,397.714,237.514,394.777,237.832,397.733z"/>
	<g>
		<g>
			<linearGradient id="SVGID_4_" gradientUnits="userSpaceOnUse" x1="291.4707" y1="139.0527" x2="236.7817" y2="343.155">
				<stop  offset="0" style="stop-color:#FF1A00"/>
				<stop  offset="0.0074" style="stop-color:#F61900"/>
				<stop  offset="0.0477" style="stop-color:#C81400"/>
				<stop  offset="0.0931" style="stop-color:#9D1000"/>
				<stop  offset="0.1419" style="stop-color:#770C00"/>
				<stop  offset="0.195" style="stop-color:#570900"/>
				<stop  offset="0.2537" style="stop-color:#3B0600"/>
				<stop  offset="0.32" style="stop-color:#250400"/>
				<stop  offset="0.3974" style="stop-color:#140200"/>
				<stop  offset="0.4931" style="stop-color:#090100"/>
				<stop  offset="0.6274" style="stop-color:#020000"/>
				<stop  offset="1" style="stop-color:#000000"/>
			</linearGradient>
			<path fill-rule="evenodd" clip-rule="evenodd" fill="url(#SVGID_4_)" d="M223.827,122.907v-0.866
				c-2.194,0.091-3.209,0.106-4.332,0.866c-2.009,0.644-1.935,0.9-3.464,1.733c-0.559,1.495-0.17,0.848-0.867,1.732v0.866
				c2.599-0.577,5.198-1.155,7.796-1.732C223.306,123.727,223.176,123.837,223.827,122.907z M171.852,148.896h-0.866v0.866
				c6.48-0.115,20.587-2.044,25.121,0.867c4.228,1.388,6.052,4.79,6.064,10.395c10.539-2.222,20.19-3.425,29.453-6.93
				c3.838-1.452,6.942-4.134,11.262-5.197c-0.373-10.129-5.615-16.608-9.529-23.389c-3.237-0.886-4.87-2.157-8.663-2.599
				c-0.22,3.022-0.303,3.647-1.732,5.198C218.327,139.682,180.112,138.049,171.852,148.896z M248.082,144.564
				c-0.027-2.524-0.042-4.722,0.866-6.063c0.443-10.687-4.708-13.209-13.86-13.86c3.475,6.644,9.023,13.311,9.528,22.522
				C245.772,146.297,246.927,145.43,248.082,144.564z M178.782,152.36c-1.841-1.243-6.349-0.988-9.529-0.866
				c1.403-13.516,41.377-14.002,51.109-22.522h0.866v-1.733c-5.697,2.322-11.562,1.667-19.058,3.465
				c-12.214,2.93-26.143,5.506-38.982,8.663c-6.063,0.577-12.128,1.155-18.191,1.732c-5.456,1.793-10.16,7.516-12.994,12.127
				c-4.042-0.289-8.085-0.578-12.127-0.866C134.518,162.888,162.483,153.229,178.782,152.36z M249.814,138.5v1.732h0.867
				C250.122,138.738,250.511,139.384,249.814,138.5z M207.368,164.488c-11.064,3.626-20.772,6.687-12.994,20.791
				c19.566,7.698,44.122-8.234,57.173-16.459c1.641-6.181,4.041-23.299,0-29.453c-0.197,2.008-0.17,2.443-0.866,3.464
				C247.234,152.403,218.061,160.984,207.368,164.488z M123.341,288.363c9.968,2.795,21.79,5.293,32.052,7.795
				c6.641,0.578,13.283,1.156,19.924,1.733c54.409,14.093,116.771,39.829,185.379,23.389c21.319-5.109,39.607-5.769,52.842-18.191
				c-1.62-29.271-34.519-26.287-56.307-35.517c-6.436-2.726-11.185-7.735-16.459-11.262c-2.835,12.123-17.96,13.02-26.854,21.657
				c-4.925,0.023-9.387-0.411-12.127-2.599h-1.733c0.31-6.944,3.435-7,6.931-10.396l0.866-0.866c-0.998-0.48-3.604-2.48-4.331-2.599
				c-2.722-0.439-10.493,5.275-12.127,6.931c-5.776-0.278-5.412-2.047-10.396-2.6c-1.549-7.709,1.914-9.724,6.063-13.86
				c-2.128-0.68-3.011-1.231-4.331-2.599c-4.519,0.443-8.279,3.206-10.396,6.064c-7.066-0.044-9.782-1.768-13.86-4.332
				c0.323-6.844,3.313-7.251,6.064-11.261h0.865v-0.867c-1.731-0.289-3.464-0.578-5.197-0.866c-2.546,2.593-5.708,3.794-7.795,6.93
				c-5.901-0.482-8.232-2.903-12.128-5.197c0.165-5.885,2.434-8.164,6.063-10.396c-1.168-2.354-2.812-2.439-4.331-4.331
				c-3.453,1.052-7.42,3.611-8.663,6.93c-5.533-0.782-8.071-3.178-12.127-5.198c-1.068-5.283,0.314-8.773,4.332-11.261
				c-3.129-3.272-15.208-13.152-21.657-12.128c-5.393,0.856-9.469,3.733-15.592,4.332c1.082-6.565,8.765-14.143,12.994-18.191
				v-0.866c-5.801,0.19-10.214,0.645-15.593,0c-0.289-0.289-0.578-0.578-0.866-0.866c-0.166-6.512-3.393-19.022,0-24.255v-1.732
				c5.197-0.289,10.396-0.578,15.593-0.866c-0.408-5.426-2.18-6.287-4.332-9.529c-23.933-0.525-50.663,13.367-77.097,2.599
				c-1.943,1.896-5.51,3.826-7.796,5.198c-0.71,9.816-3.217,25.408-0.866,36.383c0.763,3.561,2.678,11.401,1.732,15.592
				c-1.718,7.614-4.029,17.17-6.064,25.121c-1.798,7.024,0.092,17.629-3.465,23.39v21.656
				C105.199,287.142,116.557,286.46,123.341,288.363z M189.176,164.488c-1.017-0.699-1.448-0.697-3.465-0.866
				C187.11,165.905,185.666,164.557,189.176,164.488z M189.176,186.145h3.465c-5.584-9.808-1.628-14.893,4.332-20.791h1.733v-0.866
				c-3.753,0.289-7.508,0.578-11.262,0.866c0.007,7.013,0.471,14.058,0.867,19.924C188.599,185.566,188.888,185.855,189.176,186.145
				z M229.024,212.999c4.098-0.64,16.876-5.478,19.924-7.796c3.138-2.387,4.757-7.712,7.797-10.396
				c2.014-1.777,4.389-2.186,6.063-4.331c0.288-0.289,0.577-0.578,0.866-0.866c-3.602-2.136-7.914-5.388-10.395-8.663
				c-2.889-0.289-5.776-0.578-8.664-0.866c-0.345-1.779-0.215-1.669-0.866-2.599c-3.076-1.119-8.034,2.94-11.261,4.332
				c-8.668,3.737-17.809,7.019-29.453,6.93c-2.745,5.847-6.965,12.182-12.127,15.592v1.733
				C204.089,199.935,220.803,204.357,229.024,212.999z M247.215,178.348c2.5,1.633,7.092,0.986,9.53,2.599
				c3.046,2.016,5.304,5.712,8.661,7.796c0.29,0.289,0.578,0.578,0.867,0.866c1.309-1.661,1.871-1.979,4.331-2.599v-0.866
				c-6.54-4.316-9.126-8.912-20.79-8.663C248.882,178.138,249.014,178.026,247.215,178.348z M253.28,202.604h-0.866v0.866
				c3.407-0.48,5.959-1.927,8.662-2.599h12.993c2.554-0.864,5.808-3.871,8.663-5.197c-0.914-5.035-3.584-5.52-6.063-8.663h-2.6
				C266.771,192.837,257.801,193.917,253.28,202.604z M277.535,200.004c0.921,2.719,2.158,3.83,4.331,5.198l0.866,0.866
				c0.866-1.155,1.732-2.31,2.598-3.465c0.847-2.146-0.388-2.177-1.731-4.332H281C279.835,199.356,279.479,199.496,277.535,200.004z
				 M222.094,221.661c0.551,5.583,5.216,7.062,9.529,8.663c4.962-7.28,31.523-15.937,43.312-16.459
				c1.364-2.701,2.737-4.485,5.197-6.063v-1.732c-4.214-2.073-8.591-4.077-14.727-4.332c-5.196,1.443-10.396,2.888-15.592,4.332
				c-6.186,2.539-17.878,6.58-23.389,10.395C224.641,217.699,223.924,220.312,222.094,221.661z M276.669,213.864v0.866
				c4.967-0.377,11.375-2.193,14.727,0.867c2.994-1.06,3.709-2.766,6.063-4.332c-0.816-4.381-4.607-7.551-7.797-9.529
				c-4.042,4.042-8.086,8.085-12.127,12.127H276.669z M227.292,212.999h-1.732c0.891,0.699,0.212,0.32,1.732,0.866V212.999z
				 M294.859,217.33c0.867,0.289,1.733,0.578,2.6,0.866c0.577-0.578,1.154-1.155,1.731-1.732c-0.523-2.701-0.147-2.106-1.731-3.465
				C296.339,214.784,295.619,214.974,294.859,217.33z M289.662,228.591h-0.866v0.866c3.465-1.155,6.931-2.31,10.395-3.465
				c5.456,0.271,10.104,0.78,12.129-2.599c0.678-0.538,0.217-0.027,0-0.866c-1.261-3.608-5.808-6.741-9.529-7.797
				C298.777,220.585,293.938,224.072,289.662,228.591z M248.948,225.126c2.974,1.099,16.835-6.945,23.389-7.796
				c-0.559-1.495-0.169-0.848-0.865-1.732c-3.059,2.474-19.481,6.45-24.256,6.93c-0.288,0.288-0.577,0.577-0.866,0.866
				C247.523,224.778,246.879,224.396,248.948,225.126z M248.948,243.317c6.039-1.333,10.046-7.116,15.593-9.528
				c7.558-3.288,16.574-3.014,24.255-6.931c2.111-1.076,3.946-3.861,6.063-5.197c0.56-1.495,0.17-0.848,0.867-1.732
				c-2.919-2.925-6.983-4.476-12.994-4.332c-7.507,2.31-15.016,4.62-22.523,6.93c-7.351,3.195-12.021,9.06-18.191,12.994
				C242.646,241.157,245.819,240.519,248.948,243.317z M315.65,230.323c0.288-0.289,0.577-0.578,0.866-0.866
				c-1.001-2.835-1.839-3.129-4.331-4.331C312.779,228.448,313.386,228.873,315.65,230.323z M304.389,226.858
				c-4.681,3.237-11.848,2.962-17.325,5.198c-11.623,4.744-18.391,7.919-26.854,15.593c0.49,2.744,0.762,2.519,1.733,4.331
				c3.323,0.81,5.07,1.71,9.529,1.733c5.081-5.464,13.931-10.445,21.655-12.994c4.765-1.573,9.348-1.015,12.994-3.465
				c2.775-1.038,4.343-3.186,5.198-6.064c0.698-0.891,0.319-0.213,0.866-1.732c-0.578-0.577-1.156-1.155-1.733-1.732
				C308.432,227.436,306.41,227.147,304.389,226.858z M310.452,240.719c3.688-0.121,12.286-0.306,13.86-0.866
				c2.51-0.859,3.059-1.498,4.331-3.466c1.014-1.528-2.251-4.691-3.465-6.93c-1.732-0.289-3.465-0.578-5.198-0.866
				c-3.121,3.325-6.255,7.196-9.528,10.395V240.719z M268.006,237.253c1.357,1.419,13.724-4.785,16.459-6.064
				c0.289-0.289,0.577-0.577,0.865-0.866c-0.931-0.657-0.8-0.544-2.598-0.866c-5.774,2.021-11.551,4.042-17.326,6.064
				C266.581,236.905,265.937,236.524,268.006,237.253z M308.72,239.853c-0.932-0.657-0.8-0.544-2.599-0.867
				c-5.526,4.297-16.162,2.651-20.791,7.796h-1.731c1.396,1.368,3.087,1.891,4.331,3.465c7.646-0.759,14.272-5.434,19.924-8.662
				C308.413,240.089,308.023,240.736,308.72,239.853z M330.376,244.183v-0.866c0.579-1.133-0.277-2.847-1.732-4.331
				C326.51,242.639,325.775,242.08,330.376,244.183z M287.063,266.706c8.819-0.815,13.03-6.734,19.058-10.396
				c7.059-4.286,15.348-4.692,20.79-10.395c0.68-0.538,0.218-0.028,0-0.866c-2.46-3.192-6.151-3.712-12.128-3.465
				c-3.371,2.447-8.119,2.581-12.127,4.331c-8.457,3.694-14.749,8.695-20.79,14.727
				C282.809,265.863,283.968,262.212,287.063,266.706z M340.771,254.579c0.137-5.902-0.626-8.392-4.331-10.396
				c-1.102,0.955-3.069,1.918-4.331,2.599c0.827,4.404,3.256,6.286,5.197,9.528C339.316,255.668,339.241,255.411,340.771,254.579z
				 M337.307,259.776h0.866c-1.288-2.79-6.815-10.639-9.529-12.127c-2.009,2.684-5.522,5.397-8.663,6.93
				c2.025,3.186,9.703,1.647,10.396,11.261C332.925,264.248,335.644,262.296,337.307,259.776z M318.249,256.311
				c-0.756-2.786,0.47-1.338-1.732-2.598c-2.753,2.237-6.951,2.824-9.529,5.197h-1.732c1.349,1.083,3.83,1.543,5.197,2.599
				C314.757,260.65,315.286,258.325,318.249,256.311z M301.79,274.503c3.929,0.38,6.607,3.157,11.261,1.731
				c5.354-1.64,10.989-7.415,15.593-10.395c-0.791-4.746-3.127-5.403-5.197-8.663c-8.989,1.329-14.997,10.333-21.656,14.727V274.503
				z M416.136,303.955c-0.559-1.495-0.169-0.848-0.866-1.732c-2.775,10.018-13.624,10.63-23.389,13.86
				c-12.913,4.271-28.826,6.07-43.313,9.528c-5.196,0.289-10.396,0.578-15.592,0.866c-15.652,3.607-43.472,1.681-58.04-1.732
				c-8.548-2.002-15.362-1.167-23.389-3.465c-26.405-7.559-52.841-15.738-80.562-22.522c-4.909-0.289-9.818-0.578-14.727-0.866
				c-17.605-4.361-43.55-5.829-55.44-16.459c-0.559,1.495-0.169,0.848-0.866,1.732c-0.166,8.676-1.547,20.545,3.465,24.255
				l77.097,17.325c26.73,6.328,52.708,9.146,78.829,16.459c15.158,4.243,45.352,9.91,64.104,6.064
				c8.373-0.289,16.749-0.578,25.121-0.867c17.685-3.869,35.82-5.203,50.243-11.261c7.596-3.19,15.561-4.957,18.191-12.994
				C419.198,318.916,418.019,306.682,416.136,303.955z"/>
		</g>
	</g>
</g>
<g id="Layer_4">
	<path fill-rule="evenodd" clip-rule="evenodd" fill="#FF0000" d="M410.025,288.781c-2.119-4.107-5.354-6.037-5.431-6.094
		c-12.005-8.946-32.007-9.378-47.231-15.641c-6.438-2.649-10.371-5.674-16.223-8.999c-0.819-4.334-3.018-13.242-6.258-15.211
		c-3.411-2.073-6.906-1.755-8.646-5.188c-2.114-4.171-1.012-8.12-5.188-10.376c-2.882-0.287-5.765-0.576-8.646-0.865
		c-3.455-2.133-4.45-7.938-7.781-10.375c-2.469-1.807-5.119-1.67-7.782-3.458c-2.096-1.407-2.787-5.712-4.322-7.782
		c-2.131-2.871-6.055-3.642-8.647-6.053c-2.822-2.625-2.917-5.243-5.187-8.646c-2.323-3.479-4.423-2.346-8.647-4.323
		c-11.704-5.478-8.825-10.495-27.668-9.511c1.519-5.058,7.865-6.795,9.511-12.105c-0.288-8.646,2.052-25.809-4.407-25.643
		c-1.656-1.325,7.74-1.345,8.094-0.749c1.676,6.71,1.015,15.155,0.35,25.814c-1.645,5.309-10.489,7.412-12.008,12.47
		c18.843-0.983,16.646,4.59,28.35,10.068c4.224,1.977,8.141-0.079,10.462,3.401c2.271,3.403,1.419,8.016,4.241,10.641
		c2.593,2.411,7.464,1.188,9.593,4.058c1.537,2.07,2.885,8.444,4.979,9.852c2.664,1.787,4.656-0.418,7.126,1.388
		c3.332,2.438,3.064,8.798,6.519,10.932c2.881,0.289,7.027,0.021,9.91,0.308c4.176,2.257,2.415,8.635,4.529,12.806
		c1.74,3.433,5.893,0.685,9.305,2.758c3.239,1.969,2.329,11.454,3.147,15.788c5.852,3.325,12.894,5.773,19.333,8.423
		c15.321,6.302,32.95,6.445,44.961,15.562c2.573,1.953,5.788,7.142,6.918,10.376c0,1.441,0,2.883,0,4.322
		C413.279,296.73,412.145,292.887,410.025,288.781z"/>
</g>
<g id="Layer_3">
	<path fill-rule="evenodd" clip-rule="evenodd" fill="#FF0000" d="M251.941,136.69c3.809,0,1.523-2.51,1.523-3.951
		c-1.441-2.018-2.883-4.035-4.324-6.053c-8.48-2.304-17.378-6.029-27.668-6.053c-11.633,12.718-39.24,13.429-58.795,18.158
		c-5.764,0.576-11.529,1.153-17.293,1.729c-5.029,1.759-7.703,8.283-12.105,10.375c-4.497,2.138-6.53-1.532-11.24,0
		c-3.574,1.162-5.916,5.171-9.511,6.917c-1.522,7.619-3.827,21.3-1.729,31.127c1.212,5.681,3.371,16.611,1.729,23.345
		c-2.699,11.072-5.092,24.483-7.781,36.314c-2.572,11.31,2.086,25.849-3.459,34.586c-1.487,1.52,1.675,3.062,3.891,0.864
		c6.08-6.03,0.888-23.276,3.459-34.585c2.69-11.832,5.083-25.243,7.782-36.315c1.641-6.733-0.517-17.664-1.73-23.345
		c-2.098-9.826-1.522-23.508,0-31.127c3.595-1.745,4.208-5.755,7.782-6.917c4.71-1.531,7.326,1.818,11.822-0.32
		c4.402-2.093,6.494-8.296,11.523-10.056c5.763-0.576,14.988-1.152,20.752-1.729c19.556-4.729,47.163-5.439,58.795-18.157
		c10.29,0.023,14,3.748,22.48,6.052c1.441,2.018,1.664,2.816,3.105,4.833C252.08,133.673,251.941,136.69,251.941,136.69z"/>
</g>
<g id="Layer_2">
	<path fill-rule="evenodd" clip-rule="evenodd" fill="#FF0000" d="M417.759,320.77c-5.249,15.783-30.944,16.589-49.257,20.851
		c-60.772,14.142-126.687-3.309-176.387-15.563c-6.051-0.577-12.105-1.152-18.157-1.729c-15.626-3.79-33.56-5.179-48.42-9.511
		c-8.963-2.612-20.978-4.152-24.209-12.105c0-6.052,0-8.646,0-14.698c0,0,61.625,16.766,79.411,16.766
		c17.786,0,80.342,23.917,143.512,23.304c63.169-0.612,92.93-15.528,88.826-29.882l-0.087-0.314
		c4.104,14.353-28.637,27.352-91.807,27.964c-63.17,0.613-125.726-23.305-143.512-23.305c-17.786,0-79.411-16.765-79.411-16.765
		c0,6.052,0,12.105,0,18.157c3.231,7.953,15.247,9.492,24.21,12.105c14.86,4.331,32.793,5.721,48.42,9.511
		c6.052,0.576,12.106,1.152,18.157,1.729c49.699,12.255,115.615,31.434,176.387,17.292c18.312-4.261,48.357-6.697,53.606-22.48
		c1.376-4.136-1.312-20.404-2.594-22.48c-0.499-0.81-1.043-1.378-1.451-2.014c0,0,5.042,16.687,2.521,23.169"/>
	<path fill-rule="evenodd" clip-rule="evenodd" fill="none" stroke="#000000" d="M416.922,320.869"/>
	<path fill-rule="evenodd" clip-rule="evenodd" fill="none" stroke="#000000" d="M415.192,300.983"/>
</g>
<g id="Layer_5">
	<g>
		<g>
			<path fill="none" stroke="#FF0000" d="M223.827,122.907v-0.866c-2.194,0.091-3.209,0.106-4.332,0.866
				c-2.009,0.644-1.935,0.9-3.464,1.733c-0.559,1.495-0.17,0.848-0.867,1.732v0.866c2.599-0.577,5.198-1.155,7.796-1.732
				C223.306,123.727,223.176,123.837,223.827,122.907z M171.852,148.896h-0.866v0.866c6.48-0.115,20.587-2.044,25.121,0.867
				c4.228,1.388,6.052,4.79,6.064,10.395c10.539-2.222,20.19-3.425,29.453-6.93c3.838-1.452,6.942-4.134,11.262-5.197
				c-0.373-10.129-5.615-16.608-9.529-23.389c-3.237-0.886-4.87-2.157-8.663-2.599c-0.22,3.022-0.303,3.647-1.732,5.198
				C218.327,139.682,180.112,138.049,171.852,148.896z M248.082,144.564c-0.027-2.524-0.042-4.722,0.866-6.063
				c0.443-10.687-4.708-13.209-13.86-13.86c3.475,6.644,9.023,13.311,9.528,22.522C245.772,146.297,246.927,145.43,248.082,144.564z
				 M178.782,152.36c-1.841-1.243-6.349-0.988-9.529-0.866c1.403-13.516,41.377-14.002,51.109-22.522h0.866v-1.733
				c-5.697,2.322-11.562,1.667-19.058,3.465c-12.214,2.93-26.143,5.506-38.982,8.663c-6.063,0.577-12.128,1.155-18.191,1.732
				c-5.456,1.793-10.16,7.516-12.994,12.127c-4.042-0.289-8.085-0.578-12.127-0.866C134.518,162.888,162.483,153.229,178.782,152.36
				z M249.814,138.5v1.732h0.867C250.122,138.738,250.511,139.384,249.814,138.5z M207.368,164.488
				c-11.064,3.626-20.772,6.687-12.994,20.791c19.566,7.698,44.122-8.234,57.173-16.459c1.641-6.181,4.041-23.299,0-29.453
				c-0.197,2.008-0.17,2.443-0.866,3.464C247.234,152.403,218.061,160.984,207.368,164.488z M123.341,288.363
				c9.968,2.795,21.79,5.293,32.052,7.795c6.641,0.578,13.283,1.156,19.924,1.733c54.409,14.093,116.771,39.829,185.379,23.389
				c21.319-5.109,39.607-5.769,52.842-18.191c-1.62-29.271-34.519-26.287-56.307-35.517c-6.436-2.726-11.185-7.735-16.459-11.262
				c-2.835,12.123-17.96,13.02-26.854,21.657c-4.925,0.023-9.387-0.411-12.127-2.599h-1.733c0.31-6.944,3.435-7,6.931-10.396
				l0.866-0.866c-0.998-0.48-3.604-2.48-4.331-2.599c-2.722-0.439-10.493,5.275-12.127,6.931c-5.776-0.278-5.412-2.047-10.396-2.6
				c-1.549-7.709,1.914-9.724,6.063-13.86c-2.128-0.68-3.011-1.231-4.331-2.599c-4.519,0.443-8.279,3.206-10.396,6.064
				c-7.066-0.044-9.782-1.768-13.86-4.332c0.323-6.844,3.313-7.251,6.064-11.261h0.865v-0.867c-1.731-0.289-3.464-0.578-5.197-0.866
				c-2.546,2.593-5.708,3.794-7.795,6.93c-5.901-0.482-8.232-2.903-12.128-5.197c0.165-5.885,2.434-8.164,6.063-10.396
				c-1.168-2.354-2.812-2.439-4.331-4.331c-3.453,1.052-7.42,3.611-8.663,6.93c-5.533-0.782-8.071-3.178-12.127-5.198
				c-1.068-5.283,0.314-8.773,4.332-11.261c-3.129-3.272-15.208-13.152-21.657-12.128c-5.393,0.856-9.469,3.733-15.592,4.332
				c1.082-6.565,8.765-14.143,12.994-18.191v-0.866c-5.801,0.19-10.214,0.645-15.593,0c-0.289-0.289-0.578-0.578-0.866-0.866
				c-0.166-6.512-3.393-19.022,0-24.255v-1.732c5.197-0.289,10.396-0.578,15.593-0.866c-0.408-5.426-2.18-6.287-4.332-9.529
				c-23.933-0.525-50.663,13.367-77.097,2.599c-1.943,1.896-5.51,3.826-7.796,5.198c-0.71,9.816-3.217,25.408-0.866,36.383
				c0.763,3.561,2.678,11.401,1.732,15.592c-1.718,7.614-4.029,17.17-6.064,25.121c-1.798,7.024,0.092,17.629-3.465,23.39v21.656
				C105.199,287.142,116.557,286.46,123.341,288.363z M189.176,164.488c-1.017-0.699-1.448-0.697-3.465-0.866
				C187.11,165.905,185.666,164.557,189.176,164.488z M189.176,186.145h3.465c-5.584-9.808-1.628-14.893,4.332-20.791h1.733v-0.866
				c-3.753,0.289-7.508,0.578-11.262,0.866c0.007,7.013,0.471,14.058,0.867,19.924C188.599,185.566,188.888,185.855,189.176,186.145
				z M229.024,212.999c4.098-0.64,16.876-5.478,19.924-7.796c3.138-2.387,4.757-7.712,7.797-10.396
				c2.014-1.777,4.389-2.186,6.063-4.331c0.288-0.289,0.577-0.578,0.866-0.866c-3.602-2.136-7.914-5.388-10.395-8.663
				c-2.889-0.289-5.776-0.578-8.664-0.866c-0.345-1.779-0.215-1.669-0.866-2.599c-3.076-1.119-8.034,2.94-11.261,4.332
				c-8.668,3.737-17.809,7.019-29.453,6.93c-2.745,5.847-6.965,12.182-12.127,15.592v1.733
				C204.089,199.935,220.803,204.357,229.024,212.999z M247.215,178.348c2.5,1.633,7.092,0.986,9.53,2.599
				c3.046,2.016,5.304,5.712,8.661,7.796c0.29,0.289,0.578,0.578,0.867,0.866c1.309-1.661,1.871-1.979,4.331-2.599v-0.866
				c-6.54-4.316-9.126-8.912-20.79-8.663C248.882,178.138,249.014,178.026,247.215,178.348z M253.28,202.604h-0.866v0.866
				c3.407-0.48,5.959-1.927,8.662-2.599h12.993c2.554-0.864,5.808-3.871,8.663-5.197c-0.914-5.035-3.584-5.52-6.063-8.663h-2.6
				C266.771,192.837,257.801,193.917,253.28,202.604z M277.535,200.004c0.921,2.719,2.158,3.83,4.331,5.198l0.866,0.866
				c0.866-1.155,1.732-2.31,2.598-3.465c0.847-2.146-0.388-2.177-1.731-4.332H281C279.835,199.356,279.479,199.496,277.535,200.004z
				 M222.094,221.661c0.551,5.583,5.216,7.062,9.529,8.663c4.962-7.28,31.523-15.937,43.312-16.459
				c1.364-2.701,2.737-4.485,5.197-6.063v-1.732c-4.214-2.073-8.591-4.077-14.727-4.332c-5.196,1.443-10.396,2.888-15.592,4.332
				c-6.186,2.539-17.878,6.58-23.389,10.395C224.641,217.699,223.924,220.312,222.094,221.661z M276.669,213.864v0.866
				c4.967-0.377,11.375-2.193,14.727,0.867c2.994-1.06,3.709-2.766,6.063-4.332c-0.816-4.381-4.607-7.551-7.797-9.529
				c-4.042,4.042-8.086,8.085-12.127,12.127H276.669z M227.292,212.999h-1.732c0.891,0.699,0.212,0.32,1.732,0.866V212.999z
				 M294.859,217.33c0.867,0.289,1.733,0.578,2.6,0.866c0.577-0.578,1.154-1.155,1.731-1.732c-0.523-2.701-0.147-2.106-1.731-3.465
				C296.339,214.784,295.619,214.974,294.859,217.33z M289.662,228.591h-0.866v0.866c3.465-1.155,6.931-2.31,10.395-3.465
				c5.456,0.271,10.104,0.78,12.129-2.599c0.678-0.538,0.217-0.027,0-0.866c-1.261-3.608-5.808-6.741-9.529-7.797
				C298.777,220.585,293.938,224.072,289.662,228.591z M248.948,225.126c2.974,1.099,16.835-6.945,23.389-7.796
				c-0.559-1.495-0.169-0.848-0.865-1.732c-3.059,2.474-19.481,6.45-24.256,6.93c-0.288,0.288-0.577,0.577-0.866,0.866
				C247.523,224.778,246.879,224.396,248.948,225.126z M248.948,243.317c6.039-1.333,10.046-7.116,15.593-9.528
				c7.558-3.288,16.574-3.014,24.255-6.931c2.111-1.076,3.946-3.861,6.063-5.197c0.56-1.495,0.17-0.848,0.867-1.732
				c-2.919-2.925-6.983-4.476-12.994-4.332c-7.507,2.31-15.016,4.62-22.523,6.93c-7.351,3.195-12.021,9.06-18.191,12.994
				C242.646,241.157,245.819,240.519,248.948,243.317z M315.65,230.323c0.288-0.289,0.577-0.578,0.866-0.866
				c-1.001-2.835-1.839-3.129-4.331-4.331C312.779,228.448,313.386,228.873,315.65,230.323z M304.389,226.858
				c-4.681,3.237-11.848,2.962-17.325,5.198c-11.623,4.744-18.391,7.919-26.854,15.593c0.49,2.744,0.762,2.519,1.733,4.331
				c3.323,0.81,5.07,1.71,9.529,1.733c5.081-5.464,13.931-10.445,21.655-12.994c4.765-1.573,9.348-1.015,12.994-3.465
				c2.775-1.038,4.343-3.186,5.198-6.064c0.698-0.891,0.319-0.213,0.866-1.732c-0.578-0.577-1.156-1.155-1.733-1.732
				C308.432,227.436,306.41,227.147,304.389,226.858z M310.452,240.719c3.688-0.121,12.286-0.306,13.86-0.866
				c2.51-0.859,3.059-1.498,4.331-3.466c1.014-1.528-2.251-4.691-3.465-6.93c-1.732-0.289-3.465-0.578-5.198-0.866
				c-3.121,3.325-6.255,7.196-9.528,10.395V240.719z M268.006,237.253c1.357,1.419,13.724-4.785,16.459-6.064
				c0.289-0.289,0.577-0.577,0.865-0.866c-0.931-0.657-0.8-0.544-2.598-0.866c-5.774,2.021-11.551,4.042-17.326,6.064
				C266.581,236.905,265.937,236.524,268.006,237.253z M308.72,239.853c-0.932-0.657-0.8-0.544-2.599-0.867
				c-5.526,4.297-16.162,2.651-20.791,7.796h-1.731c1.396,1.368,3.087,1.891,4.331,3.465c7.646-0.759,14.272-5.434,19.924-8.662
				C308.413,240.089,308.023,240.736,308.72,239.853z M330.376,244.183v-0.866c0.579-1.133-0.277-2.847-1.732-4.331
				C326.51,242.639,325.775,242.08,330.376,244.183z M287.063,266.706c8.819-0.815,13.03-6.734,19.058-10.396
				c7.059-4.286,15.348-4.692,20.79-10.395c0.68-0.538,0.218-0.028,0-0.866c-2.46-3.192-6.151-3.712-12.128-3.465
				c-3.371,2.447-8.119,2.581-12.127,4.331c-8.457,3.694-14.749,8.695-20.79,14.727
				C282.809,265.863,283.968,262.212,287.063,266.706z M340.771,254.579c0.137-5.902-0.626-8.392-4.331-10.396
				c-1.102,0.955-3.069,1.918-4.331,2.599c0.827,4.404,3.256,6.286,5.197,9.528C339.316,255.668,339.241,255.411,340.771,254.579z
				 M337.307,259.776h0.866c-1.288-2.79-6.815-10.639-9.529-12.127c-2.009,2.684-5.522,5.397-8.663,6.93
				c2.025,3.186,9.703,1.647,10.396,11.261C332.925,264.248,335.644,262.296,337.307,259.776z M318.249,256.311
				c-0.756-2.786,0.47-1.338-1.732-2.598c-2.753,2.237-6.951,2.824-9.529,5.197h-1.732c1.349,1.083,3.83,1.543,5.197,2.599
				C314.757,260.65,315.286,258.325,318.249,256.311z M301.79,274.503c3.929,0.38,6.607,3.157,11.261,1.731
				c5.354-1.64,10.989-7.415,15.593-10.395c-0.791-4.746-3.127-5.403-5.197-8.663c-8.989,1.329-14.997,10.333-21.656,14.727V274.503
				z M416.136,303.955c-0.559-1.495-0.169-0.848-0.866-1.732c-2.775,10.018-13.624,10.63-23.389,13.86
				c-12.913,4.271-28.826,6.07-43.313,9.528c-5.196,0.289-10.396,0.578-15.592,0.866c-15.652,3.607-43.472,1.681-58.04-1.732
				c-8.548-2.002-15.362-1.167-23.389-3.465c-26.405-7.559-52.841-15.738-80.562-22.522c-4.909-0.289-9.818-0.578-14.727-0.866
				c-17.605-4.361-43.55-5.829-55.44-16.459c-0.559,1.495-0.169,0.848-0.866,1.732c-0.166,8.676-1.547,20.545,3.465,24.255
				l77.097,17.325c26.73,6.328,52.708,9.146,78.829,16.459c15.158,4.243,45.352,9.91,64.104,6.064
				c8.373-0.289,16.749-0.578,25.121-0.867c17.685-3.869,35.82-5.203,50.243-11.261c7.596-3.19,15.561-4.957,18.191-12.994
				C419.198,318.916,418.019,306.682,416.136,303.955z"/>
		</g>
	</g>
</g>
<g id="Layer_8">
	<g id="Leafs">
		<path opacity="0.4" fill="#504A56" enable-background="new    " d="M300.289,69.925c0.158-2.132-11.791-11.467-13.299-11.527
			c0.471,1.583,1.223,3,2.254,4.25c-22.635-23.6-61.807-44.193-96.419-36.073c-11.578,2.717-54.417,28.118-63.049,19.66
			c-8.321-8.167-30.547-18.884-41.907-21.578c-14.511-3.437-23.992-10.881-38.21-2.052c3.417,4.232,20.894,4.686,27.106,6.759
			c5.381,1.794,10.773,7.344,14.882,8.617c2.878,9.14,0.945,36.198-6.216,43.48c-8.383,12.566-22.724,21.495-30.384,33.733
			c0.539,5.443-12.292,13.447-15.208,17.67c-6.638,9.611-9.654,19.069-12.115,30.272c-2.297,10.461-5.472,17.505-5.306,28.681
			c0.039,2.52,2.793,30.636,4.442,28.192c-8.591,12.727,12.763,37.934,20.884,45.748c8.275,7.965,50.81,49.811,56.601,39.934
			c7.928-13.534,13.384-26.614,23.396-39.069c9.049-11.259,19.992-20.463,25.901-34.587c14.412-34.455,10.649-73.734-12.281-103.581
			c-8.048-10.479-14.421-18.854-25.442-26.351c-10.297-7-21.127-13.58-23.587-26.522c-1.585-8.347,0.371-41.864,7.117-42.489
			c-0.377-0.358-0.419-0.769-0.123-1.229c6.556,9.89,27.305,14.068,36.167,24.078c4.821,5.448-2.435,41.434,4.75,53.756
			c-0.205-0.35,8.057,16.075,13.517,20.649c9.276,7.772,23.87,15.37,35.247,19.711c9.248,3.529,54.311,7.776,57.66-0.688
			c-0.332,0.864,27.828-2.92,27.988-6.636c0.316-7.449,26.248-2.066,26.262-11.144c-0.537-0.183-1.012-0.477-1.424-0.876
			c8.275-5.639,27.25,7.612,33.145,0.778c-2.326-1.751-25.934-44.663-26.061-44.329c0.58-0.235,1.131-0.175,1.654,0.182
			c0.77-3.096-2.605-0.052-2.312-0.253c-0.055-3.13-3.371-1.852-0.998-4.835c0.469,0.622,1.07,1.062,1.803,1.317
			C307.414,83.073,301.158,71.133,300.289,69.925C300.447,67.793,300.338,69.991,300.289,69.925z M28.474,232.067
			C29.077,233.317,28.528,232.181,28.474,232.067C28.555,232.237,28.474,232.067,28.474,232.067z M97.836,308.038
			c-0.003,0.072,0.01,0.139,0.026,0.207C97.845,308.179,97.833,308.11,97.836,308.038z M300.049,71.878
			C299.139,72.469,301.18,71.143,300.049,71.878C299.893,71.981,300.293,71.718,300.049,71.878z"/>
	</g>
</g>
</svg>
