<?xml version="1.0" encoding="utf-8"?>
<!-- Generator: Adobe Illustrator 16.0.4, SVG Export Plug-In . SVG Version: 6.00 Build 0)  -->
<!DOCTYPE svg PUBLIC "-//W3C//DTD SVG 1.1//EN" "http://www.w3.org/Graphics/SVG/1.1/DTD/svg11.dtd">
<svg version="1.1" xmlns="http://www.w3.org/2000/svg" xmlns:xlink="http://www.w3.org/1999/xlink" x="0px" y="0px" width="500px"
	 height="500px" viewBox="0 0 500 500" enable-background="new 0 0 500 500" xml:space="preserve">
<g id="Layer_1">
	<path fill-rule="evenodd" clip-rule="evenodd" stroke="#FF0000" stroke-width="5" stroke-miterlimit="1" d="M492,480
		c0,6.627-5.373,12-12,12H19c-6.627,0-12-5.373-12-12V19c0-6.627,5.373-12,12-12h461c6.627,0,12,5.373,12,12V480z"/>
</g>
<g id="Layer_4">
	<g>
		<linearGradient id="SVGID_1_" gradientUnits="userSpaceOnUse" x1="78.3462" y1="353.4492" x2="215.8916" y2="353.4492">
			<stop  offset="0" style="stop-color:#FF1A00"/>
			<stop  offset="0.1446" style="stop-color:#C71400"/>
			<stop  offset="0.317" style="stop-color:#8B0E00"/>
			<stop  offset="0.4833" style="stop-color:#590900"/>
			<stop  offset="0.6389" style="stop-color:#330500"/>
			<stop  offset="0.7814" style="stop-color:#170200"/>
			<stop  offset="0.9063" style="stop-color:#060100"/>
			<stop  offset="1" style="stop-color:#000000"/>
		</linearGradient>
		<polygon fill="url(#SVGID_1_)" points="215.892,242.803 215.892,347.865 78.346,464.095 78.346,358.968 		"/>
		<linearGradient id="SVGID_2_" gradientUnits="userSpaceOnUse" x1="78.3462" y1="227.2031" x2="215.8916" y2="227.2031">
			<stop  offset="0" style="stop-color:#FFFF00"/>
			<stop  offset="0.1446" style="stop-color:#C7C700"/>
			<stop  offset="0.317" style="stop-color:#8B8B00"/>
			<stop  offset="0.4833" style="stop-color:#595900"/>
			<stop  offset="0.6389" style="stop-color:#333300"/>
			<stop  offset="0.7814" style="stop-color:#171700"/>
			<stop  offset="0.9063" style="stop-color:#060600"/>
			<stop  offset="1" style="stop-color:#000000"/>
		</linearGradient>
		<polygon fill="url(#SVGID_2_)" points="215.892,116.557 215.892,221.619 78.346,337.849 78.346,232.722 		"/>
		<linearGradient id="SVGID_3_" gradientUnits="userSpaceOnUse" x1="78.3462" y1="113.4414" x2="215.8916" y2="113.4414">
			<stop  offset="0" style="stop-color:#FF1A00"/>
			<stop  offset="0.1446" style="stop-color:#C71400"/>
			<stop  offset="0.317" style="stop-color:#8B0E00"/>
			<stop  offset="0.4833" style="stop-color:#590900"/>
			<stop  offset="0.6389" style="stop-color:#330500"/>
			<stop  offset="0.7814" style="stop-color:#170200"/>
			<stop  offset="0.9063" style="stop-color:#060100"/>
			<stop  offset="1" style="stop-color:#000000"/>
		</linearGradient>
		<polygon fill="url(#SVGID_3_)" points="176.647,22 215.892,88.653 78.346,204.883 78.346,99.755 		"/>
	</g>
</g>
<g id="Layer_8">
	<linearGradient id="SVGID_4_" gradientUnits="userSpaceOnUse" x1="128.6528" y1="254.877" x2="362.5654" y2="254.877">
		<stop  offset="0" style="stop-color:#FF1A00"/>
		<stop  offset="0.037" style="stop-color:#E01700"/>
		<stop  offset="0.0989" style="stop-color:#B11200"/>
		<stop  offset="0.1666" style="stop-color:#870E00"/>
		<stop  offset="0.2384" style="stop-color:#620A00"/>
		<stop  offset="0.3155" style="stop-color:#440700"/>
		<stop  offset="0.3995" style="stop-color:#2B0400"/>
		<stop  offset="0.4932" style="stop-color:#180200"/>
		<stop  offset="0.6019" style="stop-color:#0A0100"/>
		<stop  offset="0.7393" style="stop-color:#020000"/>
		<stop  offset="1" style="stop-color:#000000"/>
	</linearGradient>
	<path fill="url(#SVGID_4_)" d="M362.565,268.04c0-42.946-12.936-81.235-12.936-81.235s-2.587-22.766-5.175-30.527
		c0,0-7.761-23.801-20.696-33.115s-41.911-10.866-41.911-10.866l-3.104-1.552c0,0-1.034-2.587-4.139-4.139
		c-3.104-1.553-17.631,4.139-28.996,4.139c-11.363,0-27.403-3.104-31.025-4.139c0,0-4.139,6.209-6.209,6.209
		s-9.831,2.069-15.522,3.622c-5.692,1.552-20.179,4.14-24.319,6.727c-4.139,2.587-19.145,26.388-19.145,28.458
		c0,2.069-8.278,24.028-10.348,47.975s-9.831,72.067-10.348,79.31c-0.518,7.244,4.139,84.856,10.348,92.101
		c0,0,23.762,1.035,32.578-12.418c0,0-5.154,30.01-3.602,31.562c1.552,1.552,25.353,10.348,46.567,11.9
		c21.214,1.552,57.951,2.069,73.473,0c15.523-2.069,39.842-12.418,39.842-12.418s-0.518-20.696,0-23.801
		c0,0,19.145,9.83,23.283,7.243c4.14-2.587,8.797-24.318,8.279-33.632S362.565,310.985,362.565,268.04z M172.155,354.448
		c0,0-2.587-6.209-3.015-7.502c-0.428-1.294,0.428-6.468-1.383-8.279c-1.811-1.811-2.07-3.363-0.776-6.727s-1.035-5.433-1.293-7.502
		c-0.259-2.07,1.811-4.398,2.846-7.244c1.035-2.846-0.259-5.433-1.552-10.349c-1.293-4.915,3.363-8.02,4.111-11.383
		c0.747-3.363-1.523-6.468-1.523-8.537c0-2.07,2.526-3.622,2.526-3.622s0.837,1.293,0.061,4.397c-0.776,3.104-0.776,4.657,0,6.985
		c0.776,2.328,0,11.125,0,11.125C173.19,317.712,172.155,354.448,172.155,354.448z"/>
	<g>
		<path fill="#FF0000" d="M174.265,340.804c0,0-1.851,3.813,6.514,6.229c9.833,2.837,41.829,7.712,50.362,8.375
			c29.838,2.316,83.531-1.034,83.531-1.034s-1.005,1.986,0,2.661c0,0-12.99,1.777-24.286,1.777c-15.781,0-50.794,0.293-65.195-1.26
			c-14.042-1.514-39.841-5.463-45.016-7.561C175.001,347.894,172.979,348.048,174.265,340.804z"/>
		<path fill="#FF0000" d="M319.878,330.647c0,0-5.691,3.881-62.349,2.328c-56.657-1.552-76.319-9.572-80.717-11.642
			c-4.398-2.07-4.139-3.622-4.139-5.434c0,0,12.418,6.834,24.318,8.72c11.9,1.888,41.135,3.992,51.225,4.509
			c10.09,0.518,63.384,1.26,71.662-1.586V330.647z"/>
		<path fill="#FF0000" d="M172.669,289.771c2.538,0.743,3.884,2.587,6.471,3.622c2.587,1.034,18.885,8.312,74.508,9.348
			c55.623,1.035,62.607,1,62.607,1l1.294,2.588c0,0-42.146,0.775-73.202-1.035c-31.058-1.812-58.481-5.433-64.431-8.796
			S172.408,292.1,172.669,289.771z"/>
		<path fill="#FF0000" d="M319.878,279.682l-1.034,2.846c0,0-2.588-1.293-5.434-1.423c-2.846-0.129-67.781-2.717-84.338-3.233
			c-16.558-0.518-32.482-1.63-40.876-2.588c-6.036-0.688-14.172-5.295-14.172-5.295v-2.846c0,0,6.672,3.165,9.651,4.348
			c3.126,1.238,9.178,1.982,28.322,2.759c19.145,0.776,91.584,2.846,98.051,3.622C316.515,278.646,319.878,279.682,319.878,279.682z
			"/>
		<path fill="#FF0000" d="M309.013,253.742c-4.478-0.988-19.662-2.777-29.752-3.295c-10.089-0.517-59.762-1.293-70.627-1.811
			s-12.936,0-12.936,0l-16.557-1.035c0,2.587,2.846,2.587,9.313,3.07c6.467,0.483,3.104-0.741,56.641,1.328
			c53.539,2.069,61.847,4.656,63.917,4.656c2.069,0,10.865,0,10.865,0v-1.552C319.878,255.104,311.781,254.353,309.013,253.742z"/>
		<path fill="#FF0000" d="M177.847,226.474v3.018c0,0,22.077-2.932,26.216-3.19c4.139-0.259,48.81-0.432,55.019-0.432
			s37.513,3.036,43.463,4.071s15.005,2.397,15.005,2.397l-0.518-3.292c0,0-13.97-1.854-22.249-3.292
			c-8.278-1.437-30.786-1.954-50.965-2.213s-32.339-0.259-42.688,0C190.782,223.8,177.847,226.474,177.847,226.474z"/>
		<path fill="#FF0000" d="M319.878,209.119c0,0-2.587-1.617-2.328-2.652c0.259-1.035,0-2.07-3.363-2.329s-21.99-5.017-63.383-5.13
			c0,0-43.205-1.338-52.26,0.214s-20.697,3.622-20.697,3.622v3.104c0,0,23.542-5.174,31.562-5.433
			c8.02-0.259,34.667,0.897,40.23,0.897c5.562,0,37.642,0.94,46.179,2.35c8.537,1.41,20.18,2.445,20.696,3.738
			C317.032,208.795,316.773,209.377,319.878,209.119z"/>
		<path fill="#FF0000" d="M324.018,184.218c0,0-4.915-1.552-6.468-3.104c-1.552-1.552-7.244-2.587-17.333-3.881
			c-10.09-1.293-36.479-2.069-53.812-2.328c-17.333-0.259-49.673,0.776-58.21,1.811c-8.538,1.035-11.125,2.156-11.125,2.156v2.242
			c0,0,32.08-3.622,47.861-3.104c15.781,0.518,41.393,0.776,48.637,0.776s31.391,1.466,42.429,4.571
			c2.227,0.626,2.857,2.822,7.243,3.449L324.018,184.218z"/>
		<path fill="#FF0000" d="M159.22,168.695c0,0,9.313-6.209,11.383-8.02s5.433-4.156,8.538-4.846
			c2.538-0.564,46.568-0.846,67.265-0.587c20.696,0.259,66.229,1.552,68.558,2.587c2.328,1.035,10.607,3.104,10.607,3.104
			l0.775-2.846c0,0-8.02-2.458-9.831-3.04c-1.811-0.582-35.96-2.134-72.697-2.393s-62.829-0.714-65.971,0
			c-3.794,0.863-16.816,9.831-18.627,12.418S159.22,168.695,159.22,168.695z"/>
		<path fill="#FF0000" d="M328.488,135.063c0,0-0.418-1.379-6.023-2.328c-3.47-0.587-14.41,0.162-24.577,0.517
			c-10.002,0.35-38.305-1.293-52.776-1.293c-14.473,0-38.375,0.302-47.947,0.173s-27.079-0.949-30.959,1.638
			c-3.881,2.587-5.26,6.037-7.329,8.365c-2.07,2.328-7.92,6.588-7.92,6.588l-1.349,2.808c0,0,12.027-5.429,15.178-13.655
			c0,0,2.645-4.191,19.529-3.848c16.989,0.345,49.125,0.259,60.781,0.259c11.659,0,38.96,2.186,53.569,1.293
			c14.591-0.891,19.921-0.259,23.543,0.518c3.621,0.776,4.866,1.022,5.433,2.244c0,0,3.968,5.862,5.778,7.415
			c1.811,1.552,8.863,5.067,8.863,5.067l-1.173-3.363C341.108,147.461,331.015,141.456,328.488,135.063z"/>
		<path fill="#FF0000" d="M314.187,119.282c0,0-4.14-1.293-6.727-1.293s-31.649,0.345-37.341-2.242l-2.241,0.517
			c0,0,22.767,4.312,32.08,3.794S314.187,119.282,314.187,119.282z"/>
		<path fill="#FF0000" d="M218.206,115.747c0,0-8.624,3.938-12.16,4.383c-3.535,0.446-25.871,0-25.871,0s25.095-0.518,27.165-1.588
			c2.069-1.07,7.934-3.312,7.934-3.312L218.206,115.747z"/>
		<path fill="#FF0000" d="M247.958,381.612c-14.486-0.592-56.399-6.209-65.971-10.089c-9.572-3.881-11.268-6.02-11.268-6.02
			l-0.57,3.614c0,0,9.25,11.891,77.809,15.341c26.115,1.313,45.62-0.999,52-2.173c6.17-1.139,27.718-6.367,27.718-6.367l-0.006-3.62
			C327.67,372.299,300.82,383.77,247.958,381.612z"/>
		<path fill="#FF0000" d="M319.273,343.237c0,0,3.968-0.689,8.971,1.897c5,2.587,10.691,4.14,14.487,4.485
			c3.794,0.344,13.107,6.553,13.625,8.796c0,0,1.378-1.898,1.206-3.104c-0.172-1.209-4.656-4.829-13.278-8.107
			c-8.625-3.275-20.699-7.417-24.406-6.554L319.273,343.237z"/>
		<path fill="#FF0000" d="M323.413,322.611c0,0,8.731,0.267,12.936,1.716c4.204,1.451,8.28,2.302,12.592,3.923
			s9.657,6.536,10.175,6.365c0.518-0.172,1.206-1.484,0-2.864c-1.207-1.379-3.448-3.588-7.588-5.053
			c-3.668-1.3-7.072-2.086-11.383-3.812c-4.313-1.724-16.56-3.622-16.731-1.206"/>
		<path fill="#FF0000" d="M317.204,301.5c0,0,4.873-0.087,6.555-0.216c1.682-0.13,6.688-1.268,21.386-0.13
			c5.003,0.389,9.102,3.161,10.307,4.269c1.301,1.197,5.907,2.804,5.907,3.493c0,0.691,0,2.243,0,2.243s-5.493-2.306-7.935-3.796
			c-1.981-1.206-4.958-4.139-15.178-4.311c-14.144-0.239-18.973,0.986-18.973,0.986S317.032,302.879,317.204,301.5z"/>
		<path fill="#FF0000" d="M320.826,279.423c0,0,9.467,0.932,20.773,1.104c0,0,12.58,0.469,15.662,2.001s4.786,5.348,4.786,5.348
			l-0.346,2.242c0,0-1.724-2.371-4.44-4.485c-2.719-2.114-8.928-2.704-13.2-2.834c-8.966-0.274-13.059,0.421-18.405-0.097
			C320.309,282.184,319.619,282.527,320.826,279.423z"/>
		<path fill="#FF0000" d="M362.29,262.177v-2.588c0,0-8.347-1.724-17.317-1.897c-8.968-0.172-12.634-0.863-15.91-1.035
			c-3.278-0.172-4.01-0.775-5.174-0.259c-0.518,0.863-0.647,2.157,0.733,2.329c1.38,0.174,14.237,1.206,18.243,1.38
			C346.871,260.278,359.531,261.313,362.29,262.177z"/>
		<path fill="#FF0000" d="M324.146,233.502c0,0,13.239,0.907,15.309,1.079c2.07,0.172,13.971,1.726,16.558,2.069
			c2.587,0.346,4.482,1.034,4.482,1.034l0.174,2.589c0,0-4.656-1.45-9.313-1.794c0,0-2.933-0.621-9.659-1.312
			c-6.726-0.689-17.808-1.855-17.808-1.855L324.146,233.502z"/>
		<path fill="#FF0000" d="M334.971,219.102c1.336-0.056,20.654,0.516,22.55,0.516c0,0,0.346-3.276-0.689-3.276
			s-19.381-0.202-20.309-0.171s-2.587,0.171-4.14,0.344c-1.552,0.173-10.952,0.862-10.952,0.862s0.087,1.898-0.259,2.415
			C320.828,220.31,333.635,219.158,334.971,219.102z"/>
		<path fill="#FF0000" d="M352.045,194.395c0,0-2.555-0.436-5.778,0.077c-4.198,0.667-9.629,2.683-13.021,3.424
			c-5.355,1.169-10.693,2.536-10.693,2.536l0.171-2.76c0,0,6.294-1.64,10.09-2.847c2.092-0.666,7.605-2.372,12.055-3.211
			c3.62-0.683,6.591-0.323,6.591-0.323S352.734,193.877,352.045,194.395z"/>
		<path fill="#FF0000" d="M346.924,166.851l-0.555-2.76c0,0-5.223,1.85-6.449,2.568c-2.228,1.303-4.6,2.01-6.882,3.277
			c-2.284,1.268-5.722,3.48-5.722,3.48l-0.582,2.781c0,0,6.785-3.241,8.959-4.104c2.006-0.795,2.681-1.392,5.725-2.819
			C343.653,168.228,346.924,166.851,346.924,166.851z"/>
		<path fill="#FF0000" d="M147.061,335.08c-4.919,1.017-14.488,4.363-14.488,5.398c0,1.034-0.776,2.587,1.552,1.552
			c2.329-1.035,7.244-2.504,10.09-3.452c2.846-0.945,14.648-3.214,17.248-3.274c2.638-0.061,4.944,0.518,4.944,0.518
			s1.351-2.371-1.236-2.479C162.583,333.234,154.046,333.635,147.061,335.08z"/>
		<path fill="#FF0000" d="M131.279,317.194c0,0,4.398-2.587,9.831-3.363c5.433-0.776,17.592-1.293,20.697,0
			c3.104,1.294,6.262,1.035,6.693,1.64c0.432,0.604-0.086,2.846-1.121,2.5c-1.035-0.346-7.987-2.864-11.609-2.864
			c-3.622,0-13.884,0.105-18.023,1.829c-4.139,1.725-6.295,2.502-6.295,2.069C131.452,318.575,131.279,317.194,131.279,317.194z"/>
		<path fill="#FF0000" d="M129.277,293.048c0,0,6.659-1.086,10.281-0.914c3.622,0.172,17.851,0.128,21.214,0.011
			c3.292-0.113,10.332,0.074,10.418,0.679s0.604,2.209-0.604,2.209s-8.435-0.691-10.763-0.433
			c-2.329,0.259-18.454-0.257-22.249-0.172c-3.795,0.087-7.521,0.604-7.521,0.604S128.76,295.117,129.277,293.048z"/>
		<path fill="#FF0000" d="M130.175,269.764c0.891-0.533,12.488,1.209,14.902,1.209c2.415,0,19.662,2.553,21.473,2.553
			c1.811,0,6.381,0.293,6.381,0.293l0.345,2.328c0,0-6.295-0.087-10.521-0.604c-4.226-0.517-12.81-1.825-17.248-2.156
			c-4.128-0.308-15.247-0.604-15.506-1.035S129.743,270.022,130.175,269.764z"/>
		<path fill="#FF0000" d="M159.994,255.501c-2.242-0.993-11.985-4.174-14.227-4.346c-2.242-0.174-12.488-2.794-12.488-2.794
			s-0.518-1.726,0.259-2.243c0,0,8.172,1.304,9.814,1.362c1.234,0.045,12.073,3.416,15.091,4.363
			c4.57,1.466,14.578,5.987,14.578,5.987s0.577,2.836-0.458,3.357C171.337,259.826,162.236,256.493,159.994,255.501z"/>
		<path fill="#FF0000" d="M136.591,222.456c0,0,14.479,6.562,16.247,7.468c1.78,0.912,7.245,4.362,9.659,5.483
			c2.415,1.122,5.347,2.779,6.123,3.123c0.776,0.345,7.416,3.483,7.416,3.483l-0.517,2.483c0,0-10.176-4.054-11.728-5.175
			c-1.552-1.12-10.675-5.454-11.383-5.863c-1.632-0.943-15.851-7.761-15.851-7.761S136.074,223.578,136.591,222.456z"/>
		<path fill="#FF0000" d="M139.379,198.705c0,0,10.605,6.536,12.172,7.59c1.541,1.037,14.043,11.528,15.346,12.59
			c1.616,1.317,10.502,8.079,10.502,8.079l0.042,2.96c0,0-8.567-5.757-10.581-6.961c-3.192-1.909-15.309-12.271-17.644-13.783
			c-1.334-0.865-8.331-6.696-9.912-7.084C138.983,201.649,139.117,199.756,139.379,198.705z"/>
		<path fill="#FF0000" d="M142.611,175.697c0.109-0.764,7.677,5.529,9.332,7.053c1.495,1.376,9.766,9.883,11.244,11.258
			c1.854,1.725,12.917,13.572,14.177,15.883c0.128,1.467,0.057,3.131,0.057,3.131c-14.268-13.726-14.605-13.959-18.719-17.593
			c-4.667-4.121-16.504-16.41-16.504-16.41S142.348,177.54,142.611,175.697z"/>
		<path fill="#FF0000" d="M176.658,184.889c-0.862,1.035-8.143,6.418-8.143,6.418s-2.051-1.398-1.534-2.605
			c0.518-1.207,9.677-6.227,9.677-6.227V184.889z"/>
	</g>
</g>
<g id="Layer_5">
	<path fill="#FF0000" d="M168.016,390.15c-0.431-2.153,4.109-34.025,4.109-34.025c-8.816,13.453-32.797,14.188-32.797,14.188
		c-6.209-7.244-10.643-84.021-10.125-91.266c0.517-7.243,8.055-55.694,10.125-79.641s10.453-45.587,10.453-47.656
		c0-2.07,14.58-25.147,18.719-27.734c4.14-2.587,18.902-5.573,24.594-7.125c5.691-1.552,13.383-3.531,15.453-3.531
		s6.141-6.266,6.141-6.266c3.622,1.035,19.559,4.219,30.922,4.219c11.364,0,25.553-5.709,28.656-4.156
		c3.105,1.552,4.156,3.875,4.156,3.875l3.375,1.5c0,0,28.018,1.343,40.953,10.656s20.719,31.656,20.719,31.656
		c2.588,7.761,5.438,31.359,5.438,31.359s13.188,37.351,13.188,80.297c0,42.945-3.674,62.062-3.156,71.375
		s-3.955,32.257-8.094,34.844s-23.168-7.347-23.168-7.347c-0.518,3.104-0.189,23.847-0.189,23.847s-23.769,9.53-39.292,11.6
		s-52.317,1.797-73.539,0.342c-22.989-1.576-43.898-9.241-45.989-9.909c1.552,1.552,24.703,9.247,45.917,10.8
		c21.214,1.552,57.951,2.069,73.473,0c15.523-2.069,39.842-12.418,39.842-12.418s-0.518-20.696,0-23.801
		c0,0,19.145,9.83,23.283,7.243c4.14-2.587,8.797-24.318,8.279-33.632s3.104-28.458,3.104-71.403
		c0-42.946-12.936-81.235-12.936-81.235s-2.587-22.766-5.175-30.527c0,0-7.761-23.801-20.696-33.115s-41.911-10.866-41.911-10.866
		l-3.104-1.552c0,0-1.034-2.587-4.139-4.139c-3.104-1.553-17.631,4.139-28.996,4.139c-11.363,0-27.403-3.104-31.025-4.139
		c0,0-4.139,6.209-6.209,6.209s-9.831,2.069-15.522,3.622c-5.692,1.552-20.179,4.14-24.319,6.727
		c-4.139,2.587-19.145,26.388-19.145,28.458c0,2.069-8.278,24.028-10.348,47.975s-9.831,72.067-10.348,79.31
		c-0.518,7.244,4.139,84.856,10.348,92.101c0,0,23.762,1.035,32.578-12.418C171.618,358.588,166.464,388.598,168.016,390.15z"/>
</g>
<g id="Layer_7">
	<g id="Leafs">
		<path opacity="0.4" fill="#504A56" enable-background="new    " d="M383.99,394.418c1.5-1.523-1.563-16.373-2.674-17.396
			c-0.666,1.511-1.011,3.078-1.033,4.698c-1.973-32.641-18.499-73.696-50.135-89.914c-10.584-5.425-59.679-13.8-60.781-25.834
			c-1.055-11.61-11.057-34.168-17.971-43.575c-8.835-12.014-11.242-23.826-27.793-26.301c-0.135,5.438,12.891,17.098,16.283,22.7
			c2.94,4.85,3.456,12.571,5.765,16.201c-3.724,8.83-22.714,28.201-32.887,29.114c-14.524,4.15-31.234,1.673-44.995,6.039
			c-3.114,4.499-18.074,2.293-23.031,3.624c-11.281,3.027-19.702,8.282-28.831,15.229c-8.522,6.485-15.503,9.799-22.612,18.424
			c-1.602,1.946-17.705,25.158-14.865,24.362c-14.787,4.139-14.831,37.175-13.7,48.388c1.15,11.428,6.479,70.858,17.287,67.078
			c14.804-5.182,27.431-11.619,43.125-14.63c14.186-2.724,28.485-2.653,42.132-9.593c33.29-16.931,55.852-49.303,57.697-86.896
			c0.651-13.196,1.215-23.705-2.332-36.555c-3.316-12.002-7.311-24.028-0.807-35.483c4.196-7.388,27.386-31.667,32.932-27.776
			c-0.057-0.518,0.178-0.858,0.702-1.016c-1.407,11.781,11.703,28.399,11.977,41.765c0.146,7.272-28.68,30.002-31.18,44.045
			c0.07-0.398-4.267,17.468-3.065,24.489c2.038,11.929,8.242,27.167,14.103,37.842c4.763,8.676,36.359,41.086,44.391,36.804
			c-0.812,0.443,23.1,15.791,25.627,13.06c5.062-5.472,21.343,15.419,27.231,8.51c-0.292-0.487-0.464-1.021-0.519-1.589
			c9.956,1.058,15.84,23.441,24.758,22.05c-0.639-2.84,9.147-50.831,8.834-50.658c0.595,0.196,0.976,0.599,1.144,1.209
			c2.591-1.861-1.95-1.725-1.599-1.688c1.984-2.422-1.369-3.594,2.37-4.331c-0.045,0.778,0.127,1.502,0.522,2.171
			C380.908,409.051,383.87,395.9,383.99,394.418C385.49,392.895,383.983,394.499,383.99,394.418z M71.853,342.026
			C71.503,343.369,71.82,342.146,71.853,342.026C71.805,342.208,71.853,342.026,71.853,342.026z M75.536,444.832
			c-0.049,0.053-0.082,0.112-0.114,0.175C75.451,444.945,75.486,444.885,75.536,444.832z M382.542,395.75
			C381.467,395.611,383.879,395.922,382.542,395.75C382.356,395.728,382.832,395.786,382.542,395.75z"/>
	</g>
	<path opacity="0.5" fill="#E1929C" enable-background="new    " d="M332.566,157.505c-2.562-0.899-6.244-7.438-5.909-7.017
		c-0.599,0.309-1.139,0.582-1.68,0.853c-0.497,0.257-0.938,0.356-1.087-0.387c-0.037-0.161-0.126-0.319-0.24-0.566
		c-9.256,8.516-22.157,11.597-31.041,20.866c-4.639,4.843-8.928,10.851-11.552,17.043c-1.384,3.266-1.263,6.118-1.486,9.554
		c-0.077,1.258-0.257,5.787-2.222,6.019c-0.851,0.103-2.418-1.25-1.985-2.134c2.134-4.43,2.604-9.145,4.688-13.603
		c2.618-5.615,6.561-11.229,10.656-15.863c4.25-4.813,9.294-8.34,14.742-11.649c4.73-2.873,12.555-5.859,15.961-10.341
		c0.722-0.942,0.662-1.16-0.201-1.896c-0.478-0.408-0.843-0.95-1.272-1.409c-2.725-2.874-7.632-0.358-10.991-0.483
		c-1.382-0.055-4.483,0.818-5.629,0.541c-2.057-0.504-4.361-2.394-5.99-3.679c-3.749-2.955-6.623-6.916-9.841-10.366
		c-1.79-1.918-3.44-4.017-5.386-5.782c-1.593-1.44-3.912-2.54-5.014-4.407c6.63,1.061,15.659,4.698,21.883,1.535
		c-0.147-2.334-3.01-4.006-4.154-5.95c-1.859-3.141-3.135-5.847-5.566-8.623c2.912-0.917,6.055-1.433,8.009-4.033
		c2.229-2.964,0.071-5.352,1.111-8.083c0.308-0.811,2.02-1.301,2.618-1.72c1.585-1.092,2.765-2.667,3.557-4.406
		c0.763-1.653-0.132-3.902-0.673-5.478c1.892,0.824,3.122,2.568,5.024,3.52c2.801,1.396,5.174,2.324,7.805,4.085
		c1.859,1.25,4.257,2.247,6.532,1.681c1.793-0.442,2.898-2.728,4.324-3.07c-0.422,4.174,0.188,7.103,1.239,11.108
		c0.715,2.746,0.943,7.975,3.744,9.545c0.368-1.046-0.501-1.434,0.801-2.143c4.219-2.312,6.271-7.861,7.532-12.441
		c1.1-3.986,5.923-13.658,0.132-16.521c2.412,0.317,3.942,4.125,6.238,5.294c0.669,0.339,5.177-4.115,5.776-4.7
		c2.108-2.019,2.377-4.403,2.978-7.083c1.018,1.552,1.72,3.241,3.781,3.467c5.655,0.636,9.761-3.377,13.461-6.858
		c-0.725,3.451-2.119,6.184-0.97,9.801c0.609,1.921,0.746,3.81,2.203,5.336c0.64,0.673,3.188,0.921,3.387,1.235
		c0.394,0.623-1.331,3.035-1.521,3.661c-0.723,2.395-0.969,4.962-0.34,7.401c0.225,0.877,1.039,1.593,1.393,2.459
		c0.574,1.452,1.708,1.604,3.012,1.582c1.881-0.024,3.6-0.581,5.25-1.449c0.037,0.069,0.084,0.124,0.124,0.192
		c-4.126,3.063-7.09,6.175-9.842,10.522c-2.823,4.46-6.562,8.423-8.689,13.244c3.163,0.825,6.402,1.621,9.659,0.737
		c2.879-0.783,5.002-5.138,7.163-7.122c2.855-2.609,5.474-5.49,8.408-8.005c-0.172,0.734-0.367,1.28-0.404,1.834
		c-0.098,1.47,0.801,2.357,1.995,2.954c2.772,1.401,5.893,1.628,8.939,1.981c2.741,0.316,4.458-1.657,6.588-1.613
		c-0.301,2.117-1.437,3.62-2.984,5.11c-0.993,0.957-1.324,3.19-2.401,3.705c-2.493,1.196-5.869,2.069-7.953,3.92
		c-2.505,2.231-4.007,5.57-6.581,7.712c-2.855,2.382-4.429,4.937-7.291,7.045c-2.481,1.833-4.871,3.597-7.487,5.263
		c-2.733,1.738-2.625,2.663-0.468,4.721c-0.021-0.946,0.199-1.119,0.942-0.723c1.755,0.948,3.186,1.471,5.125,1.875
		c-0.11,0.154-0.153,0.282-0.238,0.321c-1.955,0.797-3.896,1.621-5.833,2.46c-1.206,0.518-4.812,1.952-6.128,1.729
		c0.762,0.459,0.521,0.729,0.026,0.991c-1.371,0.721-1.501,0.824-2.915,0.352c-0.029,0.253-0.065,0.506-0.099,0.785
		c-1.406,0.689-2.731,1.191-4.234,1.622c0.21-0.558,0.397-1.037,0.632-1.661c0.165,0.321,0.258,0.506,0.414,0.793
		c0.499-0.193,1.017-0.385,1.663-0.631c-0.652-0.121-1.064-0.18-1.466-0.282c-0.215-0.468,0.014-0.642,0.673-0.53
		c0.045-0.17,0.106-0.411,0.198-0.736c-0.567,0.167-1.053,0.321-1.732,0.523c-0.13,0.376-0.331,0.932-0.537,1.522
		c-0.248-0.067-0.527-0.15-0.796-0.225c-0.177,0.321-0.158,0.657,0.057,1.015c0.003,0.018-0.327,0.129-0.362,0.079
		c-0.49-0.367-0.741-0.838-0.77-1.391c-0.317,0.161-0.563,0.284-0.793,0.396c-0.358-0.355-0.695-0.674-1.075-1.042
		c-0.671,0.872-1.18,0.332-2.112,0.613c-0.376-0.661-1.331-1.181-2.071-1.013c-0.235,0.056-0.418,0.342-0.616,0.53
		c0.392,0.21,1.311,0.353,1.102,0.75C352.333,164.471,335.204,159.693,332.566,157.505z M346.699,94.654
		c-0.082-0.052-0.173-0.099-0.253-0.152c-0.972,1.486-1.936,2.97-2.906,4.466c0.111,0.064,0.223,0.136,0.324,0.203
		C344.815,97.67,345.756,96.162,346.699,94.654C346.616,94.604,345.756,96.162,346.699,94.654z"/>
</g>
</svg>
