<?xml version="1.0" encoding="utf-8"?>
<!-- Generator: Adobe Illustrator 16.0.4, SVG Export Plug-In . SVG Version: 6.00 Build 0)  -->
<!DOCTYPE svg PUBLIC "-//W3C//DTD SVG 1.1//EN" "http://www.w3.org/Graphics/SVG/1.1/DTD/svg11.dtd">
<svg version="1.1" xmlns="http://www.w3.org/2000/svg" xmlns:xlink="http://www.w3.org/1999/xlink" x="0px" y="0px" width="500px"
	 height="500px" viewBox="0 0 500 500" enable-background="new 0 0 500 500" xml:space="preserve">
<g id="Layer_1">
	<path fill-rule="evenodd" clip-rule="evenodd" stroke="#A9D1C6" stroke-width="5" d="M492,480c0,6.627-5.373,12-12,12H19
		c-6.627,0-12-5.373-12-12V19c0-6.627,5.373-12,12-12h461c6.627,0,12,5.373,12,12V480z"/>
</g>
<g id="Layer_4">
	<g>
		<linearGradient id="SVGID_1_" gradientUnits="userSpaceOnUse" x1="66.3462" y1="358.4492" x2="203.8916" y2="358.4492">
			<stop  offset="0" style="stop-color:#FF1A00"/>
			<stop  offset="0.1446" style="stop-color:#C71400"/>
			<stop  offset="0.317" style="stop-color:#8B0E00"/>
			<stop  offset="0.4833" style="stop-color:#590900"/>
			<stop  offset="0.6389" style="stop-color:#330500"/>
			<stop  offset="0.7814" style="stop-color:#170200"/>
			<stop  offset="0.9063" style="stop-color:#060100"/>
			<stop  offset="1" style="stop-color:#000000"/>
		</linearGradient>
		<polygon fill="url(#SVGID_1_)" points="203.892,247.803 203.892,352.865 66.346,469.095 66.346,363.968 		"/>
		<linearGradient id="SVGID_2_" gradientUnits="userSpaceOnUse" x1="66.3462" y1="232.2031" x2="203.8916" y2="232.2031">
			<stop  offset="0" style="stop-color:#FFFF00"/>
			<stop  offset="0.1446" style="stop-color:#C7C700"/>
			<stop  offset="0.317" style="stop-color:#8B8B00"/>
			<stop  offset="0.4833" style="stop-color:#595900"/>
			<stop  offset="0.6389" style="stop-color:#333300"/>
			<stop  offset="0.7814" style="stop-color:#171700"/>
			<stop  offset="0.9063" style="stop-color:#060600"/>
			<stop  offset="1" style="stop-color:#000000"/>
		</linearGradient>
		<polygon fill="url(#SVGID_2_)" points="203.892,121.557 203.892,226.619 66.346,342.849 66.346,237.722 		"/>
		<linearGradient id="SVGID_3_" gradientUnits="userSpaceOnUse" x1="66.3462" y1="118.4414" x2="203.8916" y2="118.4414">
			<stop  offset="0" style="stop-color:#FF1A00"/>
			<stop  offset="0.1446" style="stop-color:#C71400"/>
			<stop  offset="0.317" style="stop-color:#8B0E00"/>
			<stop  offset="0.4833" style="stop-color:#590900"/>
			<stop  offset="0.6389" style="stop-color:#330500"/>
			<stop  offset="0.7814" style="stop-color:#170200"/>
			<stop  offset="0.9063" style="stop-color:#060100"/>
			<stop  offset="1" style="stop-color:#000000"/>
		</linearGradient>
		<polygon fill="url(#SVGID_3_)" points="164.647,27 203.892,93.653 66.346,209.883 66.346,104.755 		"/>
	</g>
</g>
<g id="Layer_3">
	<linearGradient id="SVGID_4_" gradientUnits="userSpaceOnUse" x1="101.2388" y1="254.4736" x2="401.5225" y2="254.4736">
		<stop  offset="0.0393" style="stop-color:#FF1A00"/>
		<stop  offset="0.0443" style="stop-color:#F61900"/>
		<stop  offset="0.0715" style="stop-color:#C81400"/>
		<stop  offset="0.1021" style="stop-color:#9D1000"/>
		<stop  offset="0.135" style="stop-color:#770C00"/>
		<stop  offset="0.1708" style="stop-color:#570900"/>
		<stop  offset="0.2104" style="stop-color:#3B0600"/>
		<stop  offset="0.2551" style="stop-color:#250400"/>
		<stop  offset="0.3073" style="stop-color:#140200"/>
		<stop  offset="0.3718" style="stop-color:#090100"/>
		<stop  offset="0.4623" style="stop-color:#020000"/>
		<stop  offset="0.7135" style="stop-color:#000000"/>
	</linearGradient>
	<path fill-rule="evenodd" clip-rule="evenodd" fill="url(#SVGID_4_)" d="M154.659,399.148c3.736,2.401,156.849,6.364,188.87-3.242
		c5.337-20.814-4.716-22.949-9.252-76.852s4.536-86.457,4.536-86.457s6.404-3.914,5.07,29.174
		c28.285-2.135,42.429-4.802,57.639-17.077c-2.936-21.882-10.674-34.513-21.614-69.735c-10.941-35.224-39.76-50.167-87.259-68.045
		c-9.072,4.536-17.345,8.539-40.026,7.738c-22.682-0.8-42.428-9.339-59.239-0.534c0,0-51.323,22.237-56.927,38.782
		c-5.604,16.544-18.324,54.881-26.062,70.09c-7.739,15.211-11.029,21.882-8.094,23.482c2.935,1.602,33.711,21.882,57.994,19.213
		c-0.534-10.406,4.002-28.818,6.938-30.687c3.736,2.135,6.671,22.948,4.002,57.371s-6.051,93.203-8.248,98.352
		c0,0-0.82,2.065-2.952,1.968"/>
	<linearGradient id="SVGID_5_" gradientUnits="userSpaceOnUse" x1="288.3047" y1="105.7495" x2="205.9981" y2="412.922">
		<stop  offset="0" style="stop-color:#FF0000"/>
		<stop  offset="0.0074" style="stop-color:#F60000"/>
		<stop  offset="0.0477" style="stop-color:#C80000"/>
		<stop  offset="0.0931" style="stop-color:#9D0000"/>
		<stop  offset="0.1419" style="stop-color:#770000"/>
		<stop  offset="0.195" style="stop-color:#570000"/>
		<stop  offset="0.2537" style="stop-color:#3B0000"/>
		<stop  offset="0.32" style="stop-color:#250000"/>
		<stop  offset="0.3974" style="stop-color:#140000"/>
		<stop  offset="0.4931" style="stop-color:#090000"/>
		<stop  offset="0.6274" style="stop-color:#020000"/>
		<stop  offset="1" style="stop-color:#000000"/>
	</linearGradient>
	<path fill-rule="evenodd" clip-rule="evenodd" fill="url(#SVGID_5_)" d="M154.659,399.148c-2.131-0.098,3.234-8.312,3.234-8.312
		c-0.8-5.337,7.205-64.043,9.874-98.466s3.202-55.236-0.534-57.371c-2.936,1.868-5.604,21.348-5.07,31.754
		c-24.283,2.669-61.107-15.743-64.042-17.345c-2.935-1.601,1.067-11.207,8.806-26.418c7.739-15.209,20.28-52.034,25.884-68.579
		c5.604-16.544,57.905-39.493,57.905-39.493c16.811-8.806,35.757-1.067,58.439-0.267c22.682,0.801,34.423-3.202,43.495-7.738
		c47.499,17.878,76.317,32.822,87.259,68.045c10.94,35.223,21.348,49.633,24.282,71.514c-15.21,12.275-34.956,16.011-63.242,18.146
		c1.335-33.089-2.135-32.021-2.135-32.021s-5.337,31.487-0.8,85.39c4.536,53.902,13.342,58.706,8.005,79.52
		c-32.021,9.606-181.988,3.469-185.724,1.067"/>
</g>
<g id="Layer_2">
	<g>
		<path fill-rule="evenodd" clip-rule="evenodd" fill="#FF0000" d="M160.295,398.574c3.736,2.401,151.213,6.938,183.234-2.668
			c5.337-20.814-4.716-22.949-9.252-76.852s4.536-86.458,4.536-86.458s6.404-3.914,5.07,29.174
			c28.285-2.135,42.429-4.802,57.639-17.077c-2.936-21.881-10.674-34.512-21.614-69.735c-10.941-35.224-39.76-50.167-87.259-68.045
			c-9.072,4.536-17.345,8.539-40.026,7.738c-22.682-0.8-42.428-9.339-59.239-0.534c0,0-51.323,22.237-56.927,38.782
			c-5.604,16.544-18.324,54.881-26.062,70.091c-7.739,15.21-11.029,21.881-8.094,23.482c2.935,1.601,33.711,21.881,57.994,19.212
			c-0.534-10.406,4.002-28.819,6.938-30.687c3.736,2.135,6.671,22.948,4.002,57.371s-6.051,93.203-8.248,98.352
			c0,0-0.82,2.065-2.952,1.968c-2.131-0.098-2.143-1.854-2.143-1.854c-0.8-5.337,7.205-64.043,9.874-98.466
			s3.202-55.236-0.534-57.371c-2.936,1.868-5.604,21.348-5.07,31.754c-24.283,2.669-61.107-15.743-64.042-17.345
			c-2.935-1.601,1.067-11.207,8.806-26.417c7.739-15.21,20.28-52.035,25.884-68.579c5.604-16.544,57.905-39.493,57.905-39.493
			c16.811-8.806,35.757-1.067,58.439-0.267c22.682,0.801,34.423-3.202,43.495-7.738c47.499,17.878,76.317,32.822,87.259,68.045
			c10.94,35.223,21.348,49.633,24.282,71.514c-15.21,12.275-34.956,16.01-63.242,18.145c1.335-33.088-2.135-32.021-2.135-32.021
			s-5.337,31.488-0.8,85.39c4.536,53.902,13.342,58.706,8.005,79.52C313.997,407.113,164.031,400.976,160.295,398.574z"/>
		<path fill-rule="evenodd" clip-rule="evenodd" fill="#FF0000" d="M290.125,105.75c0,0-11.776-2.188-19.901-2.062
			s-52.724-1.812-54.474-2.562s-3.125,6.625-3.125,6.625s0.5-8.875,2.25-8.125s45.46,3.546,53.585,3.421
			S290.125,105.75,290.125,105.75z"/>
	</g>
	<g>
		<g>
			<path fill-rule="evenodd" clip-rule="evenodd" fill="#FF0000" d="M314.707,300.361c-7.542-12.678-19.974-22.711-39.691-30.461
				c-0.728,0.125-1.67-0.711-2.559-0.866c-2.903-0.815-5.808-1.63-8.712-2.445c-5.821-0.868-11.513-2.576-17.018-2.581
				c-1.931-0.001-3.884,0.349-5.68,0.562c-0.226,0.242-0.1,0.149-0.304,0.264c-0.294,0.865,0.36,2.642,1.138,2.416
				c1.574,0.433,5.764-1.298,7.792-1.438c4.156-0.284,8.884,0.987,13.326,1.635c2.398,0.351,4.223,1.566,6.749,2.021
				c3.42,0.614,8.756,2.85,11.618,4.816c2.801,1.927,5.66,2.799,8.148,4.74c5.938,4.631,11.123,9.406,15.063,14.803
				c3.104,4.255,5.979,8.527,6.064,13.989c0.099,6.482-3.807,11.728-8.088,14.348c-7.496,4.586-19.916,5.776-31.081,1.312
				c-5.79-2.315-10.718-4.748-14.719-7.658c-1.402-1.021-3.744-1.593-4.635-2.895c-0.032-0.079-0.064-0.157-0.098-0.234
				c2.56,0.317,5.053-1.069,7.295-1.645c6.657-1.705,17.431-8.884,18.333-19.823c0.189-2.304,0.033-4.752-0.482-6.813
				c-0.283-1.13-1.155-2.115-1.596-3.19c-0.331-0.137-0.662-0.274-0.995-0.412c1.875,9.777-6.34,22.953-13.758,27.556
				c-1.765,1.095-4.383,2.316-6.408,2.789c-1.07,0.249-2.393,0.043-3.344,0.56c-0.868-0.481-1.372-0.955-2.048-1.628
				c-2.396-2.386-10.487-8.798-13.719-4.91c-0.356,0.235-0.637,1.006-0.854,1.592c0.24,0.554,0.271,1.308,0.611,1.81
				c1.609,2.369,6.74,4.133,9.821,4.459c1.052,0.113,4.256-0.146,5.101,0.364c1.736,1.054,3.824,2.776,5.522,4.04
				c2.438,1.465,4.879,2.932,7.318,4.396c1.636,0.742,3.273,1.487,4.91,2.229c2.638,1.826,9.293,3.791,12.06,4.222
				c2.384,0.372,4.196,1.135,6.456,1.317c11.494,0.921,22.551-1.362,29.57-11.275C319.747,312.775,316.703,303.715,314.707,300.361z
				 M241.199,311.119c-0.862-0.13-2.115-0.92-2.587-1.268c-2.332-1.714-1.628-2.33,0.312-3.566c0.567,0.041,1.134,0.081,1.7,0.122
				c2.481,1.049,6.306,3.279,7.278,4.962c0.243,0.226,0.149,0.101,0.263,0.304C245.992,311.798,243.56,311.474,241.199,311.119z"/>
		</g>
	</g>
</g>
<g id="Layer_5">
	<g id="Leafs">
		<path opacity="0.4" fill="#504A56" enable-background="new    " d="M386.017,320.97c2.092,0.439,12.927-10.169,13.186-11.655
			c-1.631,0.257-3.135,0.814-4.511,1.671c26.389-19.312,51.986-55.413,48.52-90.795c-1.16-11.836-20.666-57.662-11.14-65.097
			c9.196-7.167,22.761-27.778,26.935-38.682c5.328-13.928,13.962-22.34,7.093-37.602c-4.646,2.827-7.41,20.09-10.288,25.973
			c-2.49,5.096-8.705,9.706-10.511,13.61c-9.44,1.643-36.005-3.855-42.274-11.917c-11.346-9.973-18.298-25.37-29.414-34.583
			c-5.467-0.187-11.701-13.964-15.502-17.414c-8.646-7.852-17.623-12.093-28.4-16.016c-10.065-3.662-16.627-7.741-27.727-9.056
			c-2.503-0.295-30.736-1.288-28.531,0.67c-11.479-10.2-39.29,7.629-48.111,14.645c-8.99,7.147-56.098,43.769-47.075,50.816
			c12.365,9.649,24.608,16.789,35.628,28.362c9.962,10.459,17.636,22.524,30.854,30.251c32.244,18.847,71.675,20.316,104.295,1.539
			c11.451-6.59,20.597-11.798,29.486-21.729c8.303-9.28,16.258-19.143,29.411-19.868c8.484-0.466,41.447,5.91,41.174,12.679
			c0.404-0.327,0.817-0.314,1.234,0.041c-10.671,5.189-17.56,25.202-28.654,32.662c-6.038,4.057-40.747-7.899-53.911-2.408
			c0.373-0.157-17,5.857-22.258,10.664c-8.932,8.166-18.394,21.624-24.203,32.327c-4.722,8.699-14.896,52.803-6.951,57.243
			c-0.812-0.443-0.789,27.97,2.873,28.62c7.341,1.299-1.428,26.29,7.568,27.507c0.254-0.509,0.607-0.941,1.058-1.296
			c4.493,8.948-11.153,26.002-5.159,32.75c2.044-2.074,47.703-19.794,47.389-19.964c0.156,0.606,0.023,1.145-0.398,1.616
			c2.967,1.172,0.396-2.575,0.557-2.259c3.109,0.359,2.281-3.096,4.924-0.349c-0.678,0.383-1.193,0.919-1.543,1.612
			C372.041,326.292,384.704,321.672,386.017,320.97C388.108,321.409,385.944,321.01,386.017,320.97z M261.285,30.082
			C259.966,30.514,261.165,30.12,261.285,30.082C261.105,30.14,261.285,30.082,261.285,30.082z M176.8,88.776
			c-0.071-0.013-0.139-0.008-0.209-0.002C176.66,88.767,176.729,88.764,176.8,88.776z M384.112,320.474
			C383.647,319.493,384.691,321.691,384.112,320.474C384.031,320.305,384.238,320.736,384.112,320.474z"/>
	</g>
	<path opacity="0.4" fill="#DFCE00" enable-background="new    " d="M224.864,355.813c-0.628-1.268-1.256-2.538-1.894-3.799
		c-13.819,2.506-27.461,5.744-41.144,8.973c-0.563,0.133-1.008,0.045-1.335-0.438c-0.944-1.408-1.912-2.799-2.811-4.229
		c-0.871-1.38-0.047-4.892-0.143-6.497c-0.133-2.44-0.421-4.866-0.63-7.304c-0.392-4.526-4.079-8.68-6.841-12.202
		c-0.705-0.885-1.625,0.333-2.404-0.934c-1.743-2.824-4.083-4.629-6.332-7.023c-0.187-0.202-0.506-0.278-0.751-0.404
		c-0.451,1.427-0.564,2.908-0.912,4.365c-0.221,0.933-2.519,2.745-3.47,2.713c-0.118-0.008-0.223-0.037-0.332-0.055
		c-3.728-1.06-6.772-4.146-9.882-6.353c-0.605-0.106-1.227-0.161-1.845-0.134c-1.888-0.853-3.7-2.334-5.924-2.059
		c-0.044,2.583-9.038-0.614-11.042-1.056c-0.344,2.472-3.604,1.086-5.365,0.982c-1.713-0.104-5.018,0.754-6.743,1.212
		c2.625,1.28,3.663,3.754,5.145,6.088c0.475,0.751,0.845,4.006,1.134,5.156c0.464,1.973,0.493,3.85,1.169,5.851
		c0.314,0.951,0.164,1.57-0.632,1.69c-6.506,1.012-13.194,0.429-19.664-0.611c-1.604-0.259-1.005,0.951-2.076,1.465
		c-1.329,0.64-4.408-0.411-5.803-0.515c-3.109-0.241-7.158,0.831-10.469,1.042c-0.247,0.009-0.623,0.13-0.686,0.293
		c0.054,0.799,0.354,1.509,0.906,2.123c0.506,1.586,1.695,7.247,0.307,8.698c-1.985,2.086-7.131,2.321-9.722,2.967
		c-0.646,0.405-1.312,0.802-1.98,1.166c-2.163,0.51-4.374,0.838-6.561,1.211c1.131,1.24-0.485,0.809-0.612,1.316
		c0.099,0.09,0.192,0.189,0.298,0.268c1.221,0.954,1.324,2.84,0.115,3.827c-8.729,7.116-14.634,14.065-20.562,23.886
		c0.06,0.051,0.109,0.095,0.173,0.146c4.197-4.194,8.049-3.538,13.334-4.674c1.473-0.312,0.869,1.332,0.316,1.994
		c2.03,0.166,3.741-0.669,5.494-0.708c1.874,1.688,6.131-0.339,8.28-1.088c0.035,2.188-0.326,4.063-1.039,5.92
		c1.388-0.066,3.893,0.558,5.148,0.305c3.534-0.726,6.665-1.257,10.322-1.466c3.687-0.207,9.694-1.538,13.177-0.039
		c0.367,0.152,0.665,0.446,1.006,0.676c-2.598,3.296-8.359,3.834-12.131,5.082c-3.325,1.093-7.15,4.26-10.271,5.979
		c-1.286,0.697,0.597,1.664-0.711,2.322c-0.324,0.163-0.65,0.358-0.973,0.523c-0.549,0.266-0.963,0.56-0.244,1.33
		c-2.909,0.801-5.637,2.056-8.289,3.509c-0.689,0.383-0.058,1.195-0.306,1.68c-0.54,1.037-2.423,1.769-3.303,2.473
		c-2.094,1.669-3.8,4.609-5.4,6.059c-0.741,0.675-1.538,1.289-2.325,1.935c0.907,0.221,9.558,0.686,7.949,3.064
		c3.466,2.214,6.779,4.583,9.867,7.28c0.201,0.181,0.287,0.768,0.151,1.024c-2.682,5.089-6.261,9.66-8.928,14.694
		c0.724,0.006,1.533-0.185,2.141,0.074c1.402,0.618,2.76,1.39,4.048,2.231c0.382,0.253,0.742,0.968,0.688,1.429
		c-0.263,2.409-1.727,4.309-2.943,6.316c0.996,0.378,1.736,0.857,1.594,1.755c-0.289,1.876-1.245,3.346-2.103,4.979
		c-0.358,0.669,0.206,1.579-0.204,2.262c-0.83,1.376-2.068,2.62-3.046,3.881c-1.574,2.034-3.462,4.009-4.533,6.349
		c0.077,0.073,0.161,0.138,0.227,0.206c3.191-1.262,6.075-2.903,9.145-4.436c2.088-1.028,4.957-1.451,6.725-2.511
		c0.469-0.281,0.924-0.57,1.397-0.833c1.298-0.748,1.835-0.5,2.027,1.133c3.635-1.192,6.326-3.943,9.536-5.839
		c0.202-0.113,0.674-0.066,0.835,0.103c0.915,0.959,1.751,2,2.673,2.95c1.382,1.431,0.624,3.001,1.504,4.278
		c1.253-1.159,3.76-2.606,4.589-3.98c0.797-1.318,1.546-2.665,2.309-4.003c0.776-1.358,1.038,0.282,1.812,0.146
		c0.792-0.137,2.146-2.467,2.595-3.052c1.924-2.61,3.432-5.206,5.837-7.463c2.859-2.683,8.183,4.77,10.005,6.625
		c1.349,1.364,4.339,1.674,3.966,5.265c1.39-1.187,2.377-3.67,3.33-5.233c0.643-1.053,1.055,0.305,1.657-0.449
		c1.042-1.268,1.24-3.47,1.696-4.989c0.276-0.911,1.122-1.141,1.837-0.495c0.141,0.126,0.265,0.275,0.551,0.593
		c1.306-3.478,1.697-7.133,2.263-10.796c0.254-1.693,3.545-0.902,4.334-0.168c0.006-0.488-0.003-0.754,0.033-1.025
		c0.1-0.831,0.676-0.621,0.585-1.532c-0.166-1.83-0.223-3.537-0.22-5.376c-0.599,0.404-1.241,0.521-1.939,0.36
		c-1.801-1.627,5.759-22.119,8.106-20.619c0.324,0.204,0.659,0.565,0.735,0.933c1.464,6.959-0.842,14.309-2.057,20.971
		c1.921-1.217,3.759-1.378,5.661-0.811c0.963,0.561,1.25,1.479,0.847,2.749c-0.665,3.728-1.778,7.319-1.821,11.13
		c1.019-0.266,2.028-1.062,2.237,0.641c0.262,2.115-0.301,4.491-0.525,6.603c0.282,0.484,0.579,1.042,0.523,1.577
		c-0.404,3.574-1.414,7.039-2.284,10.523c2.234-1.833,4.047-3.207,6.46-4.826c1.619-1.089,2.414-4.188,4.449-4.632
		c0.383-0.088,0.868,0.332,1.332,0.557c0.678-1.064,0.664-3.129,1.542-3.91c0.652-0.574,1.376-1.09,2.018-1.669
		c1.614-1.503,2.713,0.658,3.786,1.815c0.934-2.159,1.82-4.238,2.646-6.152c0.408-0.101,0.772-0.074,0.857-0.226
		c1.238-1.999,2.255-10.204,5.386-7.939c1.944,1.406,3.847,2.865,5.759,4.3c1.621,1.231,2.09-5.455,2.162-6.101
		c0.255-0.051,0.681-0.048,0.712-0.154c0.842-2.812,0.464-5.164,0.322-8.058c-0.055-1.183,0.003-1.179,1.16-1.135
		c0.877-1.823,1.125-3.77,0.841-5.729c-0.654-4.312-1.782-8.588-2.053-12.952c-0.025-0.38,0.017-0.896,0.629-0.771
		c4.087,0.854,7.169,2.154,11.386,0.765c0.431-0.134,0.758-0.572,1.134-0.876c-0.047-0.075-0.09-0.159-0.139-0.234
		c1.156-0.266,2.288-0.36,3.262,0.649c0.633-0.723,0.411-1.51,0.294-2.221c-0.209-1.211-0.532-2.381-0.774-3.582
		c-0.196-0.943,1.08-1.048,0.812-1.847c-0.572-1.759-0.837-3.646-2.15-5.101c-1.704-1.88,2.161-1.188,1.319-3.026
		c-0.686-1.489-1.786-4.169-2.802-5.372c-0.483-0.572-1.057-1.074-1.602-1.604c1.52,0.129,2.791,0.574,3.184,2.2
		c1.507-1.781,0.983-3.911,1.241-5.848c0.283-2.001-4.069-7.813-5.129-8.938c-1.579-1.666-3.616-2.681-5.576-3.805
		c-0.964-0.558-1.831-1.231-3.24-0.562c-1.353,0.658-3.962-1.258-4.346-2.755c-0.127-0.488-0.406-1.003-0.759-1.361
		c-1.268-1.319-1.247-1.537,0.496-2.03C200.005,361.305,212.342,358.245,224.864,355.813
		C224.227,354.556,222.194,356.339,224.864,355.813z"/>
</g>
</svg>
