<?xml version="1.0" encoding="utf-8"?>
<!-- Generator: Adobe Illustrator 16.0.4, SVG Export Plug-In . SVG Version: 6.00 Build 0)  -->
<!DOCTYPE svg PUBLIC "-//W3C//DTD SVG 1.1//EN" "http://www.w3.org/Graphics/SVG/1.1/DTD/svg11.dtd">
<svg version="1.1" xmlns="http://www.w3.org/2000/svg" xmlns:xlink="http://www.w3.org/1999/xlink" x="0px" y="0px" width="500px"
	 height="500px" viewBox="0 0 500 500" enable-background="new 0 0 500 500" xml:space="preserve">
<g id="Layer_1">
	<path fill-rule="evenodd" clip-rule="evenodd" stroke="#FF0000" stroke-width="5" stroke-miterlimit="1" d="M492,480
		c0,6.627-5.373,12-12,12H19c-6.627,0-12-5.373-12-12V19c0-6.627,5.373-12,12-12h461c6.627,0,12,5.373,12,12V480z"/>
</g>
<g id="Layer_4">
	<g>
		<linearGradient id="SVGID_1_" gradientUnits="userSpaceOnUse" x1="78.3462" y1="353.4492" x2="215.8916" y2="353.4492">
			<stop  offset="0" style="stop-color:#FF1A00"/>
			<stop  offset="0.1446" style="stop-color:#C71400"/>
			<stop  offset="0.317" style="stop-color:#8B0E00"/>
			<stop  offset="0.4833" style="stop-color:#590900"/>
			<stop  offset="0.6389" style="stop-color:#330500"/>
			<stop  offset="0.7814" style="stop-color:#170200"/>
			<stop  offset="0.9063" style="stop-color:#060100"/>
			<stop  offset="1" style="stop-color:#000000"/>
		</linearGradient>
		<polygon fill="url(#SVGID_1_)" points="215.892,242.803 215.892,347.865 78.346,464.095 78.346,358.968 		"/>
		<linearGradient id="SVGID_2_" gradientUnits="userSpaceOnUse" x1="78.3462" y1="227.2031" x2="215.8916" y2="227.2031">
			<stop  offset="0" style="stop-color:#FFFF00"/>
			<stop  offset="0.1446" style="stop-color:#C7C700"/>
			<stop  offset="0.317" style="stop-color:#8B8B00"/>
			<stop  offset="0.4833" style="stop-color:#595900"/>
			<stop  offset="0.6389" style="stop-color:#333300"/>
			<stop  offset="0.7814" style="stop-color:#171700"/>
			<stop  offset="0.9063" style="stop-color:#060600"/>
			<stop  offset="1" style="stop-color:#000000"/>
		</linearGradient>
		<polygon fill="url(#SVGID_2_)" points="215.892,116.557 215.892,221.619 78.346,337.849 78.346,232.722 		"/>
		<linearGradient id="SVGID_3_" gradientUnits="userSpaceOnUse" x1="78.3462" y1="113.4414" x2="215.8916" y2="113.4414">
			<stop  offset="0" style="stop-color:#FF1A00"/>
			<stop  offset="0.1446" style="stop-color:#C71400"/>
			<stop  offset="0.317" style="stop-color:#8B0E00"/>
			<stop  offset="0.4833" style="stop-color:#590900"/>
			<stop  offset="0.6389" style="stop-color:#330500"/>
			<stop  offset="0.7814" style="stop-color:#170200"/>
			<stop  offset="0.9063" style="stop-color:#060100"/>
			<stop  offset="1" style="stop-color:#000000"/>
		</linearGradient>
		<polygon fill="url(#SVGID_3_)" points="176.647,22 215.892,88.653 78.346,204.883 78.346,99.755 		"/>
	</g>
</g>
<g id="Layer_3">
	<path fill-rule="evenodd" clip-rule="evenodd" fill="#FF0000" d="M334.866,253.838c-0.438,7.986-3.909,14.661-5.019,22.307
		c0.187,0,0.373,0,0.557,0c0-0.372,0-0.745,0-1.116c1.553-1.392,4.771-3.598,5.578-5.576
		C336.895,267.974,336.393,255.52,334.866,253.838z"/>
</g>
<g id="Layer_5">
	<linearGradient id="SVGID_4_" gradientUnits="userSpaceOnUse" x1="294.9004" y1="93.4316" x2="209.2001" y2="413.2696">
		<stop  offset="0" style="stop-color:#FF1A00"/>
		<stop  offset="0.037" style="stop-color:#E01700"/>
		<stop  offset="0.0989" style="stop-color:#B11200"/>
		<stop  offset="0.1666" style="stop-color:#870E00"/>
		<stop  offset="0.2384" style="stop-color:#620A00"/>
		<stop  offset="0.3155" style="stop-color:#440700"/>
		<stop  offset="0.3995" style="stop-color:#2B0400"/>
		<stop  offset="0.4932" style="stop-color:#180200"/>
		<stop  offset="0.6019" style="stop-color:#0A0100"/>
		<stop  offset="0.7393" style="stop-color:#020000"/>
		<stop  offset="1" style="stop-color:#000000"/>
	</linearGradient>
	<path fill-rule="evenodd" clip-rule="evenodd" fill="url(#SVGID_4_)" d="M192.472,370.536c4.812,7.626,33.668,16.03,46.209,18.08
		c12.541,2.05,26.927-0.141,41.188-4.016c14.261-3.877,19.183-8.936,27.122-15.07c0.787-17.98,10.699-26.428,14.062-42.19
		c31.375,0.187,49.898-19.395,56.255-43.195c1.758-6.58-3.611-33.605-5.021-40.18c-2.93-13.652,1.661-28.685-2.009-40.184
		c-3.483-10.909-10.325-17.917-16.073-26.118c-5.29-7.547-8.628-15.802-14.064-23.104c-7.924-10.649-26.668-10.381-36.258-19.473
		l-0.053-0.025c-0.78-3.037,3.124-5.153,4.019-9.04c1.189-5.184-3.251-8.029-4.019-11.051c-1.507-5.92,3.967-7.712,0-13.057
		c-5.615-16.09-61.355-16.192-82.375-11.051c-6.287,1.539-12.873-0.272-17.075,3.014c-5.693,2.217-13.197,38.235-11.051,41.186
		c0,0-20.253,10.317-26.614,14.944c-7.676,5.582-28.734,41.042-33.151,51.232c-9.571,22.092-17.722,74.091-11.049,105.477
		c0,17.747,0,35.495,0,53.242c2.553,10.774,7.925,15.746,8.037,31.141l-1.357,0.736c12.253-3.354,21.535-7.393,39.18-7.02
		c-5.674-37.472-5.96-119.358,12.051-142.658c0-0.67,0-1.341,0-2.012c0.335,0,0.671,0,1.006,0
		c0.13,14.619,6.619,30.221,3.013,46.212c-2.007,8.904-8.875,31.48-6.025,42.189c3.013,6.696,6.025,13.395,9.039,20.091
		c2.094,7.867,3.824,16.758,3.824,16.758"/>
	<path fill-rule="evenodd" clip-rule="evenodd" fill="#FF0000" d="M294.51,100.655"/>
</g>
<g id="Layer_2">
	<path fill-rule="evenodd" clip-rule="evenodd" fill="#FF0000" d="M191.281,365.394c2.164-5.512-1.193-14.095-3.617-23.203
		c-3.013-6.695-1.541-13.096-4.554-19.794c-2.849-10.709,3.621-31.187,4.379-40.284c0.876-10.511-4.029-44.49-6.654-43.789
		c-18.011,23.299-19.688,108.082-14.014,145.556c-17.646-0.375-34.506,6.305-34.506,6.305c-0.112-15.395-3.578-25.832-6.13-36.608
		c0-17.744-0.349-32.699-0.349-50.444c-6.674-31.387,5.666-80.196,15.237-102.288c4.417-10.189,18.598-41.184,26.272-46.766
		c6.361-4.626,26.625-18.566,26.625-18.566c-2.146-2.951,7.093-36.144,12.786-38.359c4.203-3.287,7.901-3.015,14.189-4.554
		c21.019-5.141,66.733,0.876,73.565,8.058c3.967,5.345,4.974,8.093,6.481,14.012c0.768,3.023,0.877,20.318,0.877,20.318
		c-1.051,8.232,34.506,12.086,48.151,36.399c4.9,8.733,12.589,15.208,16.073,26.118c3.67,11.498,0.456,30.502,3.384,44.153
		c1.41,6.576,6.991,34.118,5.233,40.699c-6.357,23.8-24.091,42.569-55.465,42.384c-3.364,15.762-15.652,20.533-16.439,38.513
		c-7.939,6.136-15.745,12.143-27.122,15.07c-11.379,2.928-34.893,4.582-41.188,4.017c-6.296-0.566-37.212-4.176-42.024-11.802
		c4.812,7.626,33.668,16.03,46.209,18.08c12.541,2.05,26.927-0.141,41.188-4.016c14.261-3.877,19.183-8.936,27.122-15.07
		c0.787-17.98,10.699-26.428,14.062-42.19c31.375,0.187,49.898-19.395,56.255-43.195c1.758-6.58-3.611-33.605-5.021-40.18
		c-2.93-13.652,1.661-28.685-2.009-40.184c-3.483-10.909-10.325-17.917-16.073-26.118c-5.29-7.547-8.628-15.802-14.064-23.104
		c-7.924-10.649-26.668-10.381-36.258-19.473l-0.053-0.025c-0.78-3.037,3.124-5.153,4.019-9.04
		c1.189-5.184-3.251-8.029-4.019-11.051c-1.507-5.92,3.967-7.712,0-13.057c-5.615-16.09-61.355-16.192-82.375-11.051
		c-6.287,1.539-12.873-0.272-17.075,3.014c-5.693,2.217-13.197,38.235-11.051,41.186c0,0-20.253,10.317-26.614,14.944
		c-7.676,5.582-28.734,41.042-33.151,51.232c-9.571,22.092-17.722,74.091-11.049,105.477c0,17.747,0,35.495,0,53.242
		c2.553,10.774,7.925,15.746,8.037,31.141l-1.357,0.736c12.253-3.354,21.531-7.405,39.176-7.032
		c-5.674-37.472-5.956-119.346,12.055-142.645c0-0.67,0-1.341,0-2.012c0.335,0,0.671,0,1.006,0
		c0.13,14.619,6.619,30.221,3.013,46.212c-2.007,8.904-8.875,31.48-6.025,42.189c3.013,6.696,6.025,13.395,9.039,20.091
		C189.551,356.503,191.281,365.394,191.281,365.394z"/>
</g>
<g id="Layer_6">
	<path fill="none" stroke="#FF1A00" d="M310.826,307.879c0,0,2.64-4.871,4.059-7.102c1.421-2.234,4.059-4.062,5.885-3.857
		s2.842-5.275,2.842-5.275s-1.625-6.9-0.407-8.726c0.609-2.638-1.623-19.888-1.623-19.888L310.826,307.879z"/>
	<path fill="none" stroke="#FF1A00" d="M310.826,307.879c0,0,2.64-4.871,4.059-7.102c1.421-2.234,4.059-4.062,5.885-3.857
		s2.842-5.275,2.842-5.275s-1.625-6.9-0.407-8.726c0.609-2.638-1.623-19.888-1.623-19.888L310.826,307.879z"/>
	<path fill="#FF1A00" d="M249.144,274.178l-44.609-0.776c0,0-1.679,14-4.758,24.638c-3.08,10.64-12.507,21.216-12.507,21.216
		s8.119-12.32,11.199-22.96c3.079-10.638,4.758-24.638,4.758-24.638L249.144,274.178z"/>
	<path fill="#FF1A00" d="M319.497,326.254c-10.359-12.879-19.385-50.394-19.385-50.394l-48.412-1.702l50.156-0.26
		C301.856,273.898,309.138,313.375,319.497,326.254z"/>
	<path fill="#FF1A00" d="M189.509,350.332c0,0,19.662,7.495,23.582,7.773c3.92,0.282,14.279,0.561,14.279,0.561l-1.745,22.743
		V360.41c0,0-10.358-0.278-14.279-0.561C207.426,359.571,189.509,350.332,189.509,350.332z"/>
	<path fill="#FF1A00" d="M269.027,382.248l-1.56-21.56c0,0,18.199-5.6,26.877-7.56c8.68-1.96,13.599-3.638,13.599-3.638
		s-2.521,3.64-11.2,5.6c-8.678,1.96-26.877,7.56-26.877,7.56L269.027,382.248z"/>
	<path fill="#FF1A00" stroke="#FF1A00" stroke-width="0.5" d="M253.121,148.38l1.129,0.162c0,0,2.66-7.579,4.272-9.434
		c1.612-1.855,3.709-2.983,3.709-2.983s-0.079-2.177-1.691-0.967c-1.614,1.209-4.275,3.627-5.646,7.579
		C253.523,146.687,253.121,148.38,253.121,148.38z"/>
	<path fill="#FF1A00" stroke="#FF1A00" stroke-width="0.5" d="M244.251,138.705c1.176,1.698,4.191,9.434,4.191,9.434l1.856-0.162
		c0,0-2.5-7.902-4.918-10.965c-2.419-3.065-3.708-3.71-3.708-2.743C241.672,135.237,242.8,136.608,244.251,138.705z"/>
	<path fill="none" stroke="#FF1A00" d="M202.45,99.109c0,0-1.197,7.179,4.442,13.502c5.641,6.324,16.066,14.87,21.023,16.238
		c4.958,1.368,13.757,5.419,13.757,5.419"/>
	<path fill="none" stroke="#FF1A00" d="M262.1,135.173c0,0,9.059-3.418,11.281-4.102c2.22-0.685,13.329-11.622,17.433-14.186
		c4.103-2.563,7.692-2.906,8.375-5.812c0.685-2.905,2.051-9.572-4.615-12.647"/>
	<path fill="none" stroke="#FF1A00" d="M129.085,364.288c0,0,14.021-7.656,18.355-7.656C151.776,356.632,165,355,165,355"/>
	<path fill="#FF1A00" stroke="#FF1A00" d="M329.856,215.886c0,1.523-8.275,47.146-8.275,47.146s5.275-45.622,5.275-47.146
		C326.856,215.886,328.826,210.112,329.856,215.886z"/>
	<g>
		<path fill="#FF1A00" d="M247.526,383.11l2.559,1.535c0,0-1.535-3.583-0.512-12.795c1.023-9.211,5.53-43.637,5.53-49.777
			s-0.924-73.047-1.435-97.098c-0.512-24.054-1.024-50.154-1.024-55.783c0-5.629,0.103-2.815,0.103-2.815s0.205-9.671,0.256-10.593
			c0.053-0.92,1.535-2.352,1.382-3.684c-0.153-1.333-1.739-2.507-3.634-2.303c-1.893,0.206-1.177,4.709-1.228,5.425
			c-0.044,0.626,0.973,10.439,0.973,10.439s0.143,25.443,0.143,41.361c0,15.918,1.096,46.998,1.096,58.789s1.01,45.143,0.673,51.881
			c-0.336,6.739-2.021,23.246-3.032,29.648C248.364,353.741,247.526,383.11,247.526,383.11z"/>
	</g>
</g>
<g id="Layer_7">
	<g id="Leafs">
		<path opacity="0.4" fill="#504A56" enable-background="new    " d="M430.709,225.835c0.158-2.132-11.791-11.467-13.299-11.527
			c0.471,1.583,1.223,3,2.254,4.25c-22.635-23.6-61.809-44.193-96.42-36.073c-11.578,2.717-54.418,28.118-63.049,19.66
			c-8.32-8.167-30.547-18.884-41.907-21.578c-14.512-3.437-23.993-10.881-38.21-2.052c3.417,4.232,20.894,4.686,27.106,6.759
			c5.381,1.794,10.772,7.344,14.882,8.617c2.878,9.14,0.945,36.198-6.216,43.48c-8.384,12.566-22.724,21.495-30.384,33.732
			c0.539,5.444-12.292,13.448-15.208,17.671c-6.638,9.611-9.654,19.068-12.115,30.271c-2.297,10.461-5.472,17.506-5.306,28.682
			c0.039,2.52,2.793,30.636,4.442,28.191c-8.591,12.727,12.763,37.934,20.884,45.748c8.275,7.965,50.81,49.811,56.601,39.934
			c7.928-13.534,13.384-26.614,23.396-39.069c9.049-11.259,19.992-20.463,25.9-34.587c14.412-34.455,10.65-73.734-12.281-103.581
			c-8.047-10.479-14.42-18.854-25.442-26.352c-10.297-7-21.127-13.58-23.586-26.521c-1.586-8.347,0.371-41.864,7.117-42.489
			c-0.378-0.358-0.42-0.769-0.123-1.229c6.555,9.89,27.305,14.068,36.167,24.078c4.82,5.448-2.436,41.434,4.75,53.755
			c-0.205-0.35,8.057,16.075,13.518,20.649c9.275,7.772,23.869,15.37,35.246,19.711c9.248,3.529,54.311,7.776,57.66-0.688
			c-0.332,0.863,27.828-2.92,27.986-6.637c0.316-7.448,26.248-2.065,26.264-11.144c-0.537-0.183-1.014-0.478-1.424-0.876
			c8.273-5.639,27.248,7.612,33.145,0.778c-2.326-1.751-25.936-44.663-26.062-44.329c0.58-0.235,1.131-0.175,1.654,0.182
			c0.77-3.096-2.604-0.052-2.312-0.253c-0.055-3.13-3.369-1.852-0.996-4.835c0.469,0.622,1.068,1.062,1.803,1.317
			C437.834,238.983,431.578,227.043,430.709,225.835C430.867,223.703,430.758,225.901,430.709,225.835z M158.893,387.978
			C159.496,389.228,158.947,388.091,158.893,387.978C158.974,388.147,158.893,387.978,158.893,387.978z M228.255,463.948
			c-0.004,0.072,0.01,0.139,0.025,0.207C228.264,464.089,228.251,464.021,228.255,463.948z M430.469,227.788
			C429.559,228.379,431.6,227.053,430.469,227.788C430.312,227.891,430.713,227.628,430.469,227.788z"/>
	</g>
	<path opacity="0.5" fill="#E1929C" enable-background="new    " d="M125.378,117.544c-1.633,2.169-8.98,3.693-8.478,3.502
		c0.113,0.664,0.208,1.262,0.303,1.859c0.093,0.552,0.054,1.002-0.7,0.918c-0.164-0.014-0.342,0.023-0.611,0.057
		c5.307,11.403,4.329,24.631,10.465,35.909c3.208,5.888,7.631,11.799,12.736,16.177c2.691,2.31,5.446,3.06,8.653,4.315
		c1.175,0.455,5.437,2,5.061,3.943c-0.16,0.842-1.924,1.925-2.635,1.244c-3.574-3.377-7.924-5.255-11.54-8.593
		c-4.556-4.198-8.708-9.657-11.882-14.965c-3.297-5.511-5.127-11.387-6.628-17.582c-1.302-5.38-1.774-13.74-5.012-18.346
		c-0.679-0.973-0.905-0.983-1.869-0.383c-0.532,0.332-1.16,0.514-1.729,0.785c-3.564,1.723-2.655,7.164-3.793,10.326
		c-0.472,1.3-0.581,4.521-1.193,5.528c-1.103,1.807-3.603,3.43-5.322,4.592c-3.952,2.676-8.599,4.213-12.863,6.233
		c-2.371,1.124-4.871,2.059-7.144,3.378c-1.854,1.08-3.606,2.957-5.72,3.44c3.022-5.997,9.228-13.497,8.101-20.386
		c-2.269-0.569-4.73,1.652-6.929,2.153c-3.558,0.818-6.523,1.214-9.906,2.688c0.01-3.053,0.471-6.205-1.414-8.854
		c-2.147-3.023-5.078-1.692-7.364-3.512c-0.68-0.539-0.627-2.318-0.845-3.016c-0.56-1.842-1.704-3.444-3.12-4.726
		c-1.344-1.228-3.758-1.059-5.423-1.021c1.358-1.552,3.394-2.195,4.877-3.719c2.18-2.245,3.784-4.225,6.261-6.198
		c1.755-1.393,3.432-3.375,3.583-5.714c0.123-1.843-1.72-3.59-1.613-5.052c3.85,1.667,6.824,1.976,10.961,2.189
		c2.833,0.152,7.886,1.52,10.231-0.672c-0.886-0.667-1.519,0.042-1.799-1.413c-0.923-4.722-5.588-8.361-9.569-10.952
		c-3.464-2.256-11.217-9.787-15.703-5.136c1.034-2.203,5.126-2.506,6.938-4.339c0.526-0.534-2.351-6.181-2.726-6.93
		c-1.284-2.622-3.475-3.601-5.845-4.986c1.787-0.498,3.609-0.655,4.45-2.551c2.322-5.196-0.257-10.326-2.451-14.907
		c3.068,1.737,5.249,3.896,9.045,3.897c2.015,0.003,3.856,0.445,5.753-0.48c0.835-0.405,1.844-2.757,2.203-2.852
		c0.713-0.187,2.489,2.188,3.028,2.56c2.062,1.415,4.434,2.429,6.949,2.569c0.904,0.052,1.833-0.507,2.767-0.581
		c1.558-0.106,2.046-1.14,2.42-2.39c0.547-1.799,0.538-3.606,0.212-5.442c0.077-0.015,0.144-0.043,0.221-0.06
		c1.667,4.861,3.733,8.629,7.041,12.569c3.393,4.044,6.035,8.809,9.984,12.298c1.745-2.764,3.486-5.608,3.633-8.98
		c0.126-2.98-3.379-6.326-4.614-8.986c-1.62-3.512-3.571-6.881-5.076-10.44c0.646,0.387,1.106,0.738,1.625,0.941
		c1.372,0.54,2.488-0.047,3.419-1.004c2.176-2.217,3.34-5.122,4.6-7.917c1.133-2.516-0.226-4.75,0.461-6.767
		c1.925,0.929,3.014,2.467,3.964,4.394c0.61,1.237,2.638,2.23,2.802,3.412c0.382,2.738,0.19,6.22,1.322,8.767
		c1.366,3.063,4.091,5.509,5.352,8.611c1.402,3.444,3.36,5.717,4.5,9.085c0.996,2.919,1.951,5.732,2.744,8.731
		c0.827,3.131,1.741,3.309,4.356,1.877c-0.908-0.267-1.006-0.529-0.402-1.117c1.435-1.384,2.366-2.589,3.341-4.315
		c0.113,0.152,0.223,0.232,0.233,0.325c0.167,2.105,0.363,4.204,0.575,6.305c0.127,1.306,0.4,5.176-0.212,6.363
		c0.669-0.586,0.853-0.275,0.953,0.276c0.271,1.525,0.33,1.68-0.549,2.884c0.232,0.105,0.463,0.216,0.718,0.332
		c0.23,1.549,0.305,2.965,0.26,4.527c-0.467-0.37-0.866-0.693-1.39-1.106c0.355-0.06,0.561-0.092,0.881-0.155
		c-0.033-0.533-0.059-1.085-0.097-1.775c-0.312,0.584-0.495,0.96-0.713,1.311c-0.51,0.063-0.607-0.208-0.301-0.801
		c-0.149-0.095-0.359-0.226-0.642-0.413c-0.013,0.591-0.014,1.101-0.027,1.811c0.319,0.237,0.788,0.598,1.288,0.973
		c-0.14,0.216-0.303,0.458-0.457,0.691c0.253,0.265,0.579,0.35,0.985,0.253c0.018,0.003,0.023,0.351-0.036,0.37
		c-0.498,0.356-1.022,0.452-1.559,0.31c0.058,0.353,0.1,0.625,0.137,0.876c-0.447,0.234-0.852,0.458-1.318,0.709
		c0.626,0.904-0.042,1.225-0.057,2.199c-0.744,0.158-1.528,0.91-1.594,1.666c-0.017,0.242,0.2,0.502,0.319,0.749
		c0.319-0.309,0.733-1.142,1.049-0.822C138.014,100.823,128.264,115.695,125.378,117.544z M69.776,85.011
		c-0.074,0.062-0.146,0.134-0.221,0.195c1.121,1.376,2.243,2.745,3.374,4.124c0.095-0.086,0.197-0.171,0.292-0.248
		C72.08,87.721,70.927,86.366,69.776,85.011C69.704,85.075,70.927,86.366,69.776,85.011z"/>
</g>
</svg>
